<svg width="405" height="52" viewBox="0 0 405 52" fill="none" xmlns="http://www.w3.org/2000/svg">
<g clip-path="url(#clip0_3579_892)">
<path d="M9.93449 2.78105C6.43726 5.04217 5.75024 12.1101 7.0706 17.8706C8.09889 22.3565 10.2851 28.3741 13.9716 34.0406C17.4396 39.3713 22.278 44.1512 25.9673 46.9168C30.7048 50.4678 37.4584 52.725 40.9556 50.4639C42.724 49.3205 45.3513 46.1967 45.4712 45.6362C45.4712 45.6362 43.9306 43.268 43.5925 42.7483L38.426 34.8068C38.042 34.2166 35.6343 34.756 34.4112 35.4467C32.7613 36.3786 31.2418 38.8792 31.2418 38.8792C30.1105 39.5308 29.163 38.8816 27.1831 37.9732C24.7499 36.8571 22.0141 33.3893 19.8368 30.2485C17.8481 26.9857 15.7876 23.0812 15.7578 20.4112C15.7332 18.2386 15.5251 17.1115 16.5833 16.3474C16.5833 16.3474 19.4932 15.9841 21.0196 14.8624C22.151 14.0308 23.627 12.0592 23.243 11.469L18.0765 3.52749C17.7384 3.0078 16.1978 0.639648 16.1978 0.639648C15.6354 0.520229 11.7029 1.63771 9.93449 2.78105Z" fill="white"/>
</g>
<path d="M394.578 45.0001V37.2509H378.203V32.7306L394.347 10.6362H399.744V32.7306H404.495V37.2509H399.744V45.0001H394.578ZM382.216 34.714L381.34 32.7306H394.578V14.9721L396.054 15.4333L382.216 34.714Z" fill="white"/>
<path d="M354.768 44.9999L366.531 29.7783L367.453 30.378C367.023 30.8392 366.546 31.2082 366.023 31.485C365.531 31.7617 364.993 31.9616 364.409 32.0846C363.855 32.2076 363.256 32.2691 362.61 32.2691C360.55 32.2691 358.705 31.8079 357.075 30.8854C355.445 29.9321 354.153 28.6406 353.2 27.0108C352.278 25.3502 351.816 23.4744 351.816 21.3834C351.816 19.2001 352.324 17.2628 353.339 15.5715C354.353 13.8802 355.737 12.5426 357.49 11.5586C359.243 10.5745 361.241 10.0825 363.486 10.0825C365.762 10.0825 367.761 10.5745 369.483 11.5586C371.235 12.5426 372.604 13.8956 373.588 15.6176C374.603 17.3089 375.11 19.2462 375.11 21.4295C375.11 22.598 374.987 23.7512 374.741 24.889C374.495 26.0267 374.065 27.2106 373.45 28.4407C372.835 29.64 371.973 30.9622 370.866 32.4075L361.272 44.9999H354.768ZM363.486 27.7027C364.686 27.7027 365.746 27.4259 366.669 26.8724C367.592 26.3189 368.33 25.5655 368.883 24.6122C369.437 23.6589 369.713 22.5673 369.713 21.3373C369.713 20.0765 369.437 18.9695 368.883 18.0162C368.33 17.0322 367.576 16.2788 366.623 15.756C365.7 15.2025 364.655 14.9258 363.486 14.9258C362.318 14.9258 361.257 15.2025 360.304 15.756C359.381 16.2788 358.643 17.0322 358.09 18.0162C357.536 18.9695 357.259 20.0765 357.259 21.3373C357.259 22.5673 357.521 23.6589 358.043 24.6122C358.597 25.5655 359.35 26.3189 360.304 26.8724C361.257 27.4259 362.318 27.7027 363.486 27.7027Z" fill="white"/>
<path d="M333.191 45.5534C330.454 45.5534 328.056 44.8154 325.995 43.3394C323.935 41.8326 322.321 39.7569 321.152 37.1124C320.014 34.4371 319.445 31.3312 319.445 27.7949C319.445 24.2278 320.014 21.122 321.152 18.4775C322.321 15.8329 323.92 13.7726 325.949 12.2966C328.009 10.8205 330.408 10.0825 333.145 10.0825C335.882 10.0825 338.265 10.8205 340.294 12.2966C342.355 13.7726 343.954 15.8483 345.091 18.5236C346.26 21.1681 346.844 24.2586 346.844 27.7949C346.844 31.3312 346.275 34.4371 345.138 37.1124C344 39.7569 342.401 41.8326 340.34 43.3394C338.311 44.8154 335.928 45.5534 333.191 45.5534ZM333.191 40.5718C334.882 40.5718 336.343 40.0491 337.573 39.0035C338.803 37.958 339.756 36.482 340.433 34.5754C341.109 32.6689 341.447 30.4087 341.447 27.7949C341.447 25.1811 341.109 22.9209 340.433 21.0144C339.756 19.1078 338.803 17.6318 337.573 16.5863C336.343 15.5408 334.867 15.018 333.145 15.018C331.453 15.018 329.993 15.5408 328.763 16.5863C327.533 17.6318 326.579 19.1078 325.903 21.0144C325.226 22.9209 324.888 25.1811 324.888 27.7949C324.888 30.378 325.226 32.6381 325.903 34.5754C326.579 36.482 327.533 37.958 328.763 39.0035C330.024 40.0491 331.5 40.5718 333.191 40.5718Z" fill="white"/>
<path d="M291.465 35.7286V31.116H312.222V35.7286H291.465Z" fill="white"/>
<path d="M272.466 45.5534C270.068 45.5534 267.961 45.0922 266.147 44.1696C264.363 43.2164 262.98 41.9556 261.996 40.3873C261.012 38.7883 260.52 37.0201 260.52 35.0828C260.52 32.8688 261.119 30.9622 262.318 29.3632C263.548 27.7334 265.271 26.5495 267.485 25.8115L267.254 27.1953C265.624 26.5803 264.333 25.5501 263.379 24.1048C262.457 22.6288 261.996 21.0144 261.996 19.2616C261.996 17.5088 262.441 15.9405 263.333 14.5567C264.256 13.173 265.501 12.0813 267.069 11.2818C268.668 10.4823 270.467 10.0825 272.466 10.0825C274.496 10.0825 276.295 10.4823 277.863 11.2818C279.431 12.0506 280.661 13.1268 281.553 14.5106C282.476 15.8944 282.937 17.4781 282.937 19.2616C282.937 21.0759 282.46 22.7057 281.507 24.151C280.584 25.5655 279.324 26.5803 277.725 27.1953L277.494 25.8115C279.708 26.5803 281.43 27.7642 282.66 29.3632C283.89 30.9622 284.505 32.8688 284.505 35.0828C284.505 37.0201 283.998 38.7883 282.983 40.3873C281.999 41.9556 280.6 43.2164 278.785 44.1696C276.971 45.0922 274.865 45.5534 272.466 45.5534ZM272.466 40.9408C273.788 40.9408 274.942 40.6948 275.926 40.2028C276.91 39.68 277.678 38.9728 278.232 38.081C278.785 37.1892 279.062 36.1437 279.062 34.9444C279.062 33.7452 278.785 32.6996 278.232 31.8079C277.678 30.9161 276.91 30.2242 275.926 29.7322C274.942 29.2402 273.788 28.9942 272.466 28.9942C271.175 28.9942 270.037 29.2402 269.053 29.7322C268.069 30.2242 267.3 30.9161 266.747 31.8079C266.193 32.6996 265.916 33.7452 265.916 34.9444C265.916 36.1437 266.193 37.1892 266.747 38.081C267.3 38.9728 268.069 39.68 269.053 40.2028C270.037 40.6948 271.175 40.9408 272.466 40.9408ZM272.466 24.3816C273.45 24.3816 274.311 24.1817 275.049 23.7819C275.818 23.3514 276.418 22.7672 276.848 22.0292C277.279 21.2911 277.494 20.4609 277.494 19.5384C277.494 18.5851 277.279 17.7548 276.848 17.0475C276.418 16.3095 275.818 15.7406 275.049 15.3409C274.311 14.9104 273.45 14.6951 272.466 14.6951C271.513 14.6951 270.652 14.9104 269.883 15.3409C269.114 15.7406 268.515 16.3095 268.084 17.0475C267.654 17.7548 267.438 18.5851 267.438 19.5384C267.438 20.4609 267.654 21.2911 268.084 22.0292C268.515 22.7672 269.114 23.3514 269.883 23.7819C270.652 24.1817 271.513 24.3816 272.466 24.3816Z" fill="white"/>
<path d="M232.676 44.9999V41.0792L242.086 31.0237C243.931 29.0557 245.376 27.472 246.421 26.2728C247.498 25.0427 248.267 23.9665 248.728 23.0439C249.22 22.1214 249.466 21.1528 249.466 20.138C249.466 18.4775 248.958 17.2013 247.944 16.3095C246.929 15.387 245.622 14.9258 244.023 14.9258C242.362 14.9258 240.933 15.4024 239.733 16.3557C238.534 17.2782 237.704 18.6312 237.242 20.4147L232.445 19.031C232.814 17.2167 233.552 15.6484 234.659 14.3261C235.766 12.9731 237.119 11.9276 238.718 11.1895C240.348 10.4515 242.101 10.0825 243.977 10.0825C246.16 10.0825 248.067 10.4977 249.696 11.3279C251.326 12.1274 252.587 13.2498 253.479 14.6951C254.401 16.1404 254.863 17.8163 254.863 19.7229C254.863 20.9836 254.617 22.2137 254.125 23.4129C253.663 24.5815 252.941 25.8269 251.957 27.1491C250.973 28.4407 249.712 29.9013 248.174 31.5311L239.872 40.3873H255.508V44.9999H232.676Z" fill="white"/>
<path d="M216.55 45.5536C214.305 45.5536 212.306 45.0616 210.553 44.0776C208.8 43.0936 207.417 41.7405 206.402 40.0185C205.418 38.2965 204.926 36.3438 204.926 34.1605C204.926 33.0227 205.049 31.885 205.295 30.7472C205.541 29.6094 205.971 28.4255 206.586 27.1955C207.232 25.9654 208.093 24.6432 209.169 23.2286L218.764 10.6362H225.267L213.505 25.8578L212.583 25.2582C213.013 24.7662 213.474 24.3818 213.966 24.105C214.489 23.8283 215.027 23.6284 215.581 23.5054C216.165 23.3824 216.78 23.3209 217.426 23.3209C219.486 23.3209 221.331 23.7975 222.961 24.7508C224.591 25.7041 225.867 26.9956 226.79 28.6254C227.743 30.2552 228.219 32.131 228.219 34.2528C228.219 36.4053 227.712 38.3426 226.697 40.0646C225.682 41.7559 224.299 43.0936 222.546 44.0776C220.824 45.0616 218.825 45.5536 216.55 45.5536ZM216.55 40.7104C217.749 40.7104 218.81 40.4336 219.732 39.8801C220.655 39.3266 221.393 38.5732 221.946 37.62C222.5 36.6359 222.777 35.5289 222.777 34.2989C222.777 33.0381 222.5 31.9311 221.946 30.9778C221.424 30.0245 220.685 29.2865 219.732 28.7638C218.81 28.2102 217.749 27.9335 216.55 27.9335C215.381 27.9335 214.32 28.2102 213.367 28.7638C212.444 29.2865 211.706 30.0245 211.153 30.9778C210.599 31.9311 210.323 33.0381 210.323 34.2989C210.323 35.5289 210.599 36.6359 211.153 37.62C211.706 38.5732 212.444 39.3266 213.367 39.8801C214.32 40.4336 215.381 40.7104 216.55 40.7104Z" fill="white"/>
<path d="M177.5 35.7286V31.116H198.257V35.7286H177.5Z" fill="white"/>
<path d="M156.613 45.5534C153.876 45.5534 151.477 44.8154 149.417 43.3394C147.357 41.8326 145.742 39.7569 144.574 37.1124C143.436 34.4371 142.867 31.3312 142.867 27.7949C142.867 24.2278 143.436 21.122 144.574 18.4775C145.742 15.8329 147.341 13.7726 149.371 12.2966C151.431 10.8205 153.83 10.0825 156.567 10.0825C159.303 10.0825 161.687 10.8205 163.716 12.2966C165.776 13.7726 167.375 15.8483 168.513 18.5236C169.682 21.1681 170.266 24.2586 170.266 27.7949C170.266 31.3312 169.697 34.4371 168.559 37.1124C167.422 39.7569 165.823 41.8326 163.762 43.3394C161.733 44.8154 159.35 45.5534 156.613 45.5534ZM156.613 40.5718C158.304 40.5718 159.765 40.0491 160.995 39.0035C162.225 37.958 163.178 36.482 163.855 34.5754C164.531 32.6689 164.869 30.4087 164.869 27.7949C164.869 25.1811 164.531 22.9209 163.855 21.0144C163.178 19.1078 162.225 17.6318 160.995 16.5863C159.765 15.5408 158.289 15.018 156.567 15.018C154.875 15.018 153.415 15.5408 152.185 16.5863C150.955 17.6318 150.001 19.1078 149.325 21.0144C148.648 22.9209 148.31 25.1811 148.31 27.7949C148.31 30.378 148.648 32.6381 149.325 34.5754C150.001 36.482 150.955 37.958 152.185 39.0035C153.445 40.0491 154.921 40.5718 156.613 40.5718Z" fill="white"/>
<path d="M114.793 44.9999V41.0792L124.203 31.0237C126.048 29.0557 127.493 27.472 128.539 26.2728C129.615 25.0427 130.384 23.9665 130.845 23.0439C131.337 22.1214 131.583 21.1528 131.583 20.138C131.583 18.4775 131.076 17.2013 130.061 16.3095C129.046 15.387 127.739 14.9258 126.14 14.9258C124.48 14.9258 123.05 15.4024 121.85 16.3557C120.651 17.2782 119.821 18.6312 119.36 20.4147L114.562 19.031C114.932 17.2167 115.67 15.6484 116.777 14.3261C117.884 12.9731 119.237 11.9276 120.836 11.1895C122.465 10.4515 124.218 10.0825 126.094 10.0825C128.277 10.0825 130.184 10.4977 131.814 11.3279C133.443 12.1274 134.704 13.2498 135.596 14.6951C136.518 16.1404 136.98 17.8163 136.98 19.7229C136.98 20.9836 136.734 22.2137 136.242 23.4129C135.78 24.5815 135.058 25.8269 134.074 27.1491C133.09 28.4407 131.829 29.9013 130.291 31.5311L121.989 40.3873H137.626V44.9999H114.793Z" fill="white"/>
<path d="M102.541 45.0001V15.2488H95.9453V10.6362H107.938V45.0001H102.541Z" fill="white"/>
<path d="M77.9643 45.5534C75.2275 45.5534 72.8289 44.8154 70.7686 43.3394C68.7083 41.8326 67.0939 39.7569 65.9254 37.1124C64.7876 34.4371 64.2188 31.3312 64.2188 27.7949C64.2188 24.2278 64.7876 21.122 65.9254 18.4775C67.0939 15.8329 68.693 13.7726 70.7225 12.2966C72.7828 10.8205 75.1814 10.0825 77.9182 10.0825C80.655 10.0825 83.0382 10.8205 85.0677 12.2966C87.128 13.7726 88.727 15.8483 89.8648 18.5236C91.0333 21.1681 91.6176 24.2586 91.6176 27.7949C91.6176 31.3312 91.0487 34.4371 89.9109 37.1124C88.7732 39.7569 87.1741 41.8326 85.1138 43.3394C83.0843 44.8154 80.7011 45.5534 77.9643 45.5534ZM77.9643 40.5718C79.6556 40.5718 81.1162 40.0491 82.3463 39.0035C83.5763 37.958 84.5296 36.482 85.2061 34.5754C85.8826 32.6689 86.2209 30.4087 86.2209 27.7949C86.2209 25.1811 85.8826 22.9209 85.2061 21.0144C84.5296 19.1078 83.5763 17.6318 82.3463 16.5863C81.1162 15.5408 79.6402 15.018 77.9182 15.018C76.2269 15.018 74.7662 15.5408 73.5362 16.5863C72.3062 17.6318 71.3529 19.1078 70.6764 21.0144C69.9999 22.9209 69.6616 25.1811 69.6616 27.7949C69.6616 30.378 69.9999 32.6381 70.6764 34.5754C71.3529 36.482 72.3062 37.958 73.5362 39.0035C74.797 40.0491 76.273 40.5718 77.9643 40.5718Z" fill="white"/>
<defs>
<clipPath id="clip0_3579_892">
<rect width="50.8977" height="50.7404" fill="white" transform="translate(0.507812 0.629883)"/>
</clipPath>
</defs>
</svg>
