<svg width="399" height="52" viewBox="0 0 399 52" fill="none" xmlns="http://www.w3.org/2000/svg">
<g clip-path="url(#clip0_3368_1524)">
<path d="M9.52824 3.02177C6.03101 5.28289 5.34399 12.3508 6.66435 18.1113C7.69264 22.5973 9.87886 28.6149 13.5654 34.2813C17.0334 39.6121 21.8717 44.392 25.561 47.1575C30.2986 50.7085 37.0522 52.9657 40.5494 50.7046C42.3178 49.5612 44.9451 46.4374 45.065 45.8769C45.065 45.8769 43.5243 43.5088 43.1862 42.9891L38.0197 35.0475C37.6358 34.4573 35.2281 34.9968 34.005 35.6874C32.3551 36.6194 30.8356 39.1199 30.8356 39.1199C29.7043 39.7715 28.7567 39.1223 26.7769 38.2139C24.3436 37.0978 21.6079 33.63 19.4305 30.4892C17.4418 27.2264 15.3814 23.3219 15.3516 20.6519C15.327 18.4794 15.1188 17.3522 16.177 16.5881C16.177 16.5881 19.087 16.2248 20.6134 15.1031C21.7448 14.2715 23.2207 12.2999 22.8368 11.7097L17.6703 3.76821C17.3322 3.24852 15.7915 0.88037 15.7915 0.88037C15.2292 0.760952 11.2966 1.87843 9.52824 3.02177Z" fill="white"/>
</g>
<path d="M375.781 45.2406V41.3199L385.191 31.2645C387.036 29.2964 388.481 27.7128 389.527 26.5135C390.603 25.2834 391.372 24.2072 391.833 23.2847C392.325 22.3621 392.571 21.3935 392.571 20.3787C392.571 18.7182 392.064 17.442 391.049 16.5503C390.034 15.6277 388.727 15.1665 387.128 15.1665C385.468 15.1665 384.038 15.6431 382.839 16.5964C381.639 17.5189 380.809 18.8719 380.348 20.6555L375.551 19.2717C375.92 17.4574 376.658 15.8891 377.765 14.5668C378.872 13.2138 380.225 12.1683 381.824 11.4303C383.454 10.6923 385.206 10.3232 387.082 10.3232C389.266 10.3232 391.172 10.7384 392.802 11.5686C394.432 12.3682 395.692 13.4906 396.584 14.9358C397.507 16.3811 397.968 18.057 397.968 19.9636C397.968 21.2244 397.722 22.4544 397.23 23.6537C396.769 24.8222 396.046 26.0676 395.062 27.3899C394.078 28.6814 392.817 30.1421 391.28 31.7718L382.977 40.628H398.614V45.2406H375.781Z" fill="white"/>
<path d="M351.396 45.2408L366.064 15.4896H349.551V10.877H371.737V15.4896L357.3 45.2408H351.396Z" fill="white"/>
<path d="M334.116 45.7944C331.871 45.7944 329.872 45.3023 328.12 44.3183C326.367 43.3343 324.983 41.9813 323.968 40.2592C322.984 38.5372 322.492 36.5845 322.492 34.4012C322.492 33.2635 322.615 32.1257 322.861 30.9879C323.107 29.8501 323.538 28.6662 324.153 27.4362C324.799 26.2062 325.66 24.8839 326.736 23.4694L336.33 10.877H342.834L331.072 26.0985L330.149 25.4989C330.58 25.0069 331.041 24.6225 331.533 24.3458C332.056 24.069 332.594 23.8691 333.147 23.7461C333.732 23.6231 334.347 23.5616 334.992 23.5616C337.053 23.5616 338.898 24.0382 340.527 24.9915C342.157 25.9448 343.433 27.2363 344.356 28.8661C345.309 30.4959 345.786 32.3717 345.786 34.4935C345.786 36.646 345.278 38.5833 344.264 40.3054C343.249 41.9966 341.865 43.3343 340.112 44.3183C338.39 45.3023 336.392 45.7944 334.116 45.7944ZM334.116 40.9511C335.315 40.9511 336.376 40.6744 337.299 40.1209C338.221 39.5673 338.959 38.8139 339.513 37.8607C340.066 36.8767 340.343 35.7696 340.343 34.5396C340.343 33.2788 340.066 32.1718 339.513 31.2185C338.99 30.2653 338.252 29.5272 337.299 29.0045C336.376 28.451 335.315 28.1742 334.116 28.1742C332.947 28.1742 331.887 28.451 330.933 29.0045C330.011 29.5272 329.273 30.2653 328.719 31.2185C328.166 32.1718 327.889 33.2788 327.889 34.5396C327.889 35.7696 328.166 36.8767 328.719 37.8607C329.273 38.8139 330.011 39.5673 330.933 40.1209C331.887 40.6744 332.947 40.9511 334.116 40.9511Z" fill="white"/>
<path d="M295.066 35.9693V31.3567H315.823V35.9693H295.066Z" fill="white"/>
<path d="M268.56 45.2408L283.228 15.4896H266.715V10.877H288.901V15.4896L274.464 45.2408H268.56Z" fill="white"/>
<path d="M248.64 45.7942C245.903 45.7942 243.505 45.0561 241.444 43.5801C239.384 42.0733 237.77 39.9976 236.601 37.3531C235.463 34.6778 234.895 31.572 234.895 28.0356C234.895 24.4686 235.463 21.3627 236.601 18.7182C237.77 16.0736 239.369 14.0133 241.398 12.5373C243.459 11.0613 245.857 10.3232 248.594 10.3232C251.331 10.3232 253.714 11.0613 255.743 12.5373C257.804 14.0133 259.403 16.089 260.541 18.7643C261.709 21.4089 262.293 24.4993 262.293 28.0356C262.293 31.572 261.724 34.6778 260.587 37.3531C259.449 39.9976 257.85 42.0733 255.79 43.5801C253.76 45.0561 251.377 45.7942 248.64 45.7942ZM248.64 40.8125C250.331 40.8125 251.792 40.2898 253.022 39.2443C254.252 38.1987 255.205 36.7227 255.882 34.8162C256.558 32.9096 256.897 30.6494 256.897 28.0356C256.897 25.4218 256.558 23.1617 255.882 21.2551C255.205 19.3486 254.252 17.8725 253.022 16.827C251.792 15.7815 250.316 15.2587 248.594 15.2587C246.903 15.2587 245.442 15.7815 244.212 16.827C242.982 17.8725 242.029 19.3486 241.352 21.2551C240.676 23.1617 240.337 25.4218 240.337 28.0356C240.337 30.6187 240.676 32.8789 241.352 34.8162C242.029 36.7227 242.982 38.1987 244.212 39.2443C245.473 40.2898 246.949 40.8125 248.64 40.8125Z" fill="white"/>
<path d="M220.433 45.2408V37.4917H204.059V32.9713L220.203 10.877H225.599V32.9713H230.35V37.4917H225.599V45.2408H220.433ZM208.072 34.9547L207.195 32.9713H220.433V15.2128L221.909 15.6741L208.072 34.9547Z" fill="white"/>
<path d="M177.094 35.9693V31.3567H197.85V35.9693H177.094Z" fill="white"/>
<path d="M156.206 45.7942C153.47 45.7942 151.071 45.0561 149.011 43.5801C146.951 42.0733 145.336 39.9976 144.168 37.3531C143.03 34.6778 142.461 31.572 142.461 28.0356C142.461 24.4686 143.03 21.3627 144.168 18.7182C145.336 16.0736 146.935 14.0133 148.965 12.5373C151.025 11.0613 153.424 10.3232 156.16 10.3232C158.897 10.3232 161.28 11.0613 163.31 12.5373C165.37 14.0133 166.969 16.089 168.107 18.7643C169.276 21.4089 169.86 24.4993 169.86 28.0356C169.86 31.572 169.291 34.6778 168.153 37.3531C167.015 39.9976 165.416 42.0733 163.356 43.5801C161.326 45.0561 158.943 45.7942 156.206 45.7942ZM156.206 40.8125C157.898 40.8125 159.358 40.2898 160.588 39.2443C161.818 38.1987 162.772 36.7227 163.448 34.8162C164.125 32.9096 164.463 30.6494 164.463 28.0356C164.463 25.4218 164.125 23.1617 163.448 21.2551C162.772 19.3486 161.818 17.8725 160.588 16.827C159.358 15.7815 157.882 15.2587 156.16 15.2587C154.469 15.2587 153.008 15.7815 151.778 16.827C150.548 17.8725 149.595 19.3486 148.919 21.2551C148.242 23.1617 147.904 25.4218 147.904 28.0356C147.904 30.6187 148.242 32.8789 148.919 34.8162C149.595 36.7227 150.548 38.1987 151.778 39.2443C153.039 40.2898 154.515 40.8125 156.206 40.8125Z" fill="white"/>
<path d="M114.387 45.2406V41.3199L123.797 31.2645C125.642 29.2964 127.087 27.7128 128.132 26.5135C129.209 25.2834 129.977 24.2072 130.439 23.2847C130.931 22.3621 131.177 21.3935 131.177 20.3787C131.177 18.7182 130.669 17.442 129.655 16.5503C128.64 15.6277 127.333 15.1665 125.734 15.1665C124.073 15.1665 122.643 15.6431 121.444 16.5964C120.245 17.5189 119.415 18.8719 118.953 20.6555L114.156 19.2717C114.525 17.4574 115.263 15.8891 116.37 14.5668C117.477 13.2138 118.83 12.1683 120.429 11.4303C122.059 10.6923 123.812 10.3232 125.688 10.3232C127.871 10.3232 129.778 10.7384 131.407 11.5686C133.037 12.3682 134.298 13.4906 135.19 14.9358C136.112 16.3811 136.573 18.057 136.573 19.9636C136.573 21.2244 136.327 22.4544 135.835 23.6537C135.374 24.8222 134.652 26.0676 133.668 27.3899C132.684 28.6814 131.423 30.1421 129.885 31.7718L121.583 40.628H137.219V45.2406H114.387Z" fill="white"/>
<path d="M102.135 45.2408V15.4896H95.5391V10.877H107.532V45.2408H102.135Z" fill="white"/>
<path d="M77.5581 45.7942C74.8212 45.7942 72.4227 45.0561 70.3624 43.5801C68.3021 42.0733 66.6877 39.9976 65.5192 37.3531C64.3814 34.6778 63.8125 31.572 63.8125 28.0356C63.8125 24.4686 64.3814 21.3627 65.5192 18.7182C66.6877 16.0736 68.2867 14.0133 70.3163 12.5373C72.3766 11.0613 74.7751 10.3232 77.5119 10.3232C80.2487 10.3232 82.6319 11.0613 84.6615 12.5373C86.7218 14.0133 88.3208 16.089 89.4586 18.7643C90.6271 21.4089 91.2114 24.4993 91.2114 28.0356C91.2114 31.572 90.6425 34.6778 89.5047 37.3531C88.3669 39.9976 86.7679 42.0733 84.7076 43.5801C82.678 45.0561 80.2949 45.7942 77.5581 45.7942ZM77.5581 40.8125C79.2493 40.8125 80.71 40.2898 81.94 39.2443C83.1701 38.1987 84.1233 36.7227 84.7998 34.8162C85.4764 32.9096 85.8146 30.6494 85.8146 28.0356C85.8146 25.4218 85.4764 23.1617 84.7998 21.2551C84.1233 19.3486 83.1701 17.8725 81.94 16.827C80.71 15.7815 79.234 15.2587 77.5119 15.2587C75.8206 15.2587 74.36 15.7815 73.13 16.827C71.8999 17.8725 70.9467 19.3486 70.2701 21.2551C69.5936 23.1617 69.2554 25.4218 69.2554 28.0356C69.2554 30.6187 69.5936 32.8789 70.2701 34.8162C70.9467 36.7227 71.8999 38.1987 73.13 39.2443C74.3907 40.2898 75.8668 40.8125 77.5581 40.8125Z" fill="white"/>
<defs>
<clipPath id="clip0_3368_1524">
<rect width="50.8977" height="50.7404" fill="white" transform="translate(0.101562 0.870605)"/>
</clipPath>
</defs>
</svg>
