<svg width="118" height="111" viewBox="0 0 118 111" fill="none" xmlns="http://www.w3.org/2000/svg">
<g filter="url(#filter0_d_5004_947)">
<mask id="path-1-inside-1_5004_947" fill="white">
<path d="M52.3594 0.0888672C80.802 0.0888672 103.859 23.1462 103.859 51.5889C103.859 57.1151 102.988 62.4377 101.377 67.4277L110.772 82.1963L93.7305 82.2607C84.3457 94.8984 69.3099 103.089 52.3594 103.089C23.9167 103.089 0.859375 80.0315 0.859375 51.5889C0.859375 23.1462 23.9167 0.0888672 52.3594 0.0888672Z"/>
</mask>
<path d="M52.3594 0.0888672C80.802 0.0888672 103.859 23.1462 103.859 51.5889C103.859 57.1151 102.988 62.4377 101.377 67.4277L110.772 82.1963L93.7305 82.2607C84.3457 94.8984 69.3099 103.089 52.3594 103.089C23.9167 103.089 0.859375 80.0315 0.859375 51.5889C0.859375 23.1462 23.9167 0.0888672 52.3594 0.0888672Z" fill="white"/>
<path d="M101.377 67.4277L98.5221 66.5059L98.0887 67.8481L98.8458 69.038L101.377 67.4277ZM110.772 82.1963L110.784 85.1963L116.224 85.1757L113.304 80.586L110.772 82.1963ZM93.7305 82.2607L93.7191 79.2608L92.2173 79.2664L91.3219 80.4722L93.7305 82.2607ZM52.3594 0.0888672V3.08887C79.1452 3.08887 100.859 24.8031 100.859 51.5889H103.859H106.859C106.859 21.4893 82.4589 -2.91113 52.3594 -2.91113V0.0888672ZM103.859 51.5889H100.859C100.859 56.798 100.038 61.8098 98.5221 66.5059L101.377 67.4277L104.232 68.3495C105.938 63.0656 106.859 57.4321 106.859 51.5889H103.859ZM101.377 67.4277L98.8458 69.038L108.241 83.8066L110.772 82.1963L113.304 80.586L103.908 65.8174L101.377 67.4277ZM110.772 82.1963L110.761 79.1963L93.7191 79.2608L93.7305 82.2607L93.7418 85.2607L110.784 85.1963L110.772 82.1963ZM93.7305 82.2607L91.3219 80.4722C82.4786 92.3807 68.3201 100.089 52.3594 100.089V103.089V106.089C70.2996 106.089 86.2128 97.416 96.139 84.0493L93.7305 82.2607ZM52.3594 103.089V100.089C25.5736 100.089 3.85938 78.3747 3.85938 51.5889H0.859375H-2.14062C-2.14062 81.6884 22.2599 106.089 52.3594 106.089V103.089ZM0.859375 51.5889H3.85938C3.85938 24.8031 25.5736 3.08887 52.3594 3.08887V0.0888672V-2.91113C22.2599 -2.91113 -2.14062 21.4893 -2.14062 51.5889H0.859375Z" fill="#FF7C53" mask="url(#path-1-inside-1_5004_947)"/>
</g>
<path d="M12.9578 63.37L15.3066 57.4589C21.1786 60.0034 25.7978 60.0034 25.7978 58.2418C25.7978 57.4197 24.1928 56.9891 20.5914 55.3058C15.1892 52.7613 13.5059 50.8823 13.5059 46.8893C13.5059 42.1526 17.9294 39.0992 23.1359 39.0992C25.837 39.0992 28.7338 39.9213 31.3566 41.722L27.99 46.8893C22.5095 43.5619 20.1608 44.932 20.1608 46.9676C20.1608 47.5548 20.6697 48.3769 23.8014 49.747C30.2605 52.5656 32.1395 54.4837 32.1395 58.2418C32.1395 63.2134 27.6377 65.523 22.2747 65.523C19.2212 65.523 15.9329 64.7792 12.9578 63.37ZM43.0834 65.6796L36.6634 65.3273C36.8983 60.6297 37.8769 45.7149 38.3858 39.3732L44.845 39.569C46.9589 44.658 48.8771 49.1207 51.265 54.6403C53.6138 49.1598 55.9234 43.7968 58.1548 39.4124L64.6139 39.1384C64.9271 44.0708 66.3755 59.1813 67.1193 65.3664L60.6601 65.7187C60.2687 62.1173 59.7206 56.0104 59.1726 50.1385C57.0195 55.0318 55.0622 58.7115 52.9091 62.4304H49.1511C47.4678 59.3379 45.6279 55.7756 43.9055 52.4481C43.6315 56.6759 43.3574 61.2561 43.0834 65.6796ZM71.6789 63.37L74.0277 57.4589C79.8996 60.0034 84.5189 60.0034 84.5189 58.2418C84.5189 57.4197 82.9139 56.9891 79.3125 55.3058C73.9103 52.7613 72.227 50.8823 72.227 46.8893C72.227 42.1526 76.6505 39.0992 81.857 39.0992C84.5581 39.0992 87.4549 39.9213 90.0777 41.722L86.7111 46.8893C81.2306 43.5619 78.8818 44.932 78.8818 46.9676C78.8818 47.5548 79.3907 48.3769 82.5225 49.747C88.9816 52.5656 90.8606 54.4837 90.8606 58.2418C90.8606 63.2134 86.3588 65.523 80.9957 65.523C77.9423 65.523 74.654 64.7792 71.6789 63.37Z" fill="#FF7C53"/>
<defs>
<filter id="filter0_d_5004_947" x="0.859375" y="0.0888672" width="116.914" height="110" filterUnits="userSpaceOnUse" color-interpolation-filters="sRGB">
<feFlood flood-opacity="0" result="BackgroundImageFix"/>
<feColorMatrix in="SourceAlpha" type="matrix" values="0 0 0 0 0 0 0 0 0 0 0 0 0 0 0 0 0 0 127 0" result="hardAlpha"/>
<feOffset dx="5" dy="5"/>
<feGaussianBlur stdDeviation="1"/>
<feComposite in2="hardAlpha" operator="out"/>
<feColorMatrix type="matrix" values="0 0 0 0 0 0 0 0 0 0 0 0 0 0 0 0 0 0 0.25 0"/>
<feBlend mode="normal" in2="BackgroundImageFix" result="effect1_dropShadow_5004_947"/>
<feBlend mode="normal" in="SourceGraphic" in2="effect1_dropShadow_5004_947" result="shape"/>
</filter>
</defs>
</svg>
