<svg width="31" height="31" viewBox="0 0 31 31" fill="none" xmlns="http://www.w3.org/2000/svg">
<path fill-rule="evenodd" clip-rule="evenodd" d="M18.2087 2.55011C18.2087 1.66084 18.9296 0.939941 19.8189 0.939941H28.7441C29.6334 0.939941 30.3543 1.66084 30.3543 2.55011V11.4754C30.3543 12.3646 29.6334 13.0855 28.7441 13.0855C27.8549 13.0855 27.134 12.3646 27.134 11.4754V6.43739L16.4948 17.0766C15.866 17.7054 14.8465 17.7054 14.2177 17.0766C13.5889 16.4477 13.5889 15.4282 14.2177 14.7994L24.8569 4.16027H19.8189C18.9296 4.16027 18.2087 3.43938 18.2087 2.55011Z" fill="#052482"/>
<path fill-rule="evenodd" clip-rule="evenodd" d="M4.94463 4.16027C4.1908 4.16027 3.5797 4.77137 3.5797 5.52519V26.3508C3.5797 27.1047 4.19078 27.7157 4.94463 27.7157H25.7702C26.5241 27.7157 27.1351 27.1047 27.1351 26.3508V17.4255C27.1351 16.5363 27.856 15.8154 28.7453 15.8154C29.6346 15.8154 30.3555 16.5363 30.3555 17.4255V26.3508C30.3555 28.8832 28.3026 30.936 25.7702 30.936H4.94463C2.41228 30.936 0.359375 28.8832 0.359375 26.3508V5.52519C0.359375 2.99283 2.41226 0.939941 4.94463 0.939941H13.8699C14.7592 0.939941 15.4801 1.66084 15.4801 2.55011C15.4801 3.43938 14.7592 4.16027 13.8699 4.16027H4.94463Z" fill="#052482"/>
</svg>
