<svg width="207" height="25" viewBox="0 0 207 25" fill="none" xmlns="http://www.w3.org/2000/svg">
<path d="M188.264 9.27217H187.354C186.73 9.27217 186.21 9.29817 185.638 9.37617V8.10217C184.962 8.72617 184.754 8.90817 184.052 9.42817C183.688 8.77817 183.558 8.59617 183.012 8.07617C185.664 6.25617 187.276 4.35817 188.368 1.81017H190.318C191.202 3.76017 192.372 5.06017 194.764 6.75017C194.296 7.27017 194.114 7.50417 193.802 8.10217C191.592 6.33417 190.578 5.21617 189.382 3.24017C188.316 5.19017 187.354 6.43817 185.898 7.84217C186.418 7.89417 186.808 7.92017 187.38 7.92017H191.072C191.8 7.92017 192.268 7.89417 192.788 7.81617V9.37617C192.268 9.29817 191.8 9.27217 191.046 9.27217H189.824V12.0282H191.644C192.658 12.0282 193.282 12.0022 194.01 11.8982V13.5622C193.308 13.4582 192.632 13.4322 191.644 13.4322H189.824V20.9462C191.384 20.5822 192.19 20.3482 194.244 19.6982V21.2322C191.306 22.1422 189.174 22.6882 184.962 23.5722C184.208 23.7282 184.13 23.7542 183.74 23.8842L183.324 22.0122C184.338 22.0122 185.716 21.8042 188.264 21.2842V13.4322H185.924C184.884 13.4322 184.156 13.4842 183.48 13.5622V11.8982C184.156 12.0022 184.858 12.0282 185.95 12.0282H188.264V9.27217ZM199.054 9.97417V4.17617C199.054 3.16217 199.002 2.35617 198.872 1.47217H200.9C200.77 2.33017 200.718 3.13617 200.718 4.17617V9.97417H203.396C204.67 9.97417 205.528 9.92217 206.36 9.81817V11.7162C205.476 11.6122 204.566 11.5602 203.422 11.5602H200.718V21.9342C200.718 23.0262 200.77 23.8322 200.9 24.6902H198.872C199.002 23.8062 199.054 23.0002 199.054 21.9342V11.5602H196.714C195.544 11.5602 194.686 11.6122 193.802 11.7162V9.81817C194.582 9.92217 195.466 9.97417 196.74 9.97417H199.054ZM186.86 19.8022L185.482 20.3222C185.066 18.1382 184.728 16.9942 184.026 15.2002L185.378 14.7322C186.106 16.7342 186.418 17.8262 186.86 19.8022ZM192.164 19.4902L190.89 19.0222C191.566 17.4882 191.904 16.3182 192.164 14.5242L193.568 15.0442C193.126 16.9682 192.814 17.9302 192.164 19.4902Z" fill="#333333"/>
<path d="M167.439 5.65792V3.70792C167.439 2.79792 167.361 2.09592 167.257 1.41992H169.337C169.233 1.96592 169.181 2.69392 169.181 3.70792V5.65792H177.137C178.463 5.65792 179.321 5.60592 180.127 5.47592V7.42592C179.399 7.29592 178.697 7.26992 177.189 7.26992H167.335C167.231 8.93392 167.179 9.58392 166.971 10.9879H174.069C175.447 10.9879 176.097 10.9619 176.747 10.8579C176.695 11.3779 176.669 11.6639 176.617 12.6779C176.513 15.7719 176.071 19.7759 175.629 21.5439C175.083 23.7799 174.459 24.3259 172.379 24.3259C171.547 24.3259 170.169 24.2479 168.765 24.0919C168.687 23.2599 168.609 22.9219 168.349 22.2459C169.857 22.5319 171.131 22.6619 172.275 22.6619C173.393 22.6619 173.653 22.3499 174.043 20.4259C174.485 18.2419 174.693 16.0059 174.849 12.5479H166.685C166.113 15.5119 165.411 17.3319 164.215 19.2039C163.383 20.4779 162.291 21.6999 160.991 22.7919C160.159 23.4939 159.587 23.8839 158.157 24.6899C157.793 24.0659 157.533 23.8059 156.883 23.2339C159.301 22.0379 160.731 20.8939 162.161 19.0219C164.293 16.2659 165.307 12.7299 165.515 7.26992H160.055C158.729 7.26992 157.845 7.32192 157.143 7.42592V5.47592C157.975 5.60592 158.755 5.65792 160.029 5.65792H167.439Z" fill="#333333"/>
<path d="M147.966 9.79192H151.216C152.282 9.79192 152.698 9.76592 153.114 9.68792V11.0139C152.646 10.9359 152.178 10.9099 151.216 10.9099H147.966V12.3139H151.19C152.178 12.3139 152.75 12.2879 153.114 12.2099V13.5359C152.672 13.4579 152.152 13.4319 151.19 13.4319H147.966V14.9399H152.308C153.296 14.9399 153.842 14.9139 154.232 14.8359V16.2919C153.712 16.2139 153.088 16.1619 152.23 16.1619H142.532C141.752 16.1619 141.206 16.1879 140.556 16.2399C140.608 15.5379 140.634 15.1219 140.634 14.2379V11.4299C140.634 10.9099 140.686 10.1819 140.738 9.60992C140.244 10.3119 139.906 10.6499 138.892 11.6379C138.788 11.2479 138.632 10.9879 138.138 10.4679C138.97 9.81792 139.386 9.37592 139.958 8.59592C140.816 7.45192 141.206 6.72392 141.7 5.37192L142.818 5.65792C142.87 5.16392 142.87 5.13792 142.87 4.53992V4.35792H141.44C140.608 4.35792 140.01 4.38392 139.178 4.48792V2.90192C139.854 3.00592 140.53 3.05792 141.518 3.05792H142.87V2.71992C142.87 2.01792 142.844 1.70592 142.74 1.31592H144.404C144.3 1.70592 144.3 1.96592 144.3 2.74592V3.05792H148.746V2.74592C148.746 2.01792 148.72 1.73192 148.642 1.31592H150.306C150.202 1.73192 150.176 1.99192 150.176 2.71992V3.05792H151.84C152.88 3.05792 153.53 3.03192 154.232 2.90192V4.48792C153.53 4.40992 152.75 4.35792 151.84 4.35792H150.176V4.61792C150.176 5.29392 150.202 5.52792 150.28 5.91792H148.798C148.538 6.35992 148.512 6.43792 148.044 7.16592H151.944C152.958 7.16592 153.452 7.13992 153.972 7.06192V8.46592C153.53 8.38792 153.01 8.36192 151.996 8.36192H147.966V9.79192ZM146.614 13.4319H142.012V14.9399H146.614V13.4319ZM146.614 12.3139V10.9099H142.012V12.3139H146.614ZM146.614 9.79192V8.36192H142.012V9.79192H146.614ZM144.378 5.83992H143.026C142.922 6.04792 142.48 6.85392 142.298 7.16592H146.588C147.004 6.51592 147.264 5.99592 147.472 5.34592L148.694 5.73592C148.72 5.42392 148.746 5.18992 148.746 4.61792V4.35792H144.3V4.53992C144.3 5.21592 144.3 5.47592 144.378 5.83992ZM151.32 17.4359L152.334 18.3459C150.176 20.4519 149.786 20.7639 148.018 21.8299C150.098 22.6359 151.97 22.9999 154.804 23.1819C154.518 23.7019 154.31 24.1699 154.128 24.7939C150.93 24.3259 148.772 23.7019 146.588 22.6099C144.56 23.6239 142.272 24.2999 138.996 24.8979C138.788 24.3519 138.554 23.9619 138.19 23.4419C141.024 23.1299 143.13 22.6359 145.158 21.8299C143.728 20.9199 143.026 20.2959 141.752 18.8139C140.868 18.8139 140.218 18.8659 139.62 18.9439V17.4359C140.192 17.5399 140.842 17.5659 141.726 17.5659H149.37C150.306 17.5659 150.774 17.5399 151.32 17.4359ZM149.916 18.8139H143.442C144.43 19.8279 145.236 20.4519 146.588 21.1539C148.018 20.3739 148.72 19.8799 149.916 18.8139ZM131.768 3.65592V2.01792C132.34 2.12192 132.782 2.14792 133.64 2.14792H136.396C137.254 2.14792 137.67 2.12192 138.268 2.01792V3.65592C137.618 3.57792 137.176 3.55192 136.396 3.55192H133.64C132.86 3.55192 132.34 3.57792 131.768 3.65592ZM130.832 7.32192V5.63192C131.43 5.73592 131.924 5.76192 132.912 5.76192H136.734C137.8 5.76192 138.268 5.73592 138.814 5.63192V7.32192C138.216 7.24392 137.878 7.21792 136.916 7.21792H132.912C132.002 7.21792 131.456 7.24392 130.832 7.32192ZM131.716 10.8839V9.27192C132.236 9.34992 132.6 9.37592 133.484 9.37592H136.24C137.124 9.37592 137.488 9.34992 137.982 9.27192V10.8839C137.488 10.8059 137.072 10.7799 136.24 10.7799H133.484C132.678 10.7799 132.288 10.8059 131.716 10.8839ZM131.716 14.4719V12.8599C132.236 12.9379 132.6 12.9639 133.484 12.9639H136.266C137.15 12.9639 137.462 12.9379 138.008 12.8599V14.4719C137.358 14.3939 137.098 14.3679 136.266 14.3679H133.484C132.652 14.3679 132.262 14.3939 131.716 14.4719ZM133.276 24.5859H131.664C131.742 23.8319 131.794 22.9219 131.794 22.0899V18.4759C131.794 17.6439 131.768 17.0199 131.69 16.3699C132.132 16.4479 132.522 16.4739 133.354 16.4739H136.63C137.488 16.4739 137.852 16.4479 138.19 16.3959C138.138 16.8379 138.112 17.2279 138.112 18.4239V21.4139C138.112 22.1939 138.112 22.5319 138.164 23.1299C137.332 23.0779 137.046 23.0779 136.63 23.0779H133.276V24.5859ZM133.25 17.7739V21.7259H136.708V17.7739H133.25Z" fill="#333333"/>
<path d="M118.662 13.2239V10.4679H115.776C114.476 10.4679 113.852 10.4939 113.02 10.5719C113.072 9.86991 113.124 9.19391 113.124 8.23191V4.85191C113.124 3.86391 113.098 3.29191 113.02 2.53791C113.748 2.64191 114.476 2.66791 115.88 2.66791H123.55C124.98 2.66791 125.682 2.64191 126.41 2.53791C126.306 3.34391 126.306 3.83791 126.306 4.90391V8.25791C126.306 9.32391 126.332 9.89591 126.41 10.5719C125.838 10.5199 124.668 10.4679 123.68 10.4679H120.222V13.2239H125.526C126.488 13.2239 127.346 13.1719 128.074 13.0679V14.8359C127.19 14.7319 126.306 14.6799 125.552 14.6799H120.664C122.146 16.6039 122.796 17.2799 124.174 18.3979C125.682 19.6459 127.06 20.5039 128.88 21.3099C128.386 21.8299 128.1 22.2459 127.71 22.9219C126.124 21.9599 124.902 21.1019 123.576 19.9319C122.12 18.6839 121.34 17.7739 120.092 15.9279C120.17 16.7339 120.222 17.5399 120.222 18.7099V22.2719C120.222 23.2339 120.248 24.0399 120.378 24.8199H118.506C118.61 24.0139 118.662 23.2079 118.662 22.2719V18.7359C118.662 17.5139 118.688 16.6559 118.766 15.9279C117.544 17.8779 116.582 18.9699 114.814 20.4519C113.54 21.5439 112.656 22.1679 111.226 22.9739C110.888 22.4019 110.524 21.9599 110.03 21.5179C112.11 20.5039 113.488 19.5679 115.126 18.1119C116.374 16.9939 116.946 16.3439 118.116 14.6799H113.618C112.63 14.6799 111.772 14.7319 111.044 14.8359V13.0679C111.798 13.1719 112.578 13.2239 113.618 13.2239H118.662ZM114.736 4.14991V8.98591H124.668V4.14991H114.736ZM107.82 21.6999V13.3799C107.82 12.3659 107.846 11.4039 107.898 10.2599C107.144 11.6379 106.52 12.4699 105.168 13.9259C104.622 13.0419 104.622 13.0419 104.102 12.4439C106.39 10.1819 107.976 7.76391 109.146 4.69591C109.666 3.36991 110.056 2.01791 110.186 1.10791L111.954 1.67991C111.798 2.04391 111.694 2.35591 111.486 3.08391C111.07 4.38391 110.368 6.07391 109.406 7.94591V21.7779C109.406 22.9739 109.432 23.8839 109.536 24.8199H107.664C107.768 23.8319 107.82 23.0259 107.82 21.6999Z" fill="#333333"/>
<path d="M93.5197 12.0022H92.7137V22.2462C92.7137 23.2342 92.7657 23.9102 92.8957 24.8462H90.9977C91.1277 23.8842 91.1797 23.2862 91.1797 22.2462V4.77416C91.1797 3.86416 91.1277 3.05816 91.0497 2.33016C91.7517 2.43416 92.4797 2.46016 93.4937 2.46016H99.4997C100.566 2.46016 101.242 2.43416 101.684 2.35616C101.632 2.79816 101.632 2.79816 101.502 4.20216C101.32 6.10016 101.06 7.34816 100.722 7.89416C100.332 8.46616 99.7857 8.64816 98.4597 8.64816C97.6797 8.64816 96.9517 8.59616 95.9117 8.46616C95.8337 7.81616 95.7557 7.50416 95.5737 6.90616C96.7177 7.14016 97.8097 7.27016 98.5637 7.27016C99.5517 7.27016 99.6817 6.93216 99.9157 3.94216H92.7137V10.5722H98.3557C99.4477 10.5722 100.02 10.5462 100.436 10.4682L101.372 11.4302C101.242 11.7422 101.216 11.8982 101.06 12.4962C100.488 14.9662 99.5517 17.4362 98.4337 19.3862C99.8117 20.9982 100.826 21.8822 102.802 23.1562C102.308 23.6502 102.048 24.0402 101.736 24.6122C100.02 23.3642 98.9797 22.4022 97.5757 20.7642C96.5357 22.2722 95.5997 23.3122 94.1437 24.5862C93.7797 24.0662 93.4937 23.7542 92.9737 23.2862C94.5337 22.0642 95.6257 20.9202 96.5877 19.4902C95.2357 17.5922 94.4037 15.5382 93.5197 12.0022ZM99.5517 12.0022H94.9757C95.8597 15.3042 96.2497 16.3182 97.4457 18.0862C98.3817 16.2922 98.9797 14.6282 99.5517 12.0022ZM85.7197 8.36216H88.4237C89.4637 8.36216 89.8537 8.33616 90.4777 8.23216V9.92216C89.8537 9.84416 89.4117 9.81816 88.4237 9.81816H81.0917C80.1297 9.81816 79.6617 9.84416 79.0117 9.92216V8.23216C79.6357 8.33616 80.1037 8.36216 81.0917 8.36216H84.1857V5.71016H81.7417C80.8837 5.71016 80.3897 5.73616 79.7917 5.81416V4.17616C80.3377 4.25416 80.7797 4.28016 81.7417 4.28016H84.1857V3.50016C84.1857 2.66816 84.1337 1.91416 84.0297 1.26416H85.8757C85.7717 2.07016 85.7197 2.64216 85.7197 3.50016V4.28016H87.7997C88.7357 4.28016 89.1777 4.25416 89.7237 4.17616V5.81416C89.0997 5.73616 88.6577 5.71016 87.7997 5.71016H85.7197V8.36216ZM87.3317 14.1862H88.4237C89.4897 14.1862 89.9317 14.1602 90.4777 14.0562V15.7462C89.9057 15.6682 89.3337 15.6422 88.4237 15.6422H85.7197V18.2682H88.1117C89.0217 18.2682 89.4637 18.2422 90.0357 18.1642V19.8282C89.3857 19.7502 88.9697 19.7242 88.1117 19.7242H85.7197V22.3762C85.7197 23.2862 85.7717 23.9622 85.8757 24.8462H84.0037C84.1337 23.9362 84.1857 23.2862 84.1857 22.3762V19.7242H81.5337C80.6497 19.7242 80.2077 19.7502 79.5837 19.8282V18.1642C80.1557 18.2422 80.5977 18.2682 81.5337 18.2682H84.1857V15.6422H81.0917C80.1817 15.6422 79.6617 15.6682 79.0117 15.7462V14.0562C79.6357 14.1602 80.0517 14.1862 81.0917 14.1862H85.8757C86.6817 12.4702 86.9417 11.6902 87.2797 10.1042L88.7097 10.5202C88.2677 12.0282 87.9037 12.9902 87.3317 14.1862ZM83.4577 13.4322L82.1057 13.9002C81.8717 12.6782 81.5597 11.6122 81.1177 10.4942L82.4177 10.0782C82.9377 11.4302 83.1197 12.0022 83.4577 13.4322Z" fill="#333333"/>
<path d="M66.7154 4.59228H62.8154C61.6454 4.59228 61.0474 4.61828 60.3714 4.72228V3.11028C61.0474 3.24028 61.6194 3.26628 62.8414 3.26628H66.7154C66.7154 2.25228 66.6894 1.91428 66.5594 1.23828H68.4054C68.2754 1.91428 68.2494 2.22628 68.2494 3.26628H73.0594C74.3594 3.26628 74.9054 3.24028 75.6074 3.11028V4.72228C74.9054 4.61828 74.2554 4.59228 73.0854 4.59228H68.2494V6.36028H72.3054C73.4234 6.36028 74.0214 6.33428 74.6974 6.23028V7.76428C73.9954 7.66028 73.3454 7.63428 72.2794 7.63428H68.2494V9.55828H73.5014C74.6714 9.55828 75.4254 9.50628 76.0754 9.40228V11.0663C75.2434 10.9623 74.4374 10.9103 73.5014 10.9103H62.4514C61.2294 10.9103 60.4754 10.9623 59.7994 11.0663V9.40228C60.4494 9.50628 61.1774 9.55828 62.4514 9.55828H66.7154V7.63428H63.5954C62.5554 7.63428 61.9834 7.66028 61.2294 7.76428V6.23028C61.9054 6.33428 62.5294 6.36028 63.6214 6.36028H66.7154V4.59228ZM62.9974 20.4003V22.0123C62.9974 23.3643 63.0494 24.1703 63.1534 24.8203H61.2814C61.3854 24.1443 61.4114 23.4163 61.4114 22.0123V14.6803C61.4114 13.4843 61.4114 13.1203 61.3334 12.4183C61.9834 12.4963 62.7634 12.5223 63.7514 12.5223H71.7334C72.9554 12.5223 73.6054 12.4963 74.1254 12.3923C74.0474 13.0163 74.0214 13.8223 74.0214 15.1743V22.5583C74.0214 24.1703 73.5274 24.5863 71.5774 24.5863C70.8754 24.5863 70.0434 24.5343 68.9254 24.4563C68.8474 23.7803 68.7434 23.3903 68.5094 22.8183C69.7054 23.0263 70.6934 23.1303 71.4214 23.1303C72.2794 23.1303 72.4354 23.0263 72.4354 22.4283V20.4003H62.9974ZM62.9974 19.0743H72.4354V17.1243H62.9974V19.0743ZM62.9974 15.8243H72.4354V13.8483H62.9974V15.8243ZM53.8454 13.7703L52.4414 13.1203C53.2214 10.6763 53.3774 9.76628 53.5334 6.23028L54.9634 6.62028C54.7814 9.94828 54.5994 11.1183 53.8454 13.7703ZM57.8234 24.8723H55.8214C55.9514 24.0403 56.0034 22.9483 56.0034 21.8823V3.86428C56.0034 2.87628 55.9514 2.12228 55.8214 1.23828H57.8234C57.6934 2.07028 57.6414 2.85028 57.6414 3.86428V21.9083C57.6414 23.0263 57.6934 23.9883 57.8234 24.8723ZM60.4754 8.72628L59.2014 9.32428C58.8894 7.89428 58.5774 7.01028 58.0054 5.78828L59.1754 5.29428C59.6694 6.36028 60.0074 7.27028 60.4754 8.72628Z" fill="#333333"/>
<path d="M37.4648 1.62793H39.5448C39.4668 2.06993 39.4148 3.10993 39.4148 3.94193C39.4148 5.47593 39.6748 8.12793 39.9868 9.58393C40.4288 11.6639 41.8328 14.7319 43.3408 16.8639C44.3808 18.3199 45.7848 19.8019 47.1888 20.9719C48.0208 21.6739 48.6968 22.1159 50.2048 22.9999C49.5808 23.5719 49.2948 23.8839 48.8528 24.6379C45.6808 22.4799 43.8088 20.6599 41.9628 17.9819C40.3508 15.6159 39.3628 13.1979 38.5828 9.71393C38.1148 12.1839 37.6728 13.5879 36.7888 15.5119C35.8788 17.5139 34.7348 19.1779 33.0708 20.8419C31.6148 22.3499 30.5488 23.2079 28.2868 24.6379C27.8448 23.9359 27.5328 23.5979 26.8828 23.1039C29.5088 21.6479 30.6788 20.7899 32.1868 19.1779C35.8008 15.3039 37.5688 10.3119 37.5688 3.91593C37.5688 2.82393 37.5428 2.30393 37.4648 1.62793Z" fill="#333333"/>
<path d="M5.018 7.40003V21.856C5.018 23.104 5.044 23.91 5.148 24.898H3.25C3.354 23.962 3.406 23.13 3.406 21.778V13.094C3.406 11.82 3.406 11.404 3.484 9.94803C2.704 11.534 2.132 12.392 1.04 13.64C0.702 13.016 0.416 12.626 0 12.21C1.872 10.208 3.276 7.86803 4.394 4.85203C5.07 3.05803 5.278 2.33003 5.46 0.978027L7.228 1.55003C7.046 2.01803 6.968 2.22603 6.734 2.95403C6.188 4.61803 5.824 5.58003 5.018 7.40003ZM16.068 12.834H16.9C17.836 12.834 18.486 12.808 19.266 12.73C19.188 13.224 19.188 13.614 19.188 14.784V17.644C19.188 18.866 19.214 19.282 19.292 19.75C18.486 19.672 17.758 19.646 16.9 19.646H13.78C12.74 19.646 12.168 19.672 11.414 19.75C11.492 19.204 11.518 18.892 11.518 17.722V14.732C11.518 13.588 11.492 13.276 11.414 12.73C12.09 12.808 12.74 12.834 13.78 12.834H14.586V9.61003H12.298C11.466 9.61003 10.842 9.63603 10.27 9.74003V8.10203C10.894 8.20603 11.414 8.23203 12.298 8.23203H14.586V7.42603C14.586 6.25603 14.534 5.65803 14.43 5.06003H16.198C16.094 5.68403 16.068 6.28203 16.068 7.42603V8.23203H18.512C19.474 8.23203 20.02 8.20603 20.67 8.10203V9.74003C20.02 9.63603 19.5 9.61003 18.538 9.61003H16.068V12.834ZM12.948 14.186V18.268H17.758V14.186H12.948ZM7.722 21.57V5.39803C7.722 4.02003 7.696 3.39603 7.618 2.64203C8.346 2.69403 8.996 2.72003 9.854 2.72003H20.774C21.944 2.72003 22.594 2.69403 23.296 2.61603C23.218 3.31803 23.192 3.89003 23.192 5.47603V21.492C23.192 23.104 23.218 23.806 23.322 24.612H21.606V23.338H9.282V24.612H7.566C7.67 23.806 7.722 23.026 7.722 21.57ZM9.282 4.20203V21.856H21.606V4.20203H9.282Z" fill="#333333"/>
</svg>
