<svg width="336" height="24" viewBox="0 0 336 24" fill="none" xmlns="http://www.w3.org/2000/svg">
<path d="M317.037 8.15498H316.127C315.503 8.15498 314.983 8.18098 314.411 8.25898V6.98498C313.735 7.60898 313.527 7.79098 312.825 8.31098C312.461 7.66098 312.331 7.47898 311.785 6.95898C314.437 5.13898 316.049 3.24098 317.141 0.69298H319.091C319.975 2.64298 321.145 3.94298 323.537 5.63298C323.069 6.15298 322.887 6.38698 322.575 6.98498C320.365 5.21698 319.351 4.09898 318.155 2.12298C317.089 4.07298 316.127 5.32098 314.671 6.72498C315.191 6.77698 315.581 6.80298 316.153 6.80298H319.845C320.573 6.80298 321.041 6.77698 321.561 6.69898V8.25898C321.041 8.18098 320.573 8.15498 319.819 8.15498H318.597V10.911H320.417C321.431 10.911 322.055 10.885 322.783 10.781V12.445C322.081 12.341 321.405 12.315 320.417 12.315H318.597V19.829C320.157 19.465 320.963 19.231 323.017 18.581V20.115C320.079 21.025 317.947 21.571 313.735 22.455C312.981 22.611 312.903 22.637 312.513 22.767L312.097 20.895C313.111 20.895 314.489 20.687 317.037 20.167V12.315H314.697C313.657 12.315 312.929 12.367 312.253 12.445V10.781C312.929 10.885 313.631 10.911 314.723 10.911H317.037V8.15498ZM327.827 8.85698V3.05898C327.827 2.04498 327.775 1.23898 327.645 0.35498H329.673C329.543 1.21298 329.491 2.01898 329.491 3.05898V8.85698H332.169C333.443 8.85698 334.301 8.80498 335.133 8.70098V10.599C334.249 10.495 333.339 10.443 332.195 10.443H329.491V20.817C329.491 21.909 329.543 22.715 329.673 23.573H327.645C327.775 22.689 327.827 21.883 327.827 20.817V10.443H325.487C324.317 10.443 323.459 10.495 322.575 10.599V8.70098C323.355 8.80498 324.239 8.85698 325.513 8.85698H327.827ZM315.633 18.685L314.255 19.205C313.839 17.021 313.501 15.877 312.799 14.083L314.151 13.615C314.879 15.617 315.191 16.709 315.633 18.685ZM320.937 18.373L319.663 17.905C320.339 16.371 320.677 15.201 320.937 13.407L322.341 13.927C321.899 15.851 321.587 16.813 320.937 18.373Z" fill="#333333"/>
<path d="M296.212 4.54073V2.59073C296.212 1.68073 296.134 0.978733 296.03 0.302734H298.11C298.006 0.848734 297.954 1.57673 297.954 2.59073V4.54073H305.91C307.236 4.54073 308.094 4.48873 308.9 4.35874V6.30873C308.172 6.17874 307.47 6.15273 305.962 6.15273H296.108C296.004 7.81673 295.952 8.46674 295.744 9.87074H302.842C304.22 9.87074 304.87 9.84473 305.52 9.74073C305.468 10.2607 305.442 10.5467 305.39 11.5607C305.286 14.6547 304.844 18.6587 304.402 20.4267C303.856 22.6627 303.232 23.2087 301.152 23.2087C300.32 23.2087 298.942 23.1307 297.538 22.9747C297.46 22.1427 297.382 21.8047 297.122 21.1287C298.63 21.4147 299.904 21.5447 301.048 21.5447C302.166 21.5447 302.426 21.2327 302.816 19.3087C303.258 17.1247 303.466 14.8887 303.622 11.4307H295.458C294.886 14.3947 294.184 16.2147 292.988 18.0867C292.156 19.3607 291.064 20.5827 289.764 21.6747C288.932 22.3767 288.36 22.7667 286.93 23.5727C286.566 22.9487 286.306 22.6887 285.656 22.1167C288.074 20.9207 289.504 19.7767 290.934 17.9047C293.066 15.1487 294.08 11.6127 294.288 6.15273H288.828C287.502 6.15273 286.618 6.20473 285.916 6.30873V4.35874C286.748 4.48873 287.528 4.54073 288.802 4.54073H296.212Z" fill="#333333"/>
<path d="M269.588 6.3611H262.958C261.944 6.3611 261.06 6.4131 260.098 6.5171V4.6191C261.06 4.7491 261.814 4.8011 262.958 4.8011H270.238V2.5911C270.238 1.7331 270.186 1.1091 270.056 0.225098H272.11C271.98 1.0051 271.928 1.7591 271.928 2.5651V4.8011H279.598C280.898 4.8011 281.756 4.7491 282.51 4.6191V6.5171C281.418 6.4131 280.638 6.3611 279.598 6.3611H272.578C275.49 11.6131 278.974 15.2531 283.29 17.5931C282.744 18.1911 282.458 18.5811 282.094 19.2831C279.988 17.8791 278.376 16.5271 276.686 14.7331C274.528 12.4451 273.072 10.2351 271.824 7.4271C271.902 8.9871 271.928 9.9491 271.928 10.8071V16.7091H274.762C276.036 16.7091 276.608 16.6831 277.284 16.5791V18.3991C276.504 18.2691 275.88 18.2431 274.71 18.2431H271.928V20.7131C271.928 21.9351 271.98 22.8711 272.11 23.7031H270.056C270.186 22.7931 270.238 21.8831 270.238 20.6871V18.2431H267.742C266.52 18.2431 265.896 18.2691 265.116 18.3991V16.5791C265.792 16.6831 266.364 16.7091 267.69 16.7091H270.238V10.8071C270.238 9.8451 270.264 8.8571 270.342 7.4531C269.146 10.2871 267.768 12.4191 265.428 14.9671C263.79 16.7611 262.386 18.0091 260.488 19.3351C260.098 18.6331 259.89 18.3731 259.266 17.8011C261.502 16.4491 263.374 14.8631 265.35 12.5231C267.3 10.2871 268.418 8.6231 269.588 6.3611Z" fill="#333333"/>
<path d="M239.065 2.72073V2.56474C239.065 1.49874 239.013 0.848734 238.909 0.302734H240.781C240.703 0.926734 240.651 1.68073 240.651 2.56474V2.72073H249.803V2.56474C249.803 1.52473 249.751 0.848734 249.647 0.302734H251.519C251.415 0.926734 251.389 1.65473 251.389 2.56474V2.72073H253.781C254.925 2.72073 255.705 2.66873 256.407 2.56474V4.25473C255.575 4.17673 254.769 4.12473 253.781 4.12473H251.389V12.4707H254.249C255.315 12.4707 256.173 12.4187 256.901 12.3147V14.0047C256.147 13.9007 255.341 13.8487 254.301 13.8487H250.375C252.169 15.5647 254.275 16.6047 257.629 17.4367C257.187 18.0347 257.005 18.3727 256.719 19.0227C252.819 17.7227 250.635 16.3447 248.399 13.8487H241.977C240.001 16.3187 237.739 17.8007 233.969 19.1267C233.683 18.3727 233.553 18.1907 233.059 17.5667C236.153 16.8387 238.597 15.5387 240.053 13.8487H236.257C235.191 13.8487 234.385 13.9007 233.657 14.0047V12.3147C234.359 12.4187 235.165 12.4707 236.231 12.4707H239.065V4.12473H237.115C236.127 4.12473 235.295 4.17673 234.489 4.25473V2.56474C235.165 2.66873 235.971 2.72073 237.115 2.72073H239.065ZM240.651 12.4707H249.803V10.5467H240.651V12.4707ZM240.651 9.19473H249.803V7.34873H240.651V9.19473ZM240.651 5.99673H249.803V4.12473H240.651V5.99673ZM244.291 17.0727V16.8387C244.291 15.8767 244.239 15.3567 244.161 14.7587H245.955C245.851 15.3567 245.825 15.8507 245.825 16.8387V17.0727H249.543C250.635 17.0727 251.129 17.0467 251.805 16.9687V18.5807C251.155 18.5027 250.583 18.4767 249.543 18.4767H245.825V21.3627H252.949C254.275 21.3627 254.977 21.3367 255.679 21.2327V22.9487C254.873 22.8447 254.015 22.7927 252.897 22.7927H237.947C236.803 22.7927 235.919 22.8447 235.113 22.9487V21.2327C235.711 21.3107 236.517 21.3627 237.895 21.3627H244.291V18.4767H241.093C240.079 18.4767 239.533 18.5027 238.831 18.5807V16.9687C239.455 17.0467 240.053 17.0727 241.093 17.0727H244.291Z" fill="#333333"/>
<path d="M208.566 12.8869V10.7549C209.32 10.8849 210.022 10.9109 211.79 10.9109H226.896C228.82 10.9109 229.236 10.8849 230.042 10.7809V12.8869C229.21 12.8089 228.612 12.7829 226.87 12.7829H211.79C209.892 12.7829 209.346 12.8089 208.566 12.8869Z" fill="#333333"/>
<path d="M199.205 5.78906L200.817 6.88106C200.531 7.08906 200.479 7.16706 200.193 7.47906C198.789 8.93506 197.489 10.1051 194.967 12.0551V20.8431C194.967 21.8571 194.993 22.4811 195.097 23.1311H193.069C193.147 22.5071 193.173 22.1691 193.173 20.8691V13.1471C190.625 14.7591 188.415 15.7471 185.191 16.7351C184.931 16.0591 184.775 15.7991 184.281 15.1751C186.881 14.4731 188.415 13.9011 190.313 12.8871C193.173 11.4311 195.539 9.68906 197.749 7.47906C198.529 6.72506 198.815 6.38706 199.205 5.78906Z" fill="#333333"/>
<path d="M175.709 10.5208H169.469C169.443 11.3008 169.339 12.2628 169.183 13.2768C168.741 16.3448 167.649 18.4768 165.673 20.1408C164.529 21.1288 163.229 21.8568 161.097 22.7148C160.733 21.9348 160.525 21.6488 159.875 21.0248C163.281 19.9328 165.387 18.2688 166.453 15.9028C167.051 14.6028 167.441 12.5488 167.493 10.5208H160.447C159.095 10.5208 158.341 10.5468 157.457 10.6508V8.72681C158.367 8.85681 158.991 8.88281 160.473 8.88281H175.683C177.165 8.88281 177.789 8.85681 178.699 8.72681V10.6508C177.815 10.5468 177.061 10.5208 175.709 10.5208ZM160.083 4.25481V2.27881C160.941 2.43481 161.461 2.46081 163.073 2.46081H173.187C174.799 2.46081 175.319 2.43481 176.177 2.27881V4.25481C175.397 4.15081 174.721 4.12481 173.213 4.12481H163.047C161.539 4.12481 160.863 4.15081 160.083 4.25481Z" fill="#333333"/>
<path d="M135.199 1.73291H137.357C137.279 2.35691 137.253 2.69491 137.253 3.89091V10.8849C137.253 12.1329 137.279 12.4189 137.357 13.0429H135.199C135.277 12.4449 135.303 11.8989 135.303 10.8589V3.91691C135.303 2.79891 135.277 2.35691 135.199 1.73291ZM146.691 1.73291H148.875C148.771 2.33091 148.745 2.74691 148.745 3.99491V7.06291C148.745 11.1969 148.563 13.4849 148.095 14.9929C147.341 17.4369 145.703 19.3349 143.155 20.7649C141.881 21.4929 140.633 21.9869 138.423 22.6369C138.137 21.8829 137.981 21.6229 137.331 20.8429C139.671 20.3229 140.919 19.8809 142.271 19.0749C144.689 17.6709 145.937 16.0069 146.431 13.5889C146.717 12.1069 146.795 10.9109 146.795 6.95891V4.02091C146.795 2.66891 146.769 2.30491 146.691 1.73291Z" fill="#333333"/>
<path d="M119.261 20.2707H122.355C123.577 20.2707 124.019 20.2447 124.695 20.1147V22.0127C124.071 21.9087 123.395 21.8827 122.329 21.8827H109.589C108.471 21.8827 107.847 21.9087 107.223 22.0127V20.1147C107.925 20.2447 108.341 20.2707 109.563 20.2707H117.467C118.065 17.4887 118.663 13.6667 118.897 11.3267H111.955C110.473 11.3267 110.343 11.3267 109.667 11.4307V9.55872C110.291 9.66272 110.967 9.71472 111.981 9.71472H118.949C119.573 9.71472 119.807 9.68872 120.171 9.53271L121.029 10.2867C120.821 10.7287 120.795 10.8067 120.613 12.1067C120.015 16.2407 119.807 17.5407 119.261 20.2707Z" fill="#333333"/>
<path d="M88.1404 6.23112L87.6204 3.39712C87.4384 2.30512 87.3084 1.81112 87.0484 1.18712L89.1024 0.849121C89.1284 1.47312 89.1804 1.96712 89.3884 3.05912L89.9084 5.91912L95.7844 5.00912C96.9284 4.82712 97.4744 4.69712 98.0724 4.48912L98.4364 6.36112C97.7344 6.43912 97.7344 6.43912 96.1224 6.69912L90.2204 7.60912L91.2084 12.8611L97.6564 11.8211C98.8264 11.6131 99.5804 11.4571 100.23 11.2231L100.594 13.1471C100.074 13.1731 99.9184 13.1991 99.4504 13.2771C99.3464 13.2771 99.0864 13.3291 98.6444 13.4071C98.3584 13.4591 98.2284 13.4851 98.0464 13.5111L91.5204 14.5511L92.5864 20.2971C92.8204 21.6491 92.8984 21.9611 93.1584 22.7671L91.0784 23.1571C91.0524 22.4551 90.9484 21.8051 90.7664 20.6611L89.7004 14.8371L82.7324 15.9551C81.2504 16.1891 81.0944 16.2151 80.2364 16.4751L79.8984 14.4991C80.7564 14.4991 81.4064 14.4471 82.4724 14.2651L89.3884 13.1471L88.4524 7.89512L83.0964 8.72712C82.0304 8.90912 81.1724 9.09112 80.4964 9.29912L80.1324 7.32312C80.9904 7.29712 81.6664 7.24512 82.8364 7.06312L88.1404 6.23112Z" fill="#333333"/>
<path d="M59.0725 8.02503V3.99503C59.0725 2.64303 59.0725 2.46103 58.9685 1.60303H61.0745C60.9705 2.33103 60.9445 2.85103 60.9445 3.99503V7.79103L71.5005 6.38703C72.4885 6.28303 72.5405 6.25703 72.9825 6.02303L74.2565 7.08903C74.0745 7.37503 74.0485 7.42703 73.8405 7.81703C73.1385 9.29903 72.5405 10.261 71.8645 11.145C70.7725 12.549 69.3425 13.875 67.4445 15.201C66.8465 14.525 66.6125 14.343 65.8845 13.953C68.7185 12.263 70.6425 10.287 71.7865 7.92103C71.5525 7.97303 71.4485 7.99903 71.1885 8.05103C71.0845 8.07703 71.0325 8.07703 70.8765 8.10303C67.2365 8.59703 63.9085 9.06503 60.9445 9.48103V15.617C60.9445 18.035 61.0485 18.581 61.5945 19.049C62.1405 19.517 63.2325 19.699 65.3645 19.699C68.0945 19.699 70.9285 19.361 72.9305 18.789L73.0605 20.895C72.3585 20.921 72.2025 20.947 71.5005 21.025C68.8745 21.363 67.1065 21.493 65.3385 21.493C62.3745 21.493 60.8665 21.129 60.0345 20.271C59.2545 19.439 59.0725 18.633 59.0725 15.981V9.71503L55.9265 10.157C54.2105 10.391 54.2105 10.391 53.3785 10.599L53.1445 8.64903C53.3265 8.64903 53.4305 8.64903 53.5345 8.64903C53.9765 8.64903 54.8865 8.57103 55.7705 8.46703L59.0725 8.02503Z" fill="#333333"/>
<path d="M41.0783 10.885H40.2723V21.129C40.2723 22.117 40.3243 22.793 40.4543 23.729H38.5563C38.6863 22.767 38.7383 22.169 38.7383 21.129V3.65697C38.7383 2.74697 38.6863 1.94097 38.6083 1.21297C39.3103 1.31697 40.0383 1.34297 41.0523 1.34297H47.0583C48.1243 1.34297 48.8003 1.31697 49.2423 1.23897C49.1903 1.68097 49.1903 1.68097 49.0603 3.08497C48.8783 4.98297 48.6183 6.23097 48.2803 6.77697C47.8903 7.34897 47.3443 7.53097 46.0183 7.53097C45.2383 7.53097 44.5103 7.47897 43.4703 7.34897C43.3923 6.69897 43.3143 6.38697 43.1323 5.78897C44.2763 6.02297 45.3683 6.15297 46.1223 6.15297C47.1103 6.15297 47.2403 5.81497 47.4743 2.82497H40.2723V9.45497H45.9143C47.0063 9.45497 47.5783 9.42897 47.9943 9.35097L48.9303 10.313C48.8003 10.625 48.7743 10.781 48.6183 11.379C48.0463 13.849 47.1103 16.319 45.9923 18.269C47.3703 19.881 48.3843 20.765 50.3603 22.039C49.8663 22.533 49.6063 22.923 49.2943 23.495C47.5783 22.247 46.5383 21.285 45.1343 19.647C44.0943 21.155 43.1583 22.195 41.7023 23.469C41.3383 22.949 41.0523 22.637 40.5323 22.169C42.0923 20.947 43.1843 19.803 44.1463 18.373C42.7943 16.475 41.9623 14.421 41.0783 10.885ZM47.1103 10.885H42.5343C43.4183 14.187 43.8083 15.201 45.0043 16.969C45.9403 15.175 46.5383 13.511 47.1103 10.885ZM33.2783 7.24497H35.9823C37.0223 7.24497 37.4123 7.21897 38.0363 7.11497V8.80497C37.4123 8.72697 36.9703 8.70097 35.9823 8.70097H28.6503C27.6883 8.70097 27.2203 8.72697 26.5703 8.80497V7.11497C27.1943 7.21897 27.6623 7.24497 28.6503 7.24497H31.7443V4.59297H29.3003C28.4423 4.59297 27.9483 4.61897 27.3503 4.69697V3.05897C27.8963 3.13697 28.3383 3.16297 29.3003 3.16297H31.7443V2.38297C31.7443 1.55097 31.6923 0.796974 31.5883 0.146973H33.4343C33.3303 0.952973 33.2783 1.52497 33.2783 2.38297V3.16297H35.3583C36.2943 3.16297 36.7363 3.13697 37.2823 3.05897V4.69697C36.6583 4.61897 36.2163 4.59297 35.3583 4.59297H33.2783V7.24497ZM34.8903 13.069H35.9823C37.0483 13.069 37.4903 13.043 38.0363 12.939V14.629C37.4643 14.551 36.8923 14.525 35.9823 14.525H33.2783V17.151H35.6703C36.5803 17.151 37.0223 17.125 37.5943 17.047V18.711C36.9443 18.633 36.5283 18.607 35.6703 18.607H33.2783V21.259C33.2783 22.169 33.3303 22.845 33.4343 23.729H31.5623C31.6923 22.819 31.7443 22.169 31.7443 21.259V18.607H29.0923C28.2083 18.607 27.7663 18.633 27.1423 18.711V17.047C27.7143 17.125 28.1563 17.151 29.0923 17.151H31.7443V14.525H28.6503C27.7403 14.525 27.2203 14.551 26.5703 14.629V12.939C27.1943 13.043 27.6103 13.069 28.6503 13.069H33.4343C34.2403 11.353 34.5003 10.573 34.8383 8.98697L36.2683 9.40297C35.8263 10.911 35.4623 11.873 34.8903 13.069ZM31.0163 12.315L29.6643 12.783C29.4303 11.561 29.1183 10.495 28.6763 9.37698L29.9763 8.96097C30.4963 10.313 30.6783 10.885 31.0163 12.315Z" fill="#333333"/>
<path d="M14.274 3.47509H10.374C9.204 3.47509 8.606 3.50109 7.93 3.60509V1.99309C8.606 2.12309 9.178 2.14909 10.4 2.14909H14.274C14.274 1.13509 14.248 0.797094 14.118 0.121094H15.964C15.834 0.797094 15.808 1.10909 15.808 2.14909H20.618C21.918 2.14909 22.464 2.12309 23.166 1.99309V3.60509C22.464 3.50109 21.814 3.47509 20.644 3.47509H15.808V5.24309H19.864C20.982 5.24309 21.58 5.21709 22.256 5.11309V6.64709C21.554 6.54309 20.904 6.51709 19.838 6.51709H15.808V8.44109H21.06C22.23 8.44109 22.984 8.38909 23.634 8.28509V9.94909C22.802 9.84509 21.996 9.79309 21.06 9.79309H10.01C8.788 9.79309 8.034 9.84509 7.358 9.94909V8.28509C8.008 8.38909 8.736 8.44109 10.01 8.44109H14.274V6.51709H11.154C10.114 6.51709 9.542 6.54309 8.788 6.64709V5.11309C9.464 5.21709 10.088 5.24309 11.18 5.24309H14.274V3.47509ZM10.556 19.2831V20.8951C10.556 22.2471 10.608 23.0531 10.712 23.7031H8.84C8.944 23.0271 8.97 22.2991 8.97 20.8951V13.5631C8.97 12.3671 8.97 12.0031 8.892 11.3011C9.542 11.3791 10.322 11.4051 11.31 11.4051H19.292C20.514 11.4051 21.164 11.3791 21.684 11.2751C21.606 11.8991 21.58 12.7051 21.58 14.0571V21.4411C21.58 23.0531 21.086 23.4691 19.136 23.4691C18.434 23.4691 17.602 23.4171 16.484 23.3391C16.406 22.6631 16.302 22.2731 16.068 21.7011C17.264 21.9091 18.252 22.0131 18.98 22.0131C19.838 22.0131 19.994 21.9091 19.994 21.3111V19.2831H10.556ZM10.556 17.9571H19.994V16.0071H10.556V17.9571ZM10.556 14.7071H19.994V12.7311H10.556V14.7071ZM1.404 12.6531L0 12.0031C0.78 9.55909 0.936 8.64909 1.092 5.11309L2.522 5.50309C2.34 8.83109 2.158 10.0011 1.404 12.6531ZM5.382 23.7551H3.38C3.51 22.9231 3.562 21.8311 3.562 20.7651V2.74709C3.562 1.75909 3.51 1.00509 3.38 0.121094H5.382C5.252 0.953094 5.2 1.73309 5.2 2.74709V20.7911C5.2 21.9091 5.252 22.8711 5.382 23.7551ZM8.034 7.60909L6.76 8.2071C6.448 6.77709 6.136 5.89309 5.564 4.67109L6.734 4.17709C7.228 5.24309 7.566 6.15309 8.034 7.60909Z" fill="#333333"/>
</svg>
