<svg width="295" height="23" viewBox="0 0 295 23" fill="none" xmlns="http://www.w3.org/2000/svg">
<path d="M292.027 18.0118C292.027 17.5785 292.123 17.2578 292.313 17.0498C292.504 16.8418 292.773 16.7378 293.119 16.7378C293.483 16.7378 293.761 16.8418 293.951 17.0498C294.159 17.2578 294.263 17.5785 294.263 18.0118C294.263 18.4278 294.159 18.7485 293.951 18.9738C293.761 19.1818 293.483 19.2858 293.119 19.2858C292.773 19.2858 292.504 19.1818 292.313 18.9738C292.123 18.7485 292.027 18.4278 292.027 18.0118Z" fill="white"/>
<path d="M285.832 19.2602C284.549 19.2602 283.466 18.9829 282.582 18.4282C281.698 17.8562 281.022 17.0415 280.554 15.9842C280.086 14.9269 279.852 13.6529 279.852 12.1622C279.852 10.6022 280.112 9.28487 280.632 8.2102C281.169 7.13554 281.906 6.32087 282.842 5.7662C283.778 5.1942 284.87 4.9082 286.118 4.9082C286.742 4.9082 287.331 4.97754 287.886 5.1162C288.458 5.23754 288.952 5.4022 289.368 5.6102L288.952 6.8582C288.518 6.66754 288.042 6.5202 287.522 6.4162C287.019 6.29487 286.542 6.2342 286.092 6.2342C285.086 6.2342 284.228 6.47687 283.518 6.9622C282.824 7.4302 282.296 8.1062 281.932 8.9902C281.568 9.8742 281.386 10.9315 281.386 12.1622C281.386 13.3062 281.542 14.3202 281.854 15.2042C282.183 16.0709 282.668 16.7469 283.31 17.2322C283.968 17.7175 284.809 17.9602 285.832 17.9602C286.473 17.9602 287.08 17.8909 287.652 17.7522C288.224 17.6135 288.735 17.4315 289.186 17.2062V18.5582C288.77 18.7489 288.284 18.9135 287.73 19.0522C287.175 19.1909 286.542 19.2602 285.832 19.2602Z" fill="white"/>
<path d="M271.884 4.9082C273.357 4.9082 274.484 5.31554 275.264 6.1302C276.061 6.94487 276.46 8.22754 276.46 9.9782V19.0002H275.004V10.0562C275.004 8.72154 274.718 7.7422 274.146 7.1182C273.591 6.4942 272.776 6.1822 271.702 6.1822C270.28 6.1822 269.214 6.6242 268.504 7.5082C267.81 8.3922 267.464 9.70954 267.464 11.4602V19.0002H266.008V5.1682H267.204L267.412 7.5602H267.49C267.733 7.05754 268.053 6.60687 268.452 6.2082C268.868 5.80954 269.362 5.49754 269.934 5.2722C270.523 5.02954 271.173 4.9082 271.884 4.9082Z" fill="white"/>
<path d="M262.656 19H257.43V18.064L259.276 17.778V1.68404L257.43 1.37204V0.436035H262.656V1.37204L260.784 1.68404V17.778L262.656 18.064V19Z" fill="white"/>
<path d="M247.976 16.2959C247.854 16.9199 247.69 17.5872 247.482 18.2979C247.291 19.0086 247.074 19.7106 246.832 20.4039C246.606 21.0972 246.372 21.7472 246.13 22.3539H245.012C245.202 21.5912 245.376 20.8459 245.532 20.1179C245.705 19.3899 245.852 18.6792 245.974 17.9859C246.112 17.2926 246.216 16.6252 246.286 15.9839H247.846L247.976 16.2959Z" fill="white"/>
<path d="M238.715 10.368L243.655 0.436035H245.293L239.495 11.824V19H237.987V11.928L232.137 0.436035H233.801L238.715 10.368Z" fill="white"/>
<path d="M226.756 1.52778C225.699 1.52778 224.745 1.72711 223.896 2.12578C223.064 2.50711 222.353 3.06178 221.764 3.78978C221.192 4.50045 220.75 5.35845 220.438 6.36378C220.143 7.35178 219.996 8.45245 219.996 9.66578C219.996 11.3298 220.239 12.7858 220.724 14.0338C221.21 15.2644 221.937 16.2178 222.908 16.8938C223.879 17.5698 225.083 17.9078 226.522 17.9078C227.371 17.9078 228.152 17.8384 228.862 17.6998C229.573 17.5438 230.24 17.3618 230.864 17.1538V18.4798C230.275 18.7224 229.616 18.9131 228.888 19.0518C228.178 19.1904 227.337 19.2598 226.366 19.2598C224.615 19.2598 223.151 18.8611 221.972 18.0638C220.794 17.2664 219.901 16.1484 219.294 14.7098C218.705 13.2711 218.41 11.5898 218.41 9.66578C218.41 8.29645 218.592 7.03112 218.956 5.86978C219.337 4.70845 219.883 3.70311 220.594 2.85378C221.305 2.00445 222.18 1.34578 223.22 0.877782C224.26 0.409782 225.447 0.175781 226.782 0.175781C227.631 0.175781 228.437 0.262448 229.2 0.435781C229.98 0.609115 230.708 0.860448 231.384 1.18978L230.786 2.51578C230.162 2.18645 229.512 1.94378 228.836 1.78778C228.177 1.61445 227.484 1.52778 226.756 1.52778Z" fill="white"/>
<path d="M214.448 19H212.81L202.8 2.77604H202.722C202.722 3.1227 202.731 3.47804 202.748 3.84204C202.765 4.1887 202.774 4.5527 202.774 4.93404C202.791 5.31537 202.8 5.70537 202.8 6.10404C202.817 6.48537 202.826 6.87537 202.826 7.27403V19H201.422V0.436035H203.06L213.044 16.608H213.122C213.105 16.348 213.087 16.0447 213.07 15.698C213.07 15.334 213.061 14.9527 213.044 14.554C213.044 14.1554 213.035 13.7567 213.018 13.358C213.018 12.9594 213.018 12.578 213.018 12.214V0.436035H214.448V19Z" fill="white"/>
<path d="M197.508 19H187.914V0.436035H197.508V1.78803H189.422V8.60004H197.066V9.92604H189.422V17.648H197.508V19Z" fill="white"/>
<path d="M177.235 9.5619H183.579V18.1679C182.712 18.5319 181.802 18.8092 180.849 18.9999C179.913 19.1732 178.899 19.2599 177.807 19.2599C175.952 19.2599 174.392 18.8872 173.127 18.1419C171.879 17.3792 170.925 16.2872 170.267 14.8659C169.625 13.4446 169.305 11.7372 169.305 9.7439C169.305 7.85457 169.66 6.19924 170.371 4.7779C171.081 3.33923 172.104 2.21257 173.439 1.3979C174.773 0.565902 176.377 0.149902 178.249 0.149902C179.202 0.149902 180.103 0.245235 180.953 0.435902C181.802 0.609235 182.608 0.886568 183.371 1.2679L182.799 2.5939C182.071 2.2299 181.317 1.96124 180.537 1.7879C179.774 1.59723 178.985 1.5019 178.171 1.5019C176.663 1.5019 175.363 1.84857 174.271 2.5419C173.179 3.23524 172.338 4.19723 171.749 5.4279C171.159 6.65857 170.865 8.09724 170.865 9.7439C170.865 11.5292 171.133 13.0286 171.671 14.2419C172.225 15.4552 173.031 16.3739 174.089 16.9979C175.163 17.6219 176.489 17.9339 178.067 17.9339C178.639 17.9339 179.159 17.9079 179.627 17.8559C180.112 17.7866 180.554 17.6999 180.953 17.5959C181.369 17.4919 181.75 17.3792 182.097 17.2579V10.9139H177.235V9.5619Z" fill="white"/>
<path d="M166.716 18.9998L164.428 12.6038H157.2L154.912 18.9998H153.352L160.19 0.383789H161.594L168.276 18.9998H166.716ZM161.672 4.54379C161.62 4.37045 161.542 4.13646 161.438 3.84179C161.334 3.54712 161.23 3.23512 161.126 2.90579C161.039 2.57646 160.952 2.28179 160.866 2.02179C160.779 2.31645 160.684 2.61979 160.58 2.93179C160.493 3.24379 160.398 3.53846 160.294 3.81579C160.207 4.09312 160.129 4.34446 160.06 4.56979L157.694 11.2518H163.96L161.672 4.54379Z" fill="white"/>
<path d="M136.801 19V0.436035H138.309V17.648H146.447V19H136.801Z" fill="white"/>
<path d="M132.794 18.9998L130.506 12.6038H123.278L120.99 18.9998H119.43L126.268 0.383789H127.672L134.354 18.9998H132.794ZM127.75 4.54379C127.698 4.37045 127.62 4.13646 127.516 3.84179C127.412 3.54712 127.308 3.23512 127.204 2.90579C127.117 2.57646 127.03 2.28179 126.944 2.02179C126.857 2.31645 126.762 2.61979 126.658 2.93179C126.571 3.24379 126.476 3.53846 126.372 3.81579C126.285 4.09312 126.207 4.34446 126.138 4.56979L123.772 11.2518H130.038L127.75 4.54379Z" fill="white"/>
<path d="M118.206 19H112.98V18.064L114.826 17.778V1.68404L112.98 1.37204V0.436035H118.206V1.37204L116.334 1.68404V17.778L118.206 18.064V19Z" fill="white"/>
<path d="M106.381 1.52778C105.324 1.52778 104.37 1.72711 103.521 2.12578C102.689 2.50711 101.978 3.06178 101.389 3.78978C100.817 4.50045 100.375 5.35845 100.063 6.36378C99.7685 7.35178 99.6212 8.45245 99.6212 9.66578C99.6212 11.3298 99.8638 12.7858 100.349 14.0338C100.834 15.2644 101.562 16.2178 102.533 16.8938C103.504 17.5698 104.708 17.9078 106.147 17.9078C106.996 17.9078 107.776 17.8384 108.487 17.6998C109.198 17.5438 109.865 17.3618 110.489 17.1538V18.4798C109.9 18.7224 109.241 18.9131 108.513 19.0518C107.802 19.1904 106.962 19.2598 105.991 19.2598C104.24 19.2598 102.776 18.8611 101.597 18.0638C100.418 17.2664 99.5258 16.1484 98.9192 14.7098C98.3298 13.2711 98.0352 11.5898 98.0352 9.66578C98.0352 8.29645 98.2172 7.03112 98.5812 5.86978C98.9625 4.70845 99.5085 3.70311 100.219 2.85378C100.93 2.00445 101.805 1.34578 102.845 0.877782C103.885 0.409782 105.072 0.175781 106.407 0.175781C107.256 0.175781 108.062 0.262448 108.825 0.435781C109.605 0.609115 110.333 0.860448 111.009 1.18978L110.411 2.51578C109.787 2.18645 109.137 1.94378 108.461 1.78778C107.802 1.61445 107.109 1.52778 106.381 1.52778Z" fill="white"/>
<path d="M94.069 19H92.431L82.421 2.77604H82.343C82.343 3.1227 82.3516 3.47804 82.369 3.84204C82.3863 4.1887 82.395 4.5527 82.395 4.93404C82.4123 5.31537 82.421 5.70537 82.421 6.10404C82.4383 6.48537 82.447 6.87537 82.447 7.27403V19H81.043V0.436035H82.681L92.665 16.608H92.743C92.7256 16.348 92.7083 16.0447 92.691 15.698C92.691 15.334 92.6823 14.9527 92.665 14.554C92.665 14.1554 92.6563 13.7567 92.639 13.358C92.639 12.9594 92.639 12.578 92.639 12.214V0.436035H94.069V19Z" fill="white"/>
<path d="M77.0359 18.9998L74.7479 12.6038H67.5199L65.2319 18.9998H63.6719L70.5099 0.383789H71.9139L78.5959 18.9998H77.0359ZM71.9919 4.54379C71.9399 4.37045 71.8619 4.13646 71.7579 3.84179C71.6539 3.54712 71.5499 3.23512 71.4459 2.90579C71.3592 2.57646 71.2725 2.28179 71.1859 2.02179C71.0992 2.31645 71.0039 2.61979 70.8999 2.93179C70.8132 3.24379 70.7179 3.53846 70.6139 3.81579C70.5272 4.09312 70.4492 4.34446 70.3799 4.56979L68.0139 11.2518H74.2799L71.9919 4.54379Z" fill="white"/>
<path d="M61.2135 19H59.5755L49.5655 2.77604H49.4875C49.4875 3.1227 49.4962 3.47804 49.5135 3.84204C49.5308 4.1887 49.5395 4.5527 49.5395 4.93404C49.5568 5.31537 49.5655 5.70537 49.5655 6.10404C49.5828 6.48537 49.5915 6.87537 49.5915 7.27403V19H48.1875V0.436035H49.8255L59.8095 16.608H59.8875C59.8702 16.348 59.8528 16.0447 59.8355 15.698C59.8355 15.334 59.8268 14.9527 59.8095 14.554C59.8095 14.1554 59.8008 13.7567 59.7835 13.358C59.7835 12.9594 59.7835 12.578 59.7835 12.214V0.436035H61.2135V19Z" fill="white"/>
<path d="M44.5229 19H39.2969V18.064L41.1429 17.778V1.68404L39.2969 1.37204V0.436035H44.5229V1.37204L42.6509 1.68404V17.778L44.5229 18.064V19Z" fill="white"/>
<path d="M29.6369 19H28.1289V0.436035H37.7229V1.78803H29.6369V9.43204H37.2809V10.784H29.6369V19Z" fill="white"/>
<path d="M9.71266 5.19415C8.56866 5.19415 7.65866 5.60148 6.98266 6.41615C6.30666 7.21348 5.96866 8.32282 5.96866 9.74415C5.96866 10.7148 6.10732 11.5382 6.38466 12.2142C6.67932 12.8902 7.10399 13.4015 7.65866 13.7481C8.21332 14.0775 8.87199 14.2422 9.63466 14.2422C10.1027 14.2422 10.5533 14.1988 10.9867 14.1121C11.4373 14.0081 11.888 13.8695 12.3387 13.6961V14.8141C11.9227 14.9875 11.498 15.1348 11.0647 15.2562C10.6487 15.3602 10.1547 15.4121 9.58266 15.4121C8.02266 15.4121 6.80932 14.9181 5.94266 13.9302C5.09332 12.9422 4.66866 11.5468 4.66866 9.74415C4.66866 8.60015 4.86799 7.60348 5.26666 6.75415C5.68266 5.88748 6.26332 5.22015 7.00866 4.75215C7.77132 4.26682 8.66399 4.02415 9.68666 4.02415C10.2933 4.02415 10.8393 4.09348 11.3247 4.23215C11.8273 4.35348 12.2953 4.52682 12.7287 4.75215L12.2347 5.84415C11.836 5.63615 11.4287 5.48015 11.0127 5.37615C10.614 5.25482 10.1807 5.19415 9.71266 5.19415ZM0.222656 9.71815C0.222656 8.38348 0.44799 7.14415 0.898656 6.00015C1.36666 4.83882 2.01666 3.82482 2.84866 2.95815C3.68066 2.09148 4.63399 1.41548 5.70866 0.930148C6.78332 0.444815 7.93599 0.202148 9.16666 0.202148C10.4493 0.202148 11.628 0.462149 12.7027 0.982149C13.7947 1.48482 14.748 2.17815 15.5627 3.06215C16.3773 3.94615 17.0013 4.96015 17.4347 6.10415C17.8853 7.24815 18.1107 8.45282 18.1107 9.71815C18.1107 11.0181 17.8767 12.2488 17.4087 13.4101C16.958 14.5541 16.3167 15.5681 15.4847 16.4521C14.67 17.3188 13.7167 18.0035 12.6247 18.5061C11.55 18.9915 10.3973 19.2341 9.16666 19.2341C7.88399 19.2341 6.69666 18.9915 5.60466 18.5061C4.52999 18.0035 3.58532 17.3188 2.77066 16.4521C1.95599 15.5681 1.32332 14.5541 0.872656 13.4101C0.439323 12.2488 0.222656 11.0181 0.222656 9.71815ZM1.18466 9.71815C1.18466 10.8795 1.38399 11.9801 1.78266 13.0202C2.18132 14.0428 2.73599 14.9441 3.44666 15.7241C4.17466 16.5041 5.02399 17.1195 5.99466 17.5701C6.96532 18.0035 8.02266 18.2201 9.16666 18.2201C10.2933 18.2201 11.342 17.9948 12.3127 17.5442C13.2833 17.0935 14.124 16.4781 14.8347 15.6981C15.5627 14.9181 16.126 14.0168 16.5247 12.9941C16.9407 11.9715 17.1487 10.8795 17.1487 9.71815C17.1487 8.55681 16.9407 7.46482 16.5247 6.44215C16.126 5.41948 15.5627 4.51815 14.8347 3.73815C14.124 2.94082 13.2833 2.32548 12.3127 1.89215C11.342 1.44148 10.2933 1.21615 9.16666 1.21615C8.05732 1.21615 7.01732 1.44148 6.04666 1.89215C5.07599 2.32548 4.22666 2.93215 3.49866 3.71215C2.78799 4.47482 2.22466 5.37615 1.80866 6.41615C1.39266 7.43882 1.18466 8.53948 1.18466 9.71815Z" fill="white"/>
</svg>
