<svg width="426" height="86" viewBox="0 0 426 86" fill="none" xmlns="http://www.w3.org/2000/svg">
<path d="M400.063 42.1272V37.8009L410.446 26.7052C412.482 24.5336 414.077 22.7861 415.231 21.4627C416.418 20.1055 417.266 18.9179 417.775 17.8999C418.318 16.8819 418.59 15.8131 418.59 14.6933C418.59 12.861 418.03 11.4529 416.91 10.4688C415.79 9.45089 414.348 8.94191 412.584 8.94191C410.752 8.94191 409.174 9.46786 407.85 10.5197C406.527 11.5377 405.611 13.0307 405.102 14.9987L399.809 13.4718C400.216 11.4698 401.03 9.73931 402.252 8.28024C403.473 6.78724 404.966 5.63356 406.731 4.8192C408.529 4.00484 410.463 3.59766 412.533 3.59766C414.942 3.59766 417.046 4.05574 418.844 4.97189C420.643 5.85412 422.034 7.09263 423.018 8.68743C424.036 10.2822 424.545 12.1315 424.545 14.2353C424.545 15.6265 424.273 16.9837 423.73 18.3071C423.222 19.5965 422.424 20.9707 421.338 22.4298C420.252 23.8549 418.861 25.4667 417.165 27.2651L408.003 37.0374H425.257V42.1272H400.063Z" fill="#052482"/>
<path d="M373.153 42.1273L389.339 9.29826H371.117V4.2085H395.599V9.29826L379.668 42.1273H373.153Z" fill="#052482"/>
<path d="M354.088 42.738C351.611 42.738 349.405 42.1951 347.471 41.1093C345.537 40.0235 344.01 38.5305 342.89 36.6303C341.805 34.7301 341.262 32.5755 341.262 30.1663C341.262 28.9108 341.397 27.6554 341.669 26.3999C341.94 25.1444 342.415 23.838 343.094 22.4808C343.807 21.1235 344.757 19.6644 345.944 18.1036L356.531 4.2085H363.708L350.729 21.0047L349.711 20.3431C350.186 19.8002 350.695 19.376 351.238 19.0706C351.815 18.7652 352.408 18.5447 353.019 18.4089C353.664 18.2732 354.342 18.2054 355.055 18.2054C357.328 18.2054 359.364 18.7313 361.163 19.7832C362.961 20.8351 364.369 22.2602 365.387 24.0586C366.439 25.857 366.965 27.9268 366.965 30.2681C366.965 32.6433 366.405 34.781 365.285 36.6812C364.166 38.5475 362.639 40.0235 360.705 41.1093C358.804 42.1951 356.599 42.738 354.088 42.738ZM354.088 37.3938C355.411 37.3938 356.582 37.0884 357.6 36.4776C358.618 35.8669 359.432 35.0355 360.043 33.9836C360.654 32.8978 360.959 31.6763 360.959 30.319C360.959 28.9278 360.654 27.7063 360.043 26.6544C359.466 25.6025 358.652 24.7881 357.6 24.2113C356.582 23.6005 355.411 23.2951 354.088 23.2951C352.799 23.2951 351.628 23.6005 350.576 24.2113C349.558 24.7881 348.744 25.6025 348.133 26.6544C347.522 27.7063 347.217 28.9278 347.217 30.319C347.217 31.6763 347.522 32.8978 348.133 33.9836C348.744 35.0355 349.558 35.8669 350.576 36.4776C351.628 37.0884 352.799 37.3938 354.088 37.3938Z" fill="#052482"/>
<path d="M310.996 31.8969V26.8071H333.9V31.8969H310.996Z" fill="#052482"/>
<path d="M281.747 42.1273L297.932 9.29826H279.711V4.2085H304.193V9.29826L288.262 42.1273H281.747Z" fill="#052482"/>
<path d="M259.765 42.738C256.745 42.738 254.099 41.9236 251.825 40.2949C249.552 38.6322 247.77 36.3418 246.481 33.4237C245.225 30.4716 244.598 27.0445 244.598 23.1424C244.598 19.2063 245.225 15.7792 246.481 12.861C247.77 9.9429 249.535 7.66947 251.774 6.04074C254.048 4.41202 256.694 3.59766 259.714 3.59766C262.734 3.59766 265.364 4.41202 267.603 6.04074C269.877 7.66947 271.641 9.95987 272.897 12.9119C274.186 15.8301 274.831 19.2402 274.831 23.1424C274.831 27.0445 274.203 30.4716 272.948 33.4237C271.692 36.3418 269.928 38.6322 267.654 40.2949C265.415 41.9236 262.785 42.738 259.765 42.738ZM259.765 37.241C261.631 37.241 263.243 36.6642 264.6 35.5105C265.958 34.3568 267.01 32.7281 267.756 30.6243C268.503 28.5206 268.876 26.0266 268.876 23.1424C268.876 20.2582 268.503 17.7642 267.756 15.6604C267.01 13.5566 265.958 11.9279 264.6 10.7742C263.243 9.62055 261.614 9.04371 259.714 9.04371C257.848 9.04371 256.236 9.62055 254.879 10.7742C253.522 11.9279 252.47 13.5566 251.723 15.6604C250.977 17.7642 250.604 20.2582 250.604 23.1424C250.604 25.9926 250.977 28.4866 251.723 30.6243C252.47 32.7281 253.522 34.3568 254.879 35.5105C256.27 36.6642 257.899 37.241 259.765 37.241Z" fill="#052482"/>
<path d="M228.643 42.1273V33.5765H210.574V28.5885L228.388 4.2085H234.343V28.5885H239.586V33.5765H234.343V42.1273H228.643ZM215.002 30.7771L214.035 28.5885H228.643V8.99288L230.272 9.50185L215.002 30.7771Z" fill="#052482"/>
<path d="M180.82 31.8969V26.8071H203.724V31.8969H180.82Z" fill="#052482"/>
<path d="M157.773 42.738C154.753 42.738 152.106 41.9236 149.833 40.2949C147.56 38.6322 145.778 36.3418 144.489 33.4237C143.233 30.4716 142.605 27.0445 142.605 23.1424C142.605 19.2063 143.233 15.7792 144.489 12.861C145.778 9.9429 147.543 7.66947 149.782 6.04074C152.055 4.41202 154.702 3.59766 157.722 3.59766C160.742 3.59766 163.372 4.41202 165.611 6.04074C167.885 7.66947 169.649 9.95987 170.905 12.9119C172.194 15.8301 172.839 19.2402 172.839 23.1424C172.839 27.0445 172.211 30.4716 170.955 33.4237C169.7 36.3418 167.936 38.6322 165.662 40.2949C163.423 41.9236 160.793 42.738 157.773 42.738ZM157.773 37.241C159.639 37.241 161.251 36.6642 162.608 35.5105C163.966 34.3568 165.017 32.7281 165.764 30.6243C166.51 28.5206 166.884 26.0266 166.884 23.1424C166.884 20.2582 166.51 17.7642 165.764 15.6604C165.017 13.5566 163.966 11.9279 162.608 10.7742C161.251 9.62055 159.622 9.04371 157.722 9.04371C155.856 9.04371 154.244 9.62055 152.887 10.7742C151.53 11.9279 150.478 13.5566 149.731 15.6604C148.985 17.7642 148.611 20.2582 148.611 23.1424C148.611 25.9926 148.985 28.4866 149.731 30.6243C150.478 32.7281 151.53 34.3568 152.887 35.5105C154.278 36.6642 155.907 37.241 157.773 37.241Z" fill="#052482"/>
<path d="M111.626 42.1272V37.8009L122.009 26.7052C124.045 24.5336 125.639 22.7861 126.793 21.4627C127.981 20.1055 128.829 18.9179 129.338 17.8999C129.881 16.8819 130.152 15.8131 130.152 14.6933C130.152 12.861 129.592 11.4529 128.473 10.4688C127.353 9.45089 125.911 8.94191 124.146 8.94191C122.314 8.94191 120.736 9.46786 119.413 10.5197C118.09 11.5377 117.173 13.0307 116.664 14.9987L111.371 13.4718C111.778 11.4698 112.593 9.73931 113.814 8.28024C115.036 6.78724 116.529 5.63356 118.293 4.8192C120.092 4.00484 122.026 3.59766 124.096 3.59766C126.505 3.59766 128.608 4.05574 130.407 4.97189C132.205 5.85412 133.596 7.09263 134.58 8.68743C135.598 10.2822 136.107 12.1315 136.107 14.2353C136.107 15.6265 135.836 16.9837 135.293 18.3071C134.784 19.5965 133.987 20.9707 132.901 22.4298C131.815 23.8549 130.424 25.4667 128.727 27.2651L119.566 37.0374H136.82V42.1272H111.626Z" fill="#052482"/>
<path d="M98.1065 42.1273V9.29826H90.8281V4.2085H104.062V42.1273H98.1065Z" fill="#052482"/>
<path d="M70.9878 42.738C67.9679 42.738 65.3212 41.9236 63.0478 40.2949C60.7744 38.6322 58.9929 36.3418 57.7035 33.4237C56.4481 30.4716 55.8203 27.0445 55.8203 23.1424C55.8203 19.2063 56.4481 15.7792 57.7035 12.861C58.9929 9.9429 60.7574 7.66947 62.9969 6.04074C65.2703 4.41202 67.917 3.59766 70.9369 3.59766C73.9569 3.59766 76.5866 4.41202 78.8261 6.04074C81.0995 7.66947 82.8639 9.95987 84.1194 12.9119C85.4088 15.8301 86.0535 19.2402 86.0535 23.1424C86.0535 27.0445 85.4258 30.4716 84.1703 33.4237C82.9148 36.3418 81.1504 38.6322 78.877 40.2949C76.6375 41.9236 74.0077 42.738 70.9878 42.738ZM70.9878 37.241C72.8541 37.241 74.4658 36.6642 75.8231 35.5105C77.1804 34.3568 78.2323 32.7281 78.9788 30.6243C79.7253 28.5206 80.0985 26.0266 80.0985 23.1424C80.0985 20.2582 79.7253 17.7642 78.9788 15.6604C78.2323 13.5566 77.1804 11.9279 75.8231 10.7742C74.4658 9.62055 72.8371 9.04371 70.9369 9.04371C69.0707 9.04371 67.4589 9.62055 66.1016 10.7742C64.7444 11.9279 63.6925 13.5566 62.946 15.6604C62.1995 17.7642 61.8262 20.2582 61.8262 23.1424C61.8262 25.9926 62.1995 28.4866 62.946 30.6243C63.6925 32.7281 64.7444 34.3568 66.1016 35.5105C67.4928 36.6642 69.1216 37.241 70.9878 37.241Z" fill="#052482"/>
<path d="M324.588 82.9135C322.787 82.9135 321.209 82.4279 319.853 81.4566C318.497 80.465 317.435 79.0991 316.666 77.3589C315.917 75.5984 315.543 73.5546 315.543 71.2275C315.543 68.8802 315.917 66.8364 316.666 65.0961C317.435 63.3558 318.487 62 319.823 61.0287C321.179 60.0574 322.757 59.5718 324.558 59.5718C326.359 59.5718 327.927 60.0574 329.263 61.0287C330.618 62 331.671 63.366 332.419 65.1264C333.188 66.8667 333.573 68.9004 333.573 71.2275C333.573 73.5546 333.199 75.5984 332.45 77.3589C331.701 79.0991 330.649 80.465 329.293 81.4566C327.957 82.4279 326.389 82.9135 324.588 82.9135ZM324.588 79.6354C325.701 79.6354 326.662 79.2914 327.472 78.6034C328.281 77.9153 328.909 76.944 329.354 75.6894C329.799 74.4348 330.022 72.9475 330.022 71.2275C330.022 69.5075 329.799 68.0201 329.354 66.7655C328.909 65.5109 328.281 64.5396 327.472 63.8516C326.662 63.1636 325.691 62.8196 324.558 62.8196C323.445 62.8196 322.484 63.1636 321.674 63.8516C320.865 64.5396 320.238 65.5109 319.792 66.7655C319.347 68.0201 319.125 69.5075 319.125 71.2275C319.125 72.9273 319.347 74.4146 319.792 75.6894C320.238 76.944 320.865 77.9153 321.674 78.6034C322.504 79.2914 323.475 79.6354 324.588 79.6354Z" fill="#052482"/>
<path d="M302.862 82.9135C301.061 82.9135 299.482 82.4279 298.127 81.4566C296.771 80.465 295.708 79.0991 294.939 77.3589C294.191 75.5984 293.816 73.5546 293.816 71.2275C293.816 68.8802 294.191 66.8364 294.939 65.0961C295.708 63.3558 296.761 62 298.096 61.0287C299.452 60.0574 301.03 59.5718 302.831 59.5718C304.632 59.5718 306.201 60.0574 307.536 61.0287C308.892 62 309.944 63.366 310.693 65.1264C311.462 66.8667 311.846 68.9004 311.846 71.2275C311.846 73.5546 311.472 75.5984 310.723 77.3589C309.975 79.0991 308.922 80.465 307.566 81.4566C306.231 82.4279 304.663 82.9135 302.862 82.9135ZM302.862 79.6354C303.975 79.6354 304.936 79.2914 305.745 78.6034C306.555 77.9153 307.182 76.944 307.627 75.6894C308.072 74.4348 308.295 72.9475 308.295 71.2275C308.295 69.5075 308.072 68.0201 307.627 66.7655C307.182 65.5109 306.555 64.5396 305.745 63.8516C304.936 63.1636 303.965 62.8196 302.831 62.8196C301.718 62.8196 300.757 63.1636 299.948 63.8516C299.138 64.5396 298.511 65.5109 298.066 66.7655C297.621 68.0201 297.398 69.5075 297.398 71.2275C297.398 72.9273 297.621 74.4146 298.066 75.6894C298.511 76.944 299.138 77.9153 299.948 78.6034C300.777 79.2914 301.749 79.6354 302.862 79.6354Z" fill="#052482"/>
<path d="M284.961 82.5496V78.6037H288.452V82.5496H284.961ZM284.961 70.0744V66.1284H288.452V70.0744H284.961Z" fill="#052482"/>
<path d="M266.579 82.5493L274.319 72.5327L274.927 72.9273C274.643 73.2308 274.33 73.4736 273.986 73.6558C273.662 73.8379 273.308 73.9694 272.923 74.0503C272.559 74.1313 272.164 74.1718 271.739 74.1718C270.384 74.1718 269.17 73.8682 268.097 73.2612C267.025 72.6339 266.175 71.784 265.547 70.7115C264.94 69.6188 264.637 68.3844 264.637 67.0084C264.637 65.5716 264.971 64.2968 265.638 63.1838C266.306 62.0709 267.217 61.1906 268.37 60.5431C269.524 59.8955 270.839 59.5718 272.316 59.5718C273.814 59.5718 275.129 59.8955 276.262 60.5431C277.415 61.1906 278.316 62.081 278.964 63.2142C279.631 64.3271 279.965 65.602 279.965 67.0387C279.965 67.8077 279.884 68.5665 279.722 69.3152C279.56 70.0639 279.277 70.843 278.872 71.6524C278.468 72.4416 277.901 73.3117 277.173 74.2628L270.859 82.5493H266.579ZM272.316 71.1668C273.105 71.1668 273.803 70.9847 274.411 70.6204C275.018 70.2562 275.503 69.7604 275.867 69.1331C276.232 68.5058 276.414 67.7874 276.414 66.978C276.414 66.1483 276.232 65.4199 275.867 64.7926C275.503 64.145 275.007 63.6492 274.38 63.3052C273.773 62.941 273.085 62.7589 272.316 62.7589C271.547 62.7589 270.849 62.941 270.222 63.3052C269.615 63.6492 269.129 64.145 268.765 64.7926C268.401 65.4199 268.218 66.1483 268.218 66.978C268.218 67.7874 268.39 68.5058 268.734 69.1331C269.099 69.7604 269.594 70.2562 270.222 70.6204C270.849 70.9847 271.547 71.1668 272.316 71.1668Z" fill="#052482"/>
<path d="M256.669 82.5493V62.9714H252.328V59.936H260.22V82.5493H256.669Z" fill="#052482"/>
<path d="M234.766 76.4484V73.4131H248.425V76.4484H234.766Z" fill="#052482"/>
<path d="M221.018 82.9135C219.217 82.9135 217.639 82.4279 216.283 81.4566C214.927 80.465 213.865 79.0991 213.096 77.3589C212.347 75.5984 211.973 73.5546 211.973 71.2275C211.973 68.8802 212.347 66.8364 213.096 65.0961C213.865 63.3558 214.917 62 216.252 61.0287C217.608 60.0574 219.187 59.5718 220.988 59.5718C222.789 59.5718 224.357 60.0574 225.692 61.0287C227.048 62 228.1 63.366 228.849 65.1264C229.618 66.8667 230.003 68.9004 230.003 71.2275C230.003 73.5546 229.628 75.5984 228.879 77.3589C228.131 79.0991 227.079 80.465 225.723 81.4566C224.387 82.4279 222.819 82.9135 221.018 82.9135ZM221.018 79.6354C222.131 79.6354 223.092 79.2914 223.902 78.6034C224.711 77.9153 225.338 76.944 225.783 75.6894C226.229 74.4348 226.451 72.9475 226.451 71.2275C226.451 69.5075 226.229 68.0201 225.783 66.7655C225.338 65.5109 224.711 64.5396 223.902 63.8516C223.092 63.1636 222.121 62.8196 220.988 62.8196C219.875 62.8196 218.913 63.1636 218.104 63.8516C217.295 64.5396 216.667 65.5109 216.222 66.7655C215.777 68.0201 215.554 69.5075 215.554 71.2275C215.554 72.9273 215.777 74.4146 216.222 75.6894C216.667 76.944 217.295 77.9153 218.104 78.6034C218.934 79.2914 219.905 79.6354 221.018 79.6354Z" fill="#052482"/>
<path d="M200.462 82.9136C199.248 82.9136 198.104 82.691 197.032 82.2458C195.98 81.8006 195.069 81.1733 194.3 80.3639C193.551 79.5544 193.015 78.6034 192.691 77.5107L195.727 76.3572C196.131 77.4297 196.749 78.2594 197.578 78.8462C198.408 79.433 199.369 79.7264 200.462 79.7264C201.352 79.7264 202.121 79.5544 202.769 79.2104C203.437 78.8664 203.953 78.3808 204.317 77.7535C204.701 77.1262 204.893 76.3673 204.893 75.477C204.893 74.6068 204.701 73.8581 204.317 73.2308C203.953 72.6035 203.437 72.128 202.769 71.8042C202.121 71.4804 201.352 71.3186 200.462 71.3186C200.098 71.3186 199.723 71.3489 199.339 71.4096C198.975 71.4703 198.651 71.5513 198.367 71.6524L197.578 69.983L203.528 62.9714H193.906V59.936H207.534V62.8196L201.706 69.8009L201.615 68.6475C202.971 68.6677 204.165 68.9712 205.197 69.5581C206.229 70.1247 207.028 70.9138 207.595 71.9256C208.182 72.9172 208.475 74.0706 208.475 75.3859C208.475 76.8024 208.131 78.0874 207.443 79.2408C206.755 80.374 205.804 81.2745 204.59 81.9422C203.396 82.5898 202.02 82.9136 200.462 82.9136Z" fill="#052482"/>
<path d="M184.566 82.5496V78.6037H188.057V82.5496H184.566ZM184.566 70.0744V66.1284H188.057V70.0744H184.566Z" fill="#052482"/>
<path d="M166.185 82.5493L173.925 72.5327L174.532 72.9273C174.249 73.2308 173.935 73.4736 173.591 73.6558C173.267 73.8379 172.913 73.9694 172.529 74.0503C172.164 74.1313 171.77 74.1718 171.345 74.1718C169.989 74.1718 168.775 73.8682 167.702 73.2612C166.63 72.6339 165.78 71.784 165.153 70.7115C164.546 69.6188 164.242 68.3844 164.242 67.0084C164.242 65.5716 164.576 64.2968 165.244 63.1838C165.912 62.0709 166.822 61.1906 167.976 60.5431C169.129 59.8955 170.444 59.5718 171.922 59.5718C173.419 59.5718 174.734 59.8955 175.868 60.5431C177.021 61.1906 177.921 62.081 178.569 63.2142C179.237 64.3271 179.571 65.602 179.571 67.0387C179.571 67.8077 179.49 68.5665 179.328 69.3152C179.166 70.0639 178.883 70.843 178.478 71.6524C178.073 72.4416 177.507 73.3117 176.778 74.2628L170.465 82.5493H166.185ZM171.922 71.1668C172.711 71.1668 173.409 70.9847 174.016 70.6204C174.623 70.2562 175.109 69.7604 175.473 69.1331C175.837 68.5058 176.019 67.7874 176.019 66.978C176.019 66.1483 175.837 65.4199 175.473 64.7926C175.109 64.145 174.613 63.6492 173.986 63.3052C173.379 62.941 172.691 62.7589 171.922 62.7589C171.153 62.7589 170.455 62.941 169.827 63.3052C169.22 63.6492 168.734 64.145 168.37 64.7926C168.006 65.4199 167.824 66.1483 167.824 66.978C167.824 67.7874 167.996 68.5058 168.34 69.1331C168.704 69.7604 169.2 70.2562 169.827 70.6204C170.455 70.9847 171.153 71.1668 171.922 71.1668Z" fill="#052482"/>
<path d="M129.578 58.6006H150.765V84.8563H146.849V62.2733H133.312V84.917H129.578V58.6006ZM132.128 68.7993H148.458V72.381H132.128V68.7993ZM132.128 79.2409H148.488V82.9137H132.128V79.2409Z" fill="#052482"/>
<path d="M97.5579 58.6309H121.841V62.2429H97.5579V58.6309ZM95.9492 71.5007H123.601V75.1735H95.9492V71.5007ZM99.3792 64.2159L102.718 63.2142C103.062 63.882 103.396 64.5902 103.72 65.339C104.064 66.0674 104.357 66.7959 104.6 67.5244C104.863 68.2327 105.055 68.8701 105.177 69.4367L101.625 70.5597C101.524 69.9931 101.362 69.3557 101.14 68.6475C100.917 67.919 100.654 67.1703 100.35 66.4013C100.047 65.6121 99.7232 64.8837 99.3792 64.2159ZM116.681 63.1232L120.596 64.1248C120.232 64.914 119.847 65.6931 119.443 66.462C119.058 67.231 118.674 67.9696 118.289 68.6778C117.925 69.3658 117.571 69.9729 117.227 70.499L114.04 69.5581C114.364 68.9712 114.687 68.3035 115.011 67.5548C115.355 66.806 115.669 66.0472 115.952 65.2783C116.256 64.5093 116.498 63.7909 116.681 63.1232ZM107.817 60.1485H111.612V85.2508H107.817V60.1485Z" fill="#052482"/>
<g clip-path="url(#clip0_5004_1060)">
<path d="M9.42668 2.15117C5.92945 4.41229 5.24243 11.4802 6.56279 17.2407C7.59108 21.7267 9.77729 27.7443 13.4638 33.4107C16.9318 38.7414 21.7702 43.5214 25.4594 46.2869C30.197 49.8379 36.9506 52.0951 40.4478 49.834C42.2162 48.6906 44.8435 45.5668 44.9634 45.0063C44.9634 45.0063 43.4227 42.6382 43.0847 42.1185L37.9181 34.1769C37.5342 33.5867 35.1265 34.1262 33.9034 34.8168C32.2535 35.7488 30.734 38.2493 30.734 38.2493C29.6027 38.9009 28.6552 38.2517 26.6753 37.3433C24.2421 36.2272 21.5063 32.7594 19.329 29.6186C17.3403 26.3558 15.2798 22.4513 15.25 19.7813C15.2254 17.6088 15.0173 16.4816 16.0755 15.7175C16.0755 15.7175 18.9854 15.3542 20.5118 14.2325C21.6432 13.4009 23.1191 11.4293 22.7352 10.8391L17.5687 2.89761C17.2306 2.37792 15.69 0.00976496 15.69 0.00976496C15.1276 -0.109653 11.1951 1.00783 9.42668 2.15117Z" fill="#052482"/>
</g>
<defs>
<clipPath id="clip0_5004_1060">
<rect width="50.8977" height="50.7404" fill="white"/>
</clipPath>
</defs>
</svg>
