<svg width="441" height="56" viewBox="0 0 441 56" fill="none" xmlns="http://www.w3.org/2000/svg">
<rect width="441" height="56" rx="10" fill="#052482"/>
<path d="M61.464 38.388C59.79 38.636 59.728 36.652 61.433 36.373C63.851 35.97 67.323 35.629 70.733 35.35L71.105 33.18C64.595 33.738 60.999 34.296 58.054 34.637C57.248 34.73 56.845 34.296 56.845 33.8C56.845 33.304 57.248 32.777 58.085 32.653C62.518 32.064 67.168 31.599 71.477 31.258C71.601 30.607 71.694 29.956 71.818 29.305C68.904 29.553 66.455 29.77 62.177 30.421C60.534 30.669 60.658 28.499 62.146 28.313C65.649 27.879 69.121 27.538 72.221 27.321L72.593 25.306C70.268 25.492 67.912 25.709 66.052 25.957C65.463 26.918 63.882 26.701 64.006 25.43C64.223 23.415 64.595 21.245 64.905 19.633C65.122 18.579 66.672 18.238 67.044 18.982C69.152 18.734 71.601 18.548 73.988 18.362C74.112 17.866 74.205 17.37 74.298 16.874C70.857 17.029 67.323 17.308 64.471 17.68C62.828 17.897 62.704 15.665 64.378 15.51C67.044 15.262 70.95 15.014 74.763 14.859L74.856 14.394C75.042 13.526 75.724 13.092 76.313 13.092C76.902 13.092 77.398 13.526 77.181 14.394L77.088 14.735C80.963 14.611 84.435 14.549 86.047 14.642C87.876 14.735 87.535 16.812 85.923 16.719C84.311 16.626 80.715 16.626 76.623 16.781C76.53 17.246 76.406 17.742 76.313 18.238C79.909 18.021 83.04 17.959 84.001 18.021C85.241 18.114 85.892 18.858 85.675 20.098C85.458 21.369 84.869 23.477 84.187 25.089C83.598 26.515 81.831 25.895 82.048 24.779C80.808 24.779 78.018 24.903 74.949 25.12L74.577 27.166C78.297 26.949 81.242 26.856 82.761 26.918C83.908 26.949 84.745 27.693 84.528 28.84C84.435 29.336 84.311 29.925 84.156 30.576C84.993 30.545 85.706 30.545 86.326 30.545C87.194 30.545 87.566 30.948 87.566 31.382C87.566 31.909 87.008 32.529 86.109 32.498H83.691C83.226 34.389 82.699 36.218 82.42 36.993C81.831 38.605 79.723 37.861 80.25 36.528C78.545 36.528 76.034 36.745 72.841 37.024C72.562 38.574 72.345 39.907 72.19 40.93C72.035 41.922 71.322 42.976 69.865 42.976C68.377 42.976 66.114 42.108 64.843 41.426C62.859 40.372 64.254 38.109 65.959 39.07C66.827 39.566 68.842 40.434 69.865 40.527L70.392 37.241C66.517 37.613 64.378 37.954 61.464 38.388ZM83.536 20.098C82.575 20.098 79.506 20.16 75.879 20.346L75.321 23.198C78.576 22.95 81.428 22.857 82.73 22.888C83.102 21.803 83.412 20.811 83.536 20.098ZM66.858 21.121L66.424 24.066C68.501 23.787 70.764 23.57 72.965 23.384C73.182 22.392 73.368 21.431 73.554 20.501C71.291 20.656 68.966 20.842 66.858 21.121ZM74.298 29.119H74.205C74.081 29.77 73.988 30.452 73.864 31.103C76.871 30.886 79.661 30.731 81.955 30.638C82.11 29.987 82.234 29.367 82.296 28.84C80.901 28.716 77.677 28.84 74.298 29.119ZM73.523 32.994L73.151 35.164C76.375 34.916 79.289 34.761 80.901 34.699C81.087 34.017 81.304 33.304 81.49 32.56C79.103 32.622 76.282 32.777 73.523 32.994ZM91.813 20.377C89.767 20.687 89.767 18.114 91.844 17.897C94.231 17.649 96.928 17.401 99.625 17.184C99.16 16.347 98.757 15.479 98.54 14.735C98.137 13.278 100.524 12.534 101.082 14.425C101.299 15.2 101.64 16.161 101.981 16.967L107.933 16.502C108.801 15.603 109.669 14.518 110.506 13.526C110.878 13.092 111.343 12.906 111.808 12.906C112.862 12.906 113.73 13.929 112.583 15.014C112.18 15.386 111.622 15.851 111.064 16.285C114.443 16.068 117.171 15.913 118.473 15.913C119.403 15.913 119.775 16.347 119.775 16.843C119.775 17.525 119.124 18.3 118.287 18.3C115.373 18.3 113.265 18.362 107.561 18.734C99.625 19.261 95.099 19.881 91.813 20.377ZM110.816 42.697C109.235 42.387 107.375 41.705 105.856 40.713C103.996 39.504 105.577 37.055 107.158 38.078C108.522 38.946 110.041 39.69 111.25 39.938C111.746 37.458 113.637 26.422 114.629 21.524C115.063 19.354 117.977 19.54 117.543 21.369C116.241 26.918 114.288 37.396 113.637 40.93C113.389 42.263 112.273 42.976 110.816 42.697ZM105.515 33.862C106.29 29.336 106.662 26.546 107.468 22.175C107.84 20.16 110.568 20.408 110.134 22.237C109.049 26.763 108.615 30.359 108.119 33.738C107.809 35.815 105.236 35.505 105.515 33.862ZM88.744 43.193C88.062 43.193 87.442 42.697 87.442 42.015C87.442 41.643 87.566 41.333 87.814 40.961C89.891 37.985 92.061 30.421 92.681 22.95C92.774 21.71 94.634 21.493 95.037 22.361C98.044 21.772 100.834 21.338 102.539 21.431C103.81 21.493 104.678 22.175 104.337 23.601C103.19 28.592 101.826 36.869 101.144 40.372C100.927 41.457 100.276 42.387 99.067 42.294C97.765 42.201 96.37 41.519 95.471 40.992C93.673 39.938 95.254 37.768 96.773 38.667C97.517 39.101 98.168 39.318 98.881 39.566L99.656 35.505C97.703 35.474 95.006 35.66 92.619 35.97C91.937 38.171 91.131 40.217 90.139 42.232C89.798 42.914 89.271 43.193 88.744 43.193ZM94.448 27.817C97.145 27.383 99.501 27.135 101.33 27.073L102.043 23.694C100.648 23.57 98.23 23.942 94.913 24.562C94.758 25.709 94.634 26.794 94.448 27.817ZM93.27 33.645C95.626 33.304 98.168 33.056 100.152 32.994C100.369 31.816 100.617 30.576 100.865 29.429C99.191 29.46 96.587 29.739 94.045 30.173C93.828 31.382 93.58 32.529 93.27 33.645ZM118.783 40.403C118.69 39.907 118.659 39.349 118.659 38.729C118.659 37.427 118.814 35.815 119.093 33.552C120.147 27.476 122.72 19.571 124.332 15.975C124.766 15.045 125.51 14.642 126.161 14.642C127.122 14.642 127.866 15.448 127.246 16.843C125.231 21.369 122.968 27.135 121.914 34.389C121.604 36.218 121.511 38.543 121.821 39.938C122.1 41.271 121.294 42.046 120.426 42.046C119.713 42.046 118.969 41.519 118.783 40.403ZM141.847 24.717C140.266 25.709 138.53 23.663 140.452 22.64C141.785 21.927 143.49 20.687 143.955 20.191C143.459 20.098 141.041 20.253 138.158 20.656C135.306 21.09 133.663 21.493 130.935 22.175C128.889 22.671 128.331 19.974 130.377 19.416C133.973 18.455 143.273 17.587 145.505 18.021C146.621 18.238 147.241 18.92 147.241 19.695C147.241 19.974 147.179 20.284 146.993 20.563C146.032 22.113 143.273 23.849 141.847 24.717ZM132.919 40.31C130.966 40 128.858 38.698 127.99 37.427C126.75 35.66 128.858 34.265 129.943 35.35C130.625 36.032 131.462 37.334 133.384 37.675C137.011 38.326 140.793 37.055 144.141 35.35C146.28 34.265 147.427 37.086 145.04 38.171C141.754 39.659 136.484 40.868 132.919 40.31ZM148.388 39.628C151.364 36.59 154.03 31.785 155.177 29.212C153.751 29.398 152.139 29.677 150.372 30.049C148.295 30.483 148.388 27.817 150.403 27.507C152.108 27.228 153.999 26.98 155.859 26.763C156.448 24.531 157.068 21.896 157.44 19.757C156.479 19.881 155.456 20.036 154.371 20.191C153.844 21.896 153.286 23.57 152.697 25.182C151.984 27.135 149.628 26.236 150.341 24.624C152.108 20.656 152.635 17.525 153.379 14.053C153.534 13.34 154.061 13.03 154.557 13.03C155.332 13.03 156.045 13.681 155.797 14.797C155.549 15.82 155.301 16.843 155.053 17.804C157.998 17.37 160.881 16.967 163.051 16.967C164.632 16.967 164.508 19.385 162.4 19.385C161.656 19.385 160.788 19.416 159.858 19.509C159.517 21.338 158.959 23.725 158.308 26.515C160.199 26.329 161.842 26.236 162.834 26.298C164.663 26.391 163.857 28.592 162.462 28.623C161.16 28.654 159.734 28.716 158.122 28.871C159.176 31.94 160.354 35.474 160.974 37.861C161.408 39.504 158.711 40.186 158.432 38.357C158.091 36.125 157.254 32.963 156.665 30.948C155.146 34.141 152.604 38.481 150.341 41.364C149.938 41.86 149.504 42.077 149.039 42.077C148.357 42.077 147.799 41.55 147.799 40.837C147.799 40.744 147.83 40.558 147.861 40.465C147.954 40.186 148.078 39.938 148.388 39.628ZM162.369 39.814C163.144 36.342 165.407 24.872 166.523 16.812C166.74 15.231 169.189 15.231 169.003 16.626L168.972 16.812C171.886 16.316 175.668 15.851 178.024 15.913C179.202 15.944 179.76 16.812 179.76 18.052V18.238C179.667 20.098 176.009 38.977 175.916 39.442C175.606 40.992 173.281 40.93 173.591 39.504L173.622 39.38C171.545 39.287 168.135 39.473 164.725 39.907C164.322 41.426 162.028 41.302 162.369 39.814ZM177.404 18.579C175.792 18.486 171.607 18.827 168.631 19.292C167.639 25.678 166.12 33.211 165.252 37.458C168.6 36.962 172.382 36.714 174.149 36.807C175.265 30.979 176.97 21.028 177.404 18.579ZM193.493 41.302C193.121 41.55 192.78 41.643 192.47 41.643C191.044 41.643 190.517 39.535 192.16 38.698C196.376 36.466 199.073 33.924 200.499 32.343C201.863 30.793 202.824 28.716 202.266 27.786C201.677 26.825 198.515 26.732 195.136 27.352C191.509 28.003 188.161 29.491 185.898 30.7C184.41 31.475 183.325 30.669 183.325 29.646C183.325 29.026 183.728 28.344 184.72 27.91C187.045 26.887 190.982 25.585 195.043 24.81C196.469 24.531 197.771 24.438 198.918 24.438C200.003 24.438 200.964 24.531 201.739 24.717C203.847 25.306 204.901 26.639 204.901 28.344C204.901 28.871 204.808 29.429 204.622 30.018C203.413 33.583 199.724 37.458 193.493 41.302ZM231.029 18.176C225.17 18.486 214.661 20.439 208.182 21.772C206.973 22.02 206.353 21.338 206.353 20.532C206.353 19.788 206.911 18.92 208.058 18.672C211.933 17.866 220.551 16.781 225.759 16.223C228.146 15.975 231.277 15.696 232.889 15.696C233.23 15.696 233.478 15.696 233.664 15.727C234.594 15.882 235.09 16.595 235.09 17.308C235.09 17.68 234.935 18.083 234.656 18.362C234.067 18.951 232.114 20.036 230.037 21.555C227.619 23.322 224.674 25.492 222.411 27.6C218.629 31.103 215.591 35.505 215.901 37.117C216.18 38.667 219.714 39.008 222.535 38.326C226.1 37.458 228.022 36.621 230.037 35.381C231.928 34.265 233.757 36.497 231.215 37.985C228.425 39.597 224.829 40.775 222.132 41.116C221.202 41.24 220.303 41.302 219.466 41.302C217.885 41.302 216.521 41.085 215.591 40.682C212.987 39.566 212.367 36.807 213.669 34.234C214.816 31.971 216.893 29.212 219.714 26.577C222.845 23.632 228.549 19.54 231.029 18.176ZM239.182 22.609C237.849 22.95 237.136 22.206 237.136 21.338C237.136 20.625 237.663 19.788 238.779 19.571C242.964 18.734 248.42 18.207 252.636 17.99C252.698 17.091 252.698 16.223 252.698 15.386C252.667 14.27 253.504 13.681 254.248 13.681C254.868 13.681 255.426 14.115 255.395 15.014C255.426 15.758 255.395 16.719 255.271 17.866C256.48 17.835 257.503 17.804 258.216 17.835C259.115 17.866 259.518 18.393 259.518 18.982C259.518 19.695 258.929 20.47 257.906 20.408C257.162 20.377 256.139 20.377 254.961 20.408C254.713 21.927 254.372 23.601 253.876 25.275C255.209 25.182 256.449 25.182 257.534 25.306C259.859 25.585 260.944 26.143 261.781 27.538C262.773 29.212 262.339 31.754 260.913 34.606C259.084 38.202 256.418 40.651 253.628 41.86C253.318 42.015 253.008 42.077 252.729 42.077C251.148 42.077 250.59 39.814 252.574 38.915C255.023 37.768 257.224 36.094 258.495 33.676C259.673 31.413 260.479 28.685 258.588 27.817C257.689 27.414 255.581 27.352 253.132 27.662C252.357 29.832 251.365 31.909 250.125 33.645C246.405 38.884 240.515 41.426 236.981 40.961C234.873 40.682 233.974 39.566 233.974 38.078C233.974 37.303 234.222 36.435 234.656 35.505C236.144 32.529 240.36 29.398 246.188 27.042C247.676 26.453 249.443 25.957 251.21 25.647C251.799 23.911 252.171 22.206 252.388 20.532C251.396 20.625 250.311 20.718 249.257 20.842C244.235 21.431 241.476 22.02 239.182 22.609ZM263.548 22.02C263.207 20.284 262.866 18.858 261.874 17.215C260.727 15.324 263.083 13.805 264.106 15.386C265.036 16.843 265.749 18.827 266.121 20.966C266.152 21.121 266.152 21.245 266.152 21.369C266.152 22.423 265.377 23.043 264.664 23.043C264.168 23.043 263.672 22.733 263.548 22.02ZM236.671 38.078C236.826 38.512 237.26 38.698 237.911 38.698C240.453 38.698 246.219 35.474 248.73 31.134C249.319 30.142 249.815 29.15 250.249 28.189C249.071 28.437 247.924 28.778 246.87 29.181C241.972 31.041 235.927 36.032 236.671 38.078ZM268.88 28.654C267.702 28.902 267.113 28.22 267.113 27.476C267.113 26.794 267.578 26.05 268.539 25.833C273.964 24.841 280.536 23.88 285.806 23.322C285.527 21.989 285.31 20.656 285.093 19.323C281.59 19.695 278.645 20.191 271.546 21.586C270.337 21.865 269.655 21.121 269.655 20.315C269.655 19.633 270.182 18.889 271.329 18.703C276.475 17.866 281.156 17.246 284.752 16.874C284.659 16.254 284.597 15.665 284.535 15.107C284.411 13.867 285.155 13.278 285.93 13.278C286.612 13.278 287.325 13.743 287.418 14.704L287.604 16.595C289.464 16.471 290.828 16.409 291.541 16.44C292.44 16.502 292.874 16.998 292.874 17.556C292.874 18.145 292.347 18.796 291.448 18.827C290.828 18.858 289.402 18.951 287.945 19.075C288.1 20.191 288.348 21.431 288.658 23.043C290.735 22.857 292.44 22.795 293.556 22.826C294.61 22.857 295.044 23.446 295.044 24.004C295.044 24.686 294.486 25.368 293.556 25.368C292.223 25.368 290.642 25.43 289.154 25.523C289.712 28.096 290.332 30.545 290.518 31.413C290.797 32.839 289.805 33.707 288.906 33.769C287.976 33.831 286.86 33.428 284.907 33.087C282.458 32.653 278.986 32.529 275.514 33.118C271.918 33.738 270.337 35.381 270.554 36.652C270.802 38.109 273.313 39.659 278.893 39.814C283.636 39.938 287.635 37.954 289.433 37.024C290.735 36.342 291.727 37.179 291.727 38.171C291.727 38.76 291.386 39.411 290.518 39.814C288.038 41.023 283.791 42.232 279.637 42.418C279.079 42.449 278.521 42.449 277.963 42.449C274.553 42.449 271.701 41.922 269.686 40.372C267.64 38.791 267.299 35.815 268.725 33.831C270.492 31.382 274.367 30.483 277.901 30.235C281.714 29.956 285.93 30.7 287.449 30.886C287.108 29.491 286.674 27.724 286.271 25.771C280.195 26.546 274.119 27.569 268.88 28.654ZM297.617 41.488C297.4 42.325 296.718 42.728 296.067 42.728C295.385 42.728 294.765 42.263 294.765 41.333C294.765 41.178 294.765 41.023 294.796 40.868C295.509 37.427 299.384 28.902 303.352 21.183C301.771 21.462 300.252 21.834 299.229 22.144C298.02 22.516 297.338 21.803 297.338 20.997C297.338 20.377 297.803 19.664 298.826 19.509C300.748 19.199 302.732 18.92 304.654 18.672C305.522 17.029 306.359 15.479 307.165 14.053C307.537 13.402 308.126 13.123 308.684 13.123C309.645 13.123 310.451 13.96 309.707 15.231C309.087 16.285 308.498 17.277 307.94 18.269C311.288 17.866 314.109 17.68 315.38 17.773C316.279 17.835 316.682 18.331 316.682 18.858C316.682 19.478 316.124 20.16 315.225 20.16C313.365 20.16 310.234 20.408 306.421 20.904C305.305 22.888 304.313 24.717 303.383 26.546C300.996 31.258 299.136 35.753 297.617 41.488ZM318.325 25.368C315.628 25.709 313.985 26.143 311.195 26.918C310.079 27.228 309.428 26.608 309.428 25.895C309.428 25.337 309.862 24.655 310.761 24.376C314.574 23.136 322.231 22.268 324.06 22.392C325.052 22.454 325.486 23.043 325.486 23.663C325.486 24.345 324.928 25.089 323.967 25.12C322.572 25.182 320.929 25.027 318.325 25.368ZM302.329 39.008C301.368 37.427 302.36 36.187 303.383 36.187C303.817 36.187 304.251 36.404 304.561 36.9C305.274 38.047 306.421 38.946 308.312 39.225C311.722 39.752 318.263 37.892 321.611 36.156C323.068 35.412 324.06 36.187 324.06 37.179C324.06 37.861 323.595 38.636 322.51 39.101C319.689 40.31 314.357 41.767 310.234 41.953C308.591 42.015 306.979 41.829 305.646 41.395C304.22 40.961 302.918 39.969 302.329 39.008ZM327.532 41.178C327.377 41.24 327.253 41.24 327.098 41.24C326.292 41.24 325.827 40.403 325.827 39.566C325.827 38.326 327.284 33.645 329.299 27.972C330.973 23.074 333.205 18.331 334.166 16.595C334.6 15.82 335.282 15.479 335.871 15.479C336.739 15.479 337.452 16.161 337.018 17.06C333.484 24.066 329.485 34.017 328.989 37.644C330.446 36.683 333.484 34.11 335.003 32.653C335.313 32.343 335.685 32.219 335.995 32.219C337.08 32.219 337.824 33.738 336.367 35.133C333.949 37.458 329.299 40.62 327.532 41.178ZM349.449 35.97C349.976 34.73 350.813 32.498 351.371 30.421C352.456 26.36 353.2 21.741 353.479 18.486C353.572 17.432 354.409 16.812 355.122 16.812C355.68 16.812 356.176 17.184 356.176 18.052C356.176 19.199 355.742 22.671 355.246 25.399C354.533 29.46 353.51 33.8 352.487 36.342C352.084 37.365 351.216 37.83 350.503 37.83C349.635 37.83 348.953 37.148 349.449 35.97ZM363.74 32.405C363.337 34.823 360.082 34.451 360.547 32.095C362.128 24.221 364.608 17.711 365.848 15.076C366.282 14.177 367.057 13.774 367.77 13.774C368.545 13.774 369.227 14.239 369.227 15.045C369.227 15.138 369.227 15.231 369.196 15.324C369.165 15.479 369.103 15.634 369.041 15.789C366.065 22.454 364.732 26.298 363.74 32.405ZM360.33 41.085C360.206 40.806 359.4 39.566 359.245 39.318C358.997 38.946 358.904 38.574 358.904 38.264C358.904 36.621 361.291 35.629 362.531 37.272C362.841 37.706 363.554 38.977 363.678 39.256C364.422 40.992 363.244 42.139 362.004 42.139C361.353 42.139 360.702 41.829 360.33 41.085ZM377.076 32.405C376.673 34.823 373.418 34.451 373.883 32.095C375.464 24.221 377.944 17.711 379.184 15.076C379.618 14.177 380.393 13.774 381.106 13.774C381.881 13.774 382.563 14.239 382.563 15.045C382.563 15.138 382.563 15.231 382.532 15.324C382.501 15.479 382.439 15.634 382.377 15.789C379.401 22.454 378.068 26.298 377.076 32.405ZM373.666 41.085C373.542 40.806 372.736 39.566 372.581 39.318C372.333 38.946 372.24 38.574 372.24 38.264C372.24 36.621 374.627 35.629 375.867 37.272C376.177 37.706 376.89 38.977 377.014 39.256C377.758 40.992 376.58 42.139 375.34 42.139C374.689 42.139 374.038 41.829 373.666 41.085Z" fill="white"/>
</svg>
