<svg width="272" height="37" viewBox="0 0 272 37" fill="none" xmlns="http://www.w3.org/2000/svg">
<path d="M206.341 9.66801C207.43 9.76934 208.519 9.85801 209.609 9.93401C210.723 9.98467 211.851 10.01 212.991 10.01C215.321 10.01 217.639 9.90867 219.945 9.70601C222.25 9.50334 224.378 9.18667 226.329 8.75601V13.506C224.353 13.7847 222.212 14.0127 219.907 14.19C217.601 14.342 215.296 14.418 212.991 14.418C211.876 14.418 210.761 14.4053 209.647 14.38C208.557 14.3293 207.455 14.266 206.341 14.19V9.66801ZM220.781 3.24601C220.73 3.60067 220.679 3.99334 220.629 4.42401C220.603 4.85467 220.578 5.28534 220.553 5.71601C220.527 6.12134 220.502 6.66601 220.477 7.35001C220.451 8.03401 220.439 8.80667 220.439 9.66801C220.439 10.504 220.439 11.3907 220.439 12.328C220.439 14.0507 220.464 15.672 220.515 17.192C220.565 18.6867 220.629 20.08 220.705 21.372C220.781 22.6387 220.844 23.804 220.895 24.868C220.971 25.932 221.009 26.92 221.009 27.832C221.009 28.82 220.869 29.732 220.591 30.568C220.337 31.404 219.919 32.1387 219.337 32.772C218.754 33.4053 217.981 33.8867 217.019 34.216C216.081 34.5707 214.929 34.748 213.561 34.748C210.926 34.748 208.849 34.216 207.329 33.152C205.809 32.088 205.049 30.5553 205.049 28.554C205.049 27.262 205.391 26.1347 206.075 25.172C206.759 24.184 207.734 23.424 209.001 22.892C210.267 22.3347 211.762 22.056 213.485 22.056C215.283 22.056 216.917 22.246 218.387 22.626C219.856 23.006 221.199 23.5127 222.415 24.146C223.631 24.7793 224.707 25.476 225.645 26.236C226.607 26.9707 227.469 27.68 228.229 28.364L225.607 32.354C224.163 30.986 222.757 29.808 221.389 28.82C220.021 27.832 218.653 27.072 217.285 26.54C215.942 26.008 214.549 25.742 213.105 25.742C212.041 25.742 211.167 25.9447 210.483 26.35C209.824 26.7553 209.495 27.3253 209.495 28.06C209.495 28.82 209.837 29.3773 210.521 29.732C211.205 30.0867 212.041 30.264 213.029 30.264C213.814 30.264 214.435 30.1373 214.891 29.884C215.347 29.6053 215.663 29.2127 215.841 28.706C216.043 28.174 216.145 27.5407 216.145 26.806C216.145 26.1473 216.119 25.286 216.069 24.222C216.018 23.158 215.955 21.9673 215.879 20.65C215.828 19.3327 215.777 17.9647 215.727 16.546C215.676 15.102 215.651 13.696 215.651 12.328C215.651 10.884 215.638 9.57934 215.613 8.41401C215.613 7.22334 215.613 6.33667 215.613 5.75401C215.613 5.47534 215.587 5.08267 215.537 4.57601C215.486 4.06934 215.423 3.62601 215.347 3.24601H220.781ZM202.237 3.66401C202.161 3.91734 202.047 4.27201 201.895 4.72801C201.768 5.18401 201.654 5.62734 201.553 6.05801C201.477 6.48867 201.413 6.81801 201.363 7.04601C201.236 7.578 201.097 8.30001 200.945 9.21201C200.793 10.0987 200.628 11.112 200.451 12.252C200.299 13.3667 200.147 14.5193 199.995 15.71C199.843 16.8753 199.729 17.99 199.653 19.054C199.577 20.0927 199.539 20.992 199.539 21.752C199.539 22.132 199.539 22.55 199.539 23.006C199.564 23.4367 199.615 23.842 199.691 24.222C199.868 23.766 200.045 23.3227 200.223 22.892C200.425 22.4613 200.628 22.0307 200.831 21.6C201.033 21.1693 201.223 20.7387 201.401 20.308L203.719 22.208C203.364 23.2467 202.997 24.336 202.617 25.476C202.262 26.616 201.933 27.6927 201.629 28.706C201.35 29.7193 201.135 30.568 200.983 31.252C200.932 31.5053 200.881 31.8093 200.831 32.164C200.805 32.5187 200.793 32.81 200.793 33.038C200.793 33.2407 200.793 33.4813 200.793 33.76C200.818 34.064 200.843 34.3427 200.869 34.596L196.575 34.938C196.169 33.5953 195.815 31.8853 195.511 29.808C195.207 27.7053 195.055 25.362 195.055 22.778C195.055 21.3593 195.118 19.8773 195.245 18.332C195.371 16.7613 195.511 15.254 195.663 13.81C195.84 12.366 196.017 11.0487 196.195 9.85801C196.372 8.64201 196.511 7.66667 196.613 6.93201C196.689 6.40001 196.765 5.80467 196.841 5.14601C196.917 4.46201 196.967 3.81601 196.993 3.20801L202.237 3.66401Z" fill="#052482"/>
<path d="M156.028 6.81797H190.494V11.15H156.028V6.81797ZM168.72 16.128H183.274V20.422H168.72V16.128ZM181.564 16.128H186.276C186.276 16.128 186.263 16.2546 186.238 16.508C186.238 16.736 186.238 17.002 186.238 17.306C186.238 17.61 186.212 17.876 186.162 18.104C185.934 21.5746 185.68 24.412 185.402 26.616C185.123 28.82 184.806 30.5426 184.452 31.784C184.097 33 183.666 33.8866 183.16 34.444C182.577 35.0773 181.969 35.508 181.336 35.736C180.702 35.964 179.942 36.1286 179.056 36.23C178.321 36.306 177.358 36.3313 176.168 36.306C174.977 36.306 173.748 36.2806 172.482 36.23C172.456 35.5713 172.292 34.8113 171.988 33.95C171.684 33.114 171.304 32.3793 170.848 31.746C172.165 31.8726 173.432 31.9486 174.648 31.974C175.864 31.9993 176.738 32.012 177.27 32.012C177.7 32.012 178.055 31.9866 178.334 31.936C178.638 31.86 178.904 31.7206 179.132 31.518C179.537 31.1886 179.879 30.4666 180.158 29.352C180.462 28.2373 180.728 26.654 180.956 24.602C181.184 22.55 181.386 19.9533 181.564 16.812V16.128ZM167.01 9.40197H172.102C172 11.4286 171.836 13.4806 171.608 15.558C171.405 17.61 171.05 19.6493 170.544 21.676C170.037 23.6773 169.302 25.59 168.34 27.414C167.377 29.238 166.11 30.9353 164.54 32.506C162.969 34.0766 160.98 35.47 158.574 36.686C158.244 36.0526 157.763 35.3686 157.13 34.634C156.522 33.8993 155.926 33.2913 155.344 32.81C157.548 31.7966 159.346 30.6186 160.74 29.276C162.158 27.908 163.273 26.4386 164.084 24.868C164.894 23.272 165.49 21.6126 165.87 19.89C166.275 18.1673 166.541 16.4193 166.668 14.646C166.82 12.8726 166.934 11.1246 167.01 9.40197ZM170.658 0.547974H175.408V8.52797H170.658V0.547974Z" fill="#052482"/>
<path d="M120.157 8.11005C120.967 8.21139 121.829 8.28738 122.741 8.33805C123.678 8.36339 124.501 8.37605 125.211 8.37605C126.781 8.37605 128.365 8.28739 129.961 8.11005C131.582 7.93272 133.14 7.70472 134.635 7.42605C136.129 7.12205 137.485 6.78005 138.701 6.40005L138.853 10.8081C137.763 11.0867 136.459 11.3781 134.939 11.6821C133.444 11.9607 131.861 12.2014 130.189 12.4041C128.517 12.5814 126.87 12.6701 125.249 12.6701C124.489 12.6701 123.716 12.6574 122.931 12.6321C122.145 12.6067 121.335 12.5687 120.499 12.5181L120.157 8.11005ZM134.939 2.41005C134.787 3.04338 134.584 3.86672 134.331 4.88005C134.077 5.89339 133.786 6.95738 133.457 8.07205C133.153 9.18672 132.823 10.2887 132.469 11.3781C131.911 13.2021 131.177 15.1401 130.265 17.1921C129.353 19.2441 128.365 21.2454 127.301 23.1961C126.237 25.1467 125.16 26.8821 124.071 28.4021L119.473 26.0461C120.334 24.9821 121.183 23.8041 122.019 22.5121C122.855 21.2201 123.64 19.8901 124.375 18.5221C125.109 17.1541 125.768 15.8367 126.351 14.5701C126.959 13.2781 127.44 12.1127 127.795 11.0741C128.276 9.73138 128.694 8.23672 129.049 6.59005C129.429 4.91805 129.644 3.34739 129.695 1.87805L134.939 2.41005ZM143.831 14.2281C143.78 15.0387 143.755 15.8494 143.755 16.6601C143.78 17.4454 143.805 18.2561 143.831 19.0921C143.856 19.6747 143.881 20.4221 143.907 21.3341C143.957 22.2207 144.008 23.1707 144.059 24.1841C144.109 25.1721 144.147 26.1221 144.173 27.0341C144.223 27.9207 144.249 28.6301 144.249 29.1621C144.249 30.3274 144.008 31.3914 143.527 32.354C143.045 33.2914 142.273 34.0387 141.209 34.5961C140.17 35.1534 138.739 35.4321 136.915 35.4321C135.344 35.4321 133.925 35.1914 132.659 34.7101C131.392 34.2541 130.379 33.5701 129.619 32.6581C128.859 31.7207 128.479 30.5554 128.479 29.1621C128.479 27.9207 128.808 26.8061 129.467 25.8181C130.125 24.8047 131.075 24.0194 132.317 23.4621C133.583 22.8794 135.103 22.5881 136.877 22.5881C139.106 22.5881 141.158 22.9047 143.033 23.5381C144.907 24.1461 146.592 24.9314 148.087 25.8941C149.581 26.8567 150.861 27.8194 151.925 28.7821L149.379 32.8481C148.695 32.2401 147.909 31.5561 147.023 30.7961C146.161 30.0361 145.186 29.3267 144.097 28.6681C143.033 28.0094 141.867 27.4647 140.601 27.0341C139.359 26.6034 138.017 26.3881 136.573 26.3881C135.483 26.3881 134.609 26.6034 133.951 27.0341C133.292 27.4647 132.963 28.0221 132.963 28.7061C132.963 29.4154 133.241 29.9854 133.799 30.4161C134.381 30.8467 135.192 31.062 136.231 31.062C137.092 31.062 137.776 30.9227 138.283 30.6441C138.789 30.3401 139.144 29.9221 139.347 29.3901C139.549 28.8327 139.651 28.2121 139.651 27.5281C139.651 26.9454 139.625 26.1221 139.575 25.0581C139.524 23.9941 139.461 22.8161 139.385 21.5241C139.334 20.2321 139.283 18.9401 139.233 17.6481C139.182 16.3561 139.131 15.2161 139.081 14.2281H143.831ZM150.367 16.2421C149.632 15.6341 148.72 14.9881 147.631 14.3041C146.541 13.6201 145.414 12.9741 144.249 12.3661C143.109 11.7327 142.108 11.2261 141.247 10.8461L143.679 7.08405C144.363 7.38805 145.135 7.76805 145.997 8.22405C146.883 8.65472 147.77 9.11072 148.657 9.59205C149.569 10.0734 150.405 10.5547 151.165 11.0361C151.95 11.4921 152.583 11.8974 153.065 12.2521L150.367 16.2421Z" fill="#052482"/>
<path d="M101.686 4.76598C101.509 5.01931 101.307 5.31064 101.079 5.63998C100.876 5.94398 100.673 6.24798 100.471 6.55198C100.015 7.23598 99.5078 8.03398 98.9505 8.94598C98.4185 9.83264 97.8612 10.7826 97.2785 11.796C96.6958 12.784 96.1258 13.772 95.5685 14.76C95.0365 15.748 94.5298 16.66 94.0485 17.496C94.7578 17.0906 95.4798 16.7993 96.2145 16.622C96.9492 16.4446 97.6838 16.356 98.4185 16.356C99.8372 16.356 100.952 16.7866 101.762 17.648C102.598 18.484 103.054 19.7 103.13 21.296C103.156 21.8533 103.169 22.5246 103.169 23.31C103.169 24.0953 103.169 24.8806 103.169 25.666C103.194 26.4513 103.232 27.11 103.283 27.642C103.359 28.3766 103.625 28.9086 104.081 29.238C104.562 29.542 105.119 29.694 105.753 29.694C106.563 29.694 107.298 29.4533 107.956 28.972C108.64 28.4906 109.249 27.832 109.781 26.996C110.313 26.1346 110.768 25.172 111.148 24.108C111.554 23.0186 111.896 21.8913 112.174 20.726L116.279 24.07C115.62 26.2233 114.784 28.1233 113.77 29.77C112.757 31.3913 111.516 32.6453 110.046 33.532C108.602 34.444 106.905 34.9 104.954 34.9C103.561 34.9 102.396 34.6466 101.458 34.14C100.521 33.6586 99.8245 33.0253 99.3685 32.24C98.9125 31.4293 98.6592 30.5553 98.6085 29.618C98.5578 28.934 98.5198 28.174 98.4945 27.338C98.4945 26.502 98.4818 25.6913 98.4565 24.906C98.4565 24.0953 98.4312 23.4366 98.3805 22.93C98.3298 22.2713 98.1145 21.752 97.7345 21.372C97.3545 20.992 96.8225 20.802 96.1385 20.802C95.3025 20.802 94.5045 21.068 93.7445 21.6C92.9845 22.132 92.2878 22.8286 91.6545 23.69C91.0465 24.5513 90.5145 25.5013 90.0585 26.54C89.8052 27.0973 89.5392 27.756 89.2605 28.516C88.9818 29.276 88.7158 30.0613 88.4625 30.872C88.2092 31.6826 87.9685 32.4426 87.7405 33.152C87.5125 33.8866 87.3225 34.5073 87.1705 35.014L81.8125 33.19C82.2938 31.9233 82.8765 30.4793 83.5605 28.858C84.2698 27.2113 85.0425 25.4886 85.8785 23.69C86.7145 21.8913 87.5632 20.1053 88.4245 18.332C89.2858 16.5586 90.1092 14.8866 90.8945 13.316C91.6798 11.72 92.3765 10.3393 92.9845 9.17398C93.6178 7.98331 94.0992 7.08397 94.4285 6.47598C94.6818 5.96931 94.9732 5.39931 95.3025 4.76598C95.6318 4.13264 95.9612 3.41064 96.2905 2.59998L101.686 4.76598Z" fill="#052482"/>
<path d="M50.8038 5.37397C52.1971 5.52597 53.7678 5.63997 55.5158 5.71597C57.2638 5.79197 59.1385 5.82997 61.1398 5.82997C62.3812 5.82997 63.6605 5.80464 64.9778 5.75397C66.3205 5.7033 67.6125 5.63997 68.8538 5.56397C70.0952 5.48797 71.1972 5.39931 72.1598 5.29797V10.352C71.2732 10.428 70.1965 10.504 68.9298 10.58C67.6885 10.656 66.3838 10.7193 65.0158 10.77C63.6731 10.7953 62.3938 10.808 61.1778 10.808C59.2018 10.808 57.3651 10.77 55.6678 10.694C53.9705 10.618 52.3491 10.5166 50.8038 10.39V5.37397ZM53.9958 21.486C53.8185 22.1446 53.6665 22.7906 53.5398 23.424C53.4132 24.0573 53.3498 24.6906 53.3498 25.324C53.3498 26.54 53.9578 27.5406 55.1738 28.326C56.4151 29.1113 58.4038 29.504 61.1398 29.504C62.8625 29.504 64.5218 29.4406 66.1178 29.314C67.7138 29.1873 69.2211 29.01 70.6398 28.782C72.0838 28.554 73.3631 28.288 74.4778 27.984L74.5158 33.342C73.4012 33.5953 72.1598 33.8106 70.7918 33.988C69.4238 34.1906 67.9418 34.3426 66.3458 34.444C64.7751 34.5706 63.1031 34.634 61.3298 34.634C58.4418 34.634 56.0225 34.3173 54.0718 33.684C52.1211 33.0506 50.6645 32.1386 49.7018 30.948C48.7391 29.732 48.2578 28.25 48.2578 26.502C48.2578 25.3873 48.3465 24.374 48.5238 23.462C48.7011 22.55 48.8658 21.7393 49.0178 21.03L53.9958 21.486Z" fill="#052482"/>
<path d="M32.2916 31.8874L32.3505 31.9715C32.6188 32.4015 32.5225 32.9733 32.113 33.2903C31.7035 33.6073 31.1259 33.5573 30.7767 33.1898L30.7101 33.1117L6.71041 2.11212C6.37232 1.67541 6.45226 1.04731 6.88896 0.709219C7.32567 0.371125 7.95377 0.451065 8.29186 0.88777L32.2916 31.8874Z" fill="#052482"/>
<path d="M22.1245 33.7191L22.2015 33.7869C22.5632 34.1419 22.6041 34.7203 22.2806 35.1246C21.9572 35.5289 21.3839 35.616 20.9582 35.341L20.8751 35.2808L0.875229 19.2809C0.443967 18.9359 0.374045 18.3066 0.719055 17.8754C1.06406 17.4441 1.69336 17.3742 2.12462 17.7192L22.1245 33.7191Z" fill="#052482"/>
<path d="M239.712 31.8874L239.653 31.9715C239.385 32.4015 239.481 32.9733 239.891 33.2903C240.3 33.6073 240.878 33.5573 241.227 33.1898L241.294 33.1117L265.293 2.11212C265.632 1.67541 265.552 1.04731 265.115 0.709219C264.678 0.371125 264.05 0.451065 263.712 0.88777L239.712 31.8874Z" fill="#052482"/>
<path d="M249.876 33.7191L249.799 33.7869C249.437 34.1419 249.396 34.7203 249.719 35.1246C250.043 35.5289 250.616 35.616 251.042 35.341L251.125 35.2808L271.125 19.2809C271.556 18.9359 271.626 18.3066 271.281 17.8754C270.936 17.4441 270.307 17.3742 269.875 17.7192L249.876 33.7191Z" fill="#052482"/>
</svg>
