<svg width="308" height="54" viewBox="0 0 308 54" fill="none" xmlns="http://www.w3.org/2000/svg">
<rect width="308" height="54" rx="10" fill="#052482"/>
<path d="M43.792 39.352C42.448 41.048 40.336 39.288 42.032 37.528C44.08 35.416 47.632 32.152 50.256 29.72C48.304 30.008 46.288 30.392 43.792 30.968C41.552 31.48 41.712 28.824 43.824 28.504C45.552 28.248 48.72 27.864 51.984 27.544L52.592 23.544C51.472 23.704 50.384 23.864 49.392 24.12C48.976 25.72 46.672 25.56 47.024 23.992C47.44 22.104 48.432 16.376 48.624 13.528C48.688 12.568 49.488 12.056 50.16 12.056C50.64 12.056 51.056 12.312 51.12 12.824C53.84 12.408 58.704 11.992 60.688 11.992C60.88 11.992 60.976 11.992 61.296 12.024C62.416 12.12 63.088 13.208 62.928 14.456C62.608 16.856 61.296 22.68 60.976 23.896C60.56 25.496 58.224 25.272 58.576 23.768C58.608 23.576 58.672 23.384 58.736 23.16C57.68 23.192 56.496 23.224 55.216 23.32C54.96 24.408 54.64 25.976 54.416 27.288C58 26.968 61.296 26.712 62.544 26.712C63.44 26.712 63.824 27.16 63.824 27.64C63.824 28.312 63.12 29.112 62.096 29.112C60.496 29.112 56.784 29.112 54.576 29.272C56.432 31.8 59.184 35.192 60.912 36.888C62.512 38.456 60.336 40.376 59.024 38.808C57.36 36.824 54.96 33.592 53.552 31.32C53.232 33.816 52.592 39.8 52.432 41.112C52.304 42.136 51.696 42.616 51.056 42.616C50.384 42.616 49.712 42.008 49.84 40.92C50.256 37.592 51.024 33.208 51.504 31.032C49.392 33.08 45.776 36.824 43.792 39.352ZM35.664 40.344C36.336 37.72 39.12 27.512 40.784 21.208C38.96 23.352 37.744 24.504 35.952 26.296C34.832 27.416 33.456 26.584 33.456 25.464C33.456 25.048 33.648 24.6 34.128 24.184C37.04 21.624 41.968 16.408 44.368 13.112C45.712 11.288 47.984 12.536 46.864 14.168C46.064 15.32 45.136 16.408 44.08 17.656C42.544 23.128 38.576 39.416 38.192 40.888C37.712 42.744 35.152 42.264 35.664 40.344ZM60.496 14.616C59.6 14.52 53.84 14.744 50.8 15.32C50.544 17.272 50.192 19.736 49.84 21.784C53.008 21.208 57.84 20.984 59.248 20.984C59.792 18.648 60.432 15.8 60.496 14.616ZM83.408 21.4C82.224 22.392 80.944 21.816 80.944 20.824C80.944 20.408 81.2 19.896 81.808 19.416C85.168 16.792 88.496 14.04 90.992 11.416C91.312 11.064 91.696 10.904 92.048 10.904C92.624 10.904 93.136 11.384 93.2 11.992C94.896 13.432 98.608 16.216 100.432 17.24C100.976 17.528 101.2 17.944 101.2 18.36C101.2 19.256 100.016 20.088 98.864 19.224C97.36 18.072 93.584 15.256 91.952 13.848C89.168 16.312 86.608 18.712 83.408 21.4ZM73.776 35.384C72.4 34.264 73.072 32.536 74.192 32.536C74.448 32.536 74.768 32.664 75.056 32.888C76.528 34.04 78.352 34.584 78.928 33.272C79.568 31.832 77.584 29.048 75.632 27.288C74.576 26.36 74.192 25.656 74.864 24.6C75.984 22.84 79.056 18.008 80.4 16.152C79.472 16.024 76.048 16.216 71.92 17.048C70.768 17.272 70.224 16.664 70.224 15.928C70.224 15.224 70.768 14.424 71.728 14.296C76.208 13.656 81.168 13.528 82.48 13.72C83.92 13.944 84.4 15.256 83.408 16.504C81.52 18.904 78.544 23.128 77.136 25.304C79.056 27.032 80.912 29.144 81.392 31.512C81.808 33.528 81.072 35.192 79.76 36.088C78.352 37.048 75.632 36.92 73.776 35.384ZM67.984 40.792C70.448 31.288 71.76 22.744 72.176 19C72.304 17.976 73.072 17.496 73.776 17.496C74.416 17.496 75.024 17.944 74.896 18.776C74.416 22.104 72.176 34.232 70.672 40.92C70.448 41.88 69.712 42.296 69.04 42.296C68.432 42.296 67.92 41.944 67.92 41.272C67.92 41.176 67.92 41.048 67.984 40.792ZM82.928 41.72C82.448 42.168 81.936 42.328 81.488 42.328C80.272 42.328 79.44 41.112 80.912 39.896C83.76 37.56 86.512 35.032 88.016 32.408C86.896 32.536 85.808 32.728 84.848 32.952C84.624 33.496 84.08 33.752 83.568 33.752C83.056 33.752 82.608 33.464 82.704 32.856C83.024 30.872 83.44 26.36 83.696 24.28C83.856 22.872 85.84 22.552 86.128 23.48C87.28 23.288 88.72 23.096 90.16 22.936C90.288 22.008 90.416 21.144 90.48 20.504C89.552 20.6 88.528 20.76 87.408 20.92C86.64 21.048 86.224 20.568 86.224 19.992C86.224 19.384 86.704 18.68 87.76 18.52C91.472 17.976 93.904 17.784 95.376 17.784C96.208 17.784 96.56 18.232 96.56 18.744C96.56 19.384 96.016 20.12 95.152 20.12C94.512 20.12 93.712 20.152 92.752 20.248L92.336 22.712C94.352 22.52 96.112 22.424 96.816 22.456C98.128 22.52 98.896 23.768 98.704 24.952C98.48 26.392 97.712 30.552 97.392 31.8C97.168 32.696 96.432 33.08 95.792 33.08C95.088 33.08 94.512 32.632 94.736 31.832C93.84 31.864 92.56 31.928 91.12 32.056C91.92 33.944 94.064 37.144 95.952 39.128C96.336 39.544 96.528 39.96 96.528 40.376C96.528 41.656 94.8 42.488 93.808 40.984C92.4 38.776 90.448 35.32 89.616 33.432C87.856 36.216 85.296 39.512 82.928 41.72ZM96.112 24.888C95.44 24.856 93.808 24.92 91.952 25.08C91.664 26.872 91.312 28.728 91.088 29.912C92.752 29.752 94.224 29.656 95.28 29.656C95.728 27.768 96.08 25.752 96.112 24.888ZM85.872 25.848L85.232 30.648C86.384 30.456 87.6 30.296 88.784 30.136C89.104 28.952 89.456 27.128 89.776 25.304C88.336 25.464 86.96 25.656 85.872 25.848ZM128.24 23.64C127.152 23.544 126.128 22.84 126.288 21.368C126.48 19.48 126.928 17.656 127.184 16.216C127.408 14.872 129.36 14.904 129.488 15.928C130.768 15.704 132.336 15.512 133.232 15.48C133.488 14.552 133.68 13.848 133.712 13.432C133.04 13.336 130.768 13.368 127.472 14.04C126.352 14.264 125.872 12.376 127.6 11.992C129.104 11.64 131.792 11.48 133.264 11.48C133.616 11.48 133.872 11.48 134.064 11.512C135.12 11.608 135.856 12.216 135.856 13.304C135.856 14.232 135.408 16.024 135.056 17.048C134.736 18.04 133.392 17.976 132.976 17.304C131.952 17.368 130.32 17.56 129.072 17.848C128.72 19.32 128.496 20.504 128.496 21.656C129.552 21.816 132.592 21.272 133.424 20.696C133.36 20.472 133.264 20.248 133.04 19.896C132.208 18.584 134.32 17.528 135.184 19.096C135.376 19.448 135.504 19.8 135.568 20.408C135.664 21.4 135.248 22.232 134.032 22.776C132.432 23.48 129.808 23.768 128.24 23.64ZM118.32 24.024C117.264 23.928 116.176 23.256 116.4 21.784C116.688 19.96 116.848 18.584 117.328 16.824C117.616 15.704 119.056 15.8 119.472 16.44C120.848 16.216 122.448 15.992 123.248 15.96C123.504 15.128 123.664 14.488 123.6 13.944C122.928 13.848 120.944 13.912 117.68 14.552C116.528 14.776 116.048 12.888 117.808 12.504C119.664 12.088 122.992 11.928 123.984 12.024C125.04 12.12 126 12.6 125.872 13.752C125.744 15.032 125.424 16.088 125.04 17.528C124.752 18.552 123.312 18.52 122.928 17.784C122 17.784 120.496 18.008 119.184 18.296C118.864 19.544 118.608 21.048 118.512 22.008C119.76 22.168 122.704 21.624 123.536 21.24C123.472 21.016 123.312 20.76 123.12 20.44C122.352 19.128 124.4 18.072 125.264 19.64C125.456 19.992 125.648 20.632 125.68 20.952C125.776 21.944 125.2 22.68 124.016 23.192C122.384 23.896 119.92 24.184 118.32 24.024ZM113.872 18.616C111.792 18.264 109.36 17.24 108.048 16.376C106.32 15.192 108.048 12.888 109.744 14.072C111.12 15.032 112.72 15.864 114.544 16.376C116.176 16.824 115.664 18.904 113.872 18.616ZM121.648 42.104C114.704 42.104 112.528 40.568 104.656 40.024C103.792 39.96 103.408 39.32 103.408 38.648C103.408 37.848 103.952 37.016 105.008 37.08C106.448 37.176 108.816 37.016 109.392 35.544C110.032 33.912 107.984 31.608 108.368 29.464C108.688 27.608 109.648 25.688 111.056 24.696C109.232 24.888 107.92 25.24 105.68 25.848C103.44 26.456 103.28 23.544 105.424 23.128C109.968 22.296 112.624 21.816 114.448 21.976C116.08 22.104 116.304 24.248 114.64 24.536C113.552 24.728 111.728 26.552 111.12 28.792C110.48 31.128 112.624 34.008 111.664 36.408C111.248 37.432 110.352 38.008 109.776 38.296C113.552 38.84 118.16 40.376 123.568 39.864C127.856 39.448 129.392 38.552 130.864 37.752C132.848 36.664 133.616 39.256 131.728 40.248C128.912 41.688 125.296 42.104 121.648 42.104ZM114.448 34.136C112.432 34.52 112.56 32.088 114.32 31.832C115.888 31.608 117.648 31.384 119.44 31.224C119.504 30.488 119.6 29.624 119.664 28.76C118.544 28.888 117.456 29.048 116.528 29.24C114.704 29.592 114.768 27.16 116.496 26.968C117.52 26.84 118.672 26.744 119.888 26.616L119.984 25.56C120.176 23.64 122.672 23.736 122.416 25.4C122.384 25.72 122.32 26.04 122.288 26.392C123.728 26.264 125.168 26.136 126.512 26.04C126.544 25.72 126.576 25.528 126.64 25.144C126.96 23.256 129.456 23.48 129.104 25.112L128.944 25.88C130.256 25.816 131.28 25.784 131.888 25.816C134.064 25.912 133.456 28.056 131.632 27.96C131.088 27.928 130 27.96 128.656 28.024L128.368 30.488C130.352 30.36 131.984 30.328 132.912 30.328C134.864 30.36 134.128 32.536 132.624 32.536C129.744 32.536 120.432 32.984 114.448 34.136ZM121.776 31C123.216 30.84 124.656 30.744 125.968 30.648C126.064 29.784 126.16 28.92 126.224 28.152C124.88 28.216 123.44 28.344 122 28.472C121.904 29.336 121.84 30.168 121.776 31ZM127.632 37.368C127.248 36.568 126.8 35.864 125.968 34.968C124.784 33.688 126.64 32.408 127.92 33.688C128.656 34.424 129.36 35.288 129.776 36.024C130.736 37.72 128.56 39.32 127.632 37.368ZM118.64 38.904C117.008 40.248 115.184 37.976 117.2 36.696C118.32 35.992 119.344 35.096 120.176 34.104C121.296 32.792 123.024 34.2 122 35.48C121.264 36.408 119.76 37.976 118.64 38.904ZM169.68 16.184C169.264 15.512 168.368 14.264 167.664 13.624C166.864 12.888 167.568 11.8 168.56 11.8C168.88 11.8 169.168 11.896 169.488 12.12C170.288 12.76 171.216 14.008 171.536 14.808C171.632 15.032 171.664 15.224 171.664 15.416C171.664 16.536 170.192 17.272 169.68 16.184ZM166.672 18.616C166.32 17.976 165.584 16.76 164.688 15.832C163.632 14.68 165.232 13.144 166.352 14.168C167.152 14.808 168.272 16.248 168.688 17.176C169.328 18.616 167.408 19.992 166.672 18.616ZM162.192 21.56C162.736 25.048 161.904 29.816 160.4 32.92C158.864 36.088 154.864 40.344 149.328 41.016C148.72 41.08 148.144 41.144 147.536 41.144C144.176 41.144 141.328 39.8 140.784 36.344C139.728 29.752 145.968 22.392 153.488 16.6C150.608 17.4 145.904 19.256 142.384 20.504C141.104 20.984 140.336 20.184 140.336 19.288C140.336 18.616 140.72 17.912 141.648 17.592C144.56 16.568 148.464 15.416 151.472 14.68C153.456 14.2 154.864 13.816 155.824 13.816C157.2 13.816 158.416 14.904 157.712 16.152C157.392 16.728 156.496 17.176 155.312 18.2C149.136 23.544 143.376 29.24 143.536 35.128C143.6 37.72 146.48 39.32 149.552 38.52C152.656 37.72 155.728 35.768 157.712 32.312C159.376 29.432 159.952 25.336 159.856 22.712C159.824 21.72 159.664 20.728 159.536 19.864C159.344 18.712 160.592 18.04 161.52 18.328C162.48 18.616 163.6 19.544 165.68 20.952C167.184 21.976 168.336 22.712 169.264 23.288C171.216 24.504 169.456 26.744 167.568 25.688C165.968 24.792 163.6 22.84 162.192 21.56ZM190.704 40.568C190.48 40.632 190.288 40.664 190.096 40.664C188.368 40.664 187.952 38.36 189.84 37.72C195.28 35.864 197.904 34.168 200.656 29.4C202.8 25.656 202.576 20.504 200.112 18.616C199.056 17.816 197.584 17.304 195.888 17.144C194.352 21.208 191.984 25.24 188.752 29.24C185.776 32.888 182.416 35.608 179.952 36.696C177.936 37.592 175.632 36.76 174.896 35.128C174.48 34.2 174.288 32.856 174.288 31.48C174.288 29.88 174.544 28.216 175.152 26.84C177.424 21.624 181.488 17.752 187.44 15.768C189.552 15.064 191.92 14.616 194.256 14.616C196.72 14.616 199.152 15.128 201.168 16.344C203.76 17.912 204.88 20.44 204.88 23.352C204.88 25.656 204.176 28.152 202.96 30.552C199.728 36.952 194.544 39.512 190.704 40.568ZM178.224 34.168C179.856 34.488 183.728 31.512 187.312 26.84C190.192 23.032 191.92 19.8 193.168 17.112C191.472 17.272 189.68 17.656 187.92 18.328C183.152 20.152 179.696 23.672 177.968 27.416C176.784 29.944 176.528 33.848 178.224 34.168ZM212.272 38.104C212.112 38.136 211.952 38.136 211.792 38.136C210.736 38.136 210.16 37.4 210.16 36.568C210.16 35.64 210.928 35 211.792 34.904C218.832 33.944 227.344 33.656 231.888 33.784C233.904 28.6 236.144 19.352 235.952 18.616C235.024 18.392 222.96 18.712 215.344 20.184C212.688 20.696 212.56 17.304 215.152 16.92C221.808 15.96 229.104 15.64 233.328 15.64C234.992 15.64 236.176 15.704 236.656 15.768C238.096 15.992 239.024 17.016 239.024 18.296C238.992 20.184 236.368 29.336 234.576 34.168C235.664 34.904 234.992 36.824 233.008 36.696C229.904 36.472 218.832 36.888 212.272 38.104ZM257.52 23.256C257.456 21.304 256.784 17.24 255.888 14.808C255.44 13.56 256.368 12.728 257.36 12.728C258.032 12.728 258.704 13.112 259.024 13.976C259.824 16.248 260.464 20.184 260.56 22.872C260.624 25.144 257.584 25.368 257.52 23.256ZM250.096 26.104C249.52 22.392 248.272 19.16 247.376 17.56C247.216 17.24 247.12 16.952 247.12 16.664C247.12 15.16 249.264 14.328 250.192 15.992C251.632 18.648 253.264 23.768 253.36 25.656C253.488 27.512 250.416 28.248 250.096 26.104ZM254.224 40.792C253.872 40.952 253.52 41.048 253.232 41.048C251.568 41.048 250.992 38.616 252.816 37.656C256.56 35.672 260.816 32.824 264.304 29.464C267.92 26.008 270.736 22.2 272.656 18.84C273.552 17.304 275.856 17.88 275.856 19.576C275.856 19.928 275.76 20.28 275.568 20.696C273.072 25.88 261.744 37.176 254.224 40.792Z" fill="white"/>
</svg>
