<svg width="20" height="35" viewBox="0 0 20 35" fill="none" xmlns="http://www.w3.org/2000/svg">
<path d="M10.2605 0.0888672C10.8128 0.0889213 11.2605 0.536616 11.2605 1.08887V30.1934L17.907 20.2422L17.9686 20.1592C18.2947 19.7625 18.8961 19.6232 19.3611 19.8506C19.8258 20.0781 19.9904 20.5916 19.7566 21.0332L19.7039 21.1211L11.4646 33.457C11.3153 33.6806 11.0838 33.8365 10.8289 33.9102C10.6674 34.0222 10.472 34.0888 10.2605 34.0889C9.90331 34.0889 9.59074 33.9009 9.41387 33.6191C9.38014 33.5875 9.34768 33.5545 9.31816 33.5186L9.25664 33.4355L1.01738 21.0986C0.710654 20.6394 0.86404 20.0707 1.36016 19.8281C1.85632 19.5856 2.50752 19.7614 2.81426 20.2207L9.26055 29.8721V1.08887C9.26055 0.536582 9.70826 0.0888672 10.2605 0.0888672Z" fill="black"/>
</svg>
