<svg width="148" height="50" viewBox="0 0 148 50" fill="none" xmlns="http://www.w3.org/2000/svg">
<rect width="148" height="50" fill="white"/>
<rect width="148" height="50" rx="10" fill="#052482"/>
<path d="M34.13 35.16C33.98 35.19 33.83 35.19 33.68 35.19C32.69 35.19 32.15 34.5 32.15 33.72C32.15 32.85 32.87 32.25 33.68 32.16C40.28 31.26 48.26 30.99 52.52 31.11C54.41 26.25 56.51 17.58 56.33 16.89C55.46 16.68 44.15 16.98 37.01 18.36C34.52 18.84 34.4 15.66 36.83 15.3C43.07 14.4 49.91 14.1 53.87 14.1C55.43 14.1 56.54 14.16 56.99 14.22C58.34 14.43 59.21 15.39 59.21 16.59C59.18 18.36 56.72 26.94 55.04 31.47C56.06 32.16 55.43 33.96 53.57 33.84C50.66 33.63 40.28 34.02 34.13 35.16ZM74.45 21.24C74.39 19.41 73.76 15.6 72.92 13.32C72.5 12.15 73.37 11.37 74.3 11.37C74.93 11.37 75.56 11.73 75.86 12.54C76.61 14.67 77.21 18.36 77.3 20.88C77.36 23.01 74.51 23.22 74.45 21.24ZM67.49 23.91C66.95 20.43 65.78 17.4 64.94 15.9C64.79 15.6 64.7 15.33 64.7 15.06C64.7 13.65 66.71 12.87 67.58 14.43C68.93 16.92 70.46 21.72 70.55 23.49C70.67 25.23 67.79 25.92 67.49 23.91ZM71.36 37.68C71.03 37.83 70.7 37.92 70.43 37.92C68.87 37.92 68.33 35.64 70.04 34.74C73.55 32.88 77.54 30.21 80.81 27.06C84.2 23.82 86.84 20.25 88.64 17.1C89.48 15.66 91.64 16.2 91.64 17.79C91.64 18.12 91.55 18.45 91.37 18.84C89.03 23.7 78.41 34.29 71.36 37.68ZM96.08 37.92C95.93 37.95 95.87 37.95 95.81 37.95C95.09 37.95 94.64 37.38 94.64 36.78V36.72C94.7 36.12 95.18 35.52 96.29 35.4C97.64 35.25 100.61 35.01 103.55 34.8C105.32 27.18 108.17 17.76 109.16 15.18C107.84 16.32 101.24 20.37 99.02 21.33C97.22 22.11 95.81 19.59 98.3 18.45C101 17.22 104.48 15.24 107 13.56C108.23 12.75 109.7 11.55 110.54 11.25C110.75 11.19 110.96 11.13 111.17 11.13C111.98 11.13 112.73 11.7 112.73 12.81V12.99C112.7 13.32 112.61 13.68 112.46 14.1C110.93 18.06 108.29 26.04 106.4 34.62C108.23 34.5 109.82 34.44 110.66 34.41C112.76 34.35 112.25 36.9 110.36 36.9C108.23 36.87 99.14 37.38 96.08 37.92Z" fill="white"/>
</svg>
