<svg width="148" height="50" viewBox="0 0 148 50" fill="none" xmlns="http://www.w3.org/2000/svg">
<rect width="148" height="50" rx="10" fill="#052482"/>
<path d="M31.63 35.16C31.48 35.19 31.33 35.19 31.18 35.19C30.19 35.19 29.65 34.5 29.65 33.72C29.65 32.85 30.37 32.25 31.18 32.16C37.78 31.26 45.76 30.99 50.02 31.11C51.91 26.25 54.01 17.58 53.83 16.89C52.96 16.68 41.65 16.98 34.51 18.36C32.02 18.84 31.9 15.66 34.33 15.3C40.57 14.4 47.41 14.1 51.37 14.1C52.93 14.1 54.04 14.16 54.49 14.22C55.84 14.43 56.71 15.39 56.71 16.59C56.68 18.36 54.22 26.94 52.54 31.47C53.56 32.16 52.93 33.96 51.07 33.84C48.16 33.63 37.78 34.02 31.63 35.16ZM71.95 21.24C71.89 19.41 71.26 15.6 70.42 13.32C70 12.15 70.87 11.37 71.8 11.37C72.43 11.37 73.06 11.73 73.36 12.54C74.11 14.67 74.71 18.36 74.8 20.88C74.86 23.01 72.01 23.22 71.95 21.24ZM64.99 23.91C64.45 20.43 63.28 17.4 62.44 15.9C62.29 15.6 62.2 15.33 62.2 15.06C62.2 13.65 64.21 12.87 65.08 14.43C66.43 16.92 67.96 21.72 68.05 23.49C68.17 25.23 65.29 25.92 64.99 23.91ZM68.86 37.68C68.53 37.83 68.2 37.92 67.93 37.92C66.37 37.92 65.83 35.64 67.54 34.74C71.05 32.88 75.04 30.21 78.31 27.06C81.7 23.82 84.34 20.25 86.14 17.1C86.98 15.66 89.14 16.2 89.14 17.79C89.14 18.12 89.05 18.45 88.87 18.84C86.53 23.7 75.91 34.29 68.86 37.68ZM93.34 37.02C93.22 37.05 93.1 37.05 93.01 37.05C91.9 37.05 91.18 36.21 91.18 35.43C91.18 34.83 91.54 34.32 92.23 34.08C92.95 33.84 94.87 33.18 96.76 32.04C102.91 28.32 113.92 21.18 113.71 17.1C113.62 15.3 111.22 14.4 108.13 14.7C104.44 15.06 101.65 16.98 99.79 19.2C99.31 19.77 98.77 20.01 98.32 20.01C97.06 20.01 96.19 18.3 97.69 16.74C99.64 14.73 103.24 12.36 107.74 11.94C108.22 11.91 108.67 11.88 109.12 11.88C112.15 11.88 114.7 12.81 115.96 14.43C116.56 15.21 116.83 16.08 116.83 17.01C116.83 18.81 115.84 20.76 114.28 22.5C111.16 25.98 103.72 30.75 97.84 34.11C100.06 33.81 109.06 32.64 113.8 32.73C114.94 32.76 115.48 33.45 115.48 34.17C115.48 34.95 114.82 35.79 113.62 35.73C108.46 35.55 99.61 36.15 93.34 37.02Z" fill="white"/>
</svg>
