<svg width="103" height="25" viewBox="0 0 103 25" fill="none" xmlns="http://www.w3.org/2000/svg">
<path d="M84.7325 8.3498H83.8225C83.1985 8.3498 82.6785 8.3758 82.1065 8.4538V7.1798C81.4305 7.80381 81.2225 7.9858 80.5205 8.5058C80.1565 7.8558 80.0265 7.67381 79.4805 7.1538C82.1325 5.3338 83.7445 3.4358 84.8365 0.887804H86.7865C87.6705 2.8378 88.8405 4.1378 91.2325 5.8278C90.7645 6.3478 90.5825 6.5818 90.2705 7.1798C88.0605 5.4118 87.0465 4.2938 85.8505 2.3178C84.7845 4.2678 83.8225 5.51581 82.3665 6.9198C82.8865 6.97181 83.2765 6.9978 83.8485 6.9978H87.5405C88.2685 6.9978 88.7365 6.97181 89.2565 6.8938V8.4538C88.7365 8.3758 88.2685 8.3498 87.5145 8.3498H86.2925V11.1058H88.1125C89.1265 11.1058 89.7505 11.0798 90.4785 10.9758V12.6398C89.7765 12.5358 89.1005 12.5098 88.1125 12.5098H86.2925V20.0238C87.8525 19.6598 88.6585 19.4258 90.7125 18.7758V20.3098C87.7745 21.2198 85.6425 21.7658 81.4305 22.6498C80.6765 22.8058 80.5985 22.8318 80.2085 22.9618L79.7925 21.0898C80.8065 21.0898 82.1845 20.8818 84.7325 20.3618V12.5098H82.3925C81.3525 12.5098 80.6245 12.5618 79.9485 12.6398V10.9758C80.6245 11.0798 81.3265 11.1058 82.4185 11.1058H84.7325V8.3498ZM95.5225 9.05181V3.25381C95.5225 2.2398 95.4705 1.43381 95.3405 0.549805H97.3685C97.2385 1.4078 97.1865 2.2138 97.1865 3.25381V9.05181H99.8645C101.138 9.05181 101.996 8.99981 102.828 8.89581V10.7938C101.944 10.6898 101.034 10.6378 99.8905 10.6378H97.1865V21.0118C97.1865 22.1038 97.2385 22.9098 97.3685 23.7678H95.3405C95.4705 22.8838 95.5225 22.0778 95.5225 21.0118V10.6378H93.1825C92.0125 10.6378 91.1545 10.6898 90.2705 10.7938V8.89581C91.0505 8.99981 91.9345 9.05181 93.2085 9.05181H95.5225ZM83.3285 18.8798L81.9505 19.3998C81.5345 17.2158 81.1965 16.0718 80.4945 14.2778L81.8465 13.8098C82.5745 15.8118 82.8865 16.9038 83.3285 18.8798ZM88.6325 18.5678L87.3585 18.0998C88.0345 16.5658 88.3725 15.3958 88.6325 13.6018L90.0365 14.1218C89.5945 16.0458 89.2825 17.0078 88.6325 18.5678Z" fill="#333333"/>
<path d="M63.9076 4.73605V2.78605C63.9076 1.87605 63.8296 1.17405 63.7256 0.498047H65.8056C65.7016 1.04405 65.6496 1.77205 65.6496 2.78605V4.73605H73.6056C74.9316 4.73605 75.7896 4.68405 76.5956 4.55405V6.50405C75.8676 6.37405 75.1656 6.34805 73.6576 6.34805H63.8036C63.6996 8.01205 63.6476 8.66205 63.4396 10.066H70.5376C71.9156 10.066 72.5656 10.04 73.2156 9.93605C73.1636 10.456 73.1376 10.742 73.0856 11.756C72.9816 14.85 72.5396 18.854 72.0976 20.622C71.5516 22.858 70.9276 23.404 68.8476 23.404C68.0156 23.404 66.6376 23.326 65.2336 23.17C65.1556 22.338 65.0776 22 64.8176 21.324C66.3256 21.61 67.5996 21.74 68.7436 21.74C69.8616 21.74 70.1216 21.428 70.5116 19.504C70.9536 17.32 71.1616 15.084 71.3176 11.626H63.1536C62.5816 14.59 61.8796 16.41 60.6836 18.282C59.8516 19.556 58.7596 20.778 57.4596 21.87C56.6276 22.572 56.0556 22.962 54.6256 23.768C54.2616 23.144 54.0016 22.884 53.3516 22.312C55.7696 21.116 57.1996 19.972 58.6296 18.1C60.7616 15.344 61.7756 11.808 61.9836 6.34805H56.5236C55.1976 6.34805 54.3136 6.40005 53.6116 6.50405V4.55405C54.4436 4.68405 55.2236 4.73605 56.4976 4.73605H63.9076Z" fill="#333333"/>
<path d="M42.2229 5.38604V3.07204C39.8829 3.33204 39.2849 3.38404 37.1529 3.56604C36.9189 2.94204 36.9189 2.94204 36.4249 2.13604C40.0129 2.05804 42.5089 1.79804 45.6549 1.12204C46.9549 0.862039 47.5529 0.654039 48.1769 0.290039L49.3469 1.64204C46.9809 2.31804 45.7589 2.57804 43.7049 2.89004V5.38604H48.1249C49.4249 5.38604 50.1269 5.33404 50.6729 5.23004V6.84204C49.9189 6.76404 49.0869 6.71204 48.1249 6.71204H44.2769C47.0069 8.94804 48.5149 9.80604 51.6349 10.898C51.2189 11.366 51.0369 11.6 50.6469 12.276C47.6049 10.924 46.2789 10.04 43.6269 7.59604C43.7049 8.74004 43.7049 9.00004 43.7049 9.70204V10.3C43.7049 11.002 43.7309 11.47 43.8349 11.99H42.0929C42.1969 11.366 42.2229 10.976 42.2229 10.274V9.72804C42.2229 8.92204 42.2229 8.55804 42.3009 7.62204C39.8829 9.96204 38.4789 10.95 35.8009 12.198C35.4369 11.626 35.2029 11.34 34.7609 10.976C37.4649 9.96204 39.2329 8.89604 41.7029 6.71204H38.4789C37.3869 6.71204 36.6589 6.73804 36.0349 6.84204V5.23004C36.6849 5.36004 37.3089 5.38604 38.5829 5.38604H42.2229ZM39.7789 14.174H39.3889C38.2709 14.174 37.4389 14.226 36.8929 14.304V12.588C37.4389 12.692 38.1929 12.744 39.3889 12.744H45.1609C45.7589 12.744 46.1489 12.718 46.7209 12.666C46.3569 14.226 46.2269 14.72 45.8629 16.02H48.1769C49.0349 16.02 49.5289 15.994 50.0489 15.942C49.9189 16.774 49.9189 16.774 49.7629 17.97C49.1649 22.884 48.7229 23.612 46.4089 23.612C45.5769 23.612 44.4849 23.508 43.1589 23.352C43.0809 22.52 43.0029 22.208 42.7949 21.636C44.1989 21.922 45.2909 22.078 46.2009 22.078C47.0589 22.078 47.3709 21.896 47.5529 21.298C47.8129 20.492 48.0469 19.036 48.1769 17.398H45.4469C45.2909 17.892 45.2909 17.918 45.0829 18.438L43.5489 18.282C44.1469 17.008 44.5629 15.76 44.8749 14.174H41.3389C41.0789 17.164 40.7929 18.334 39.9089 20.024C39.0249 21.714 37.9329 22.884 36.1649 24.054C35.6969 23.482 35.3589 23.17 34.8389 22.832C36.7369 21.792 37.8289 20.752 38.6609 19.14C39.3629 17.762 39.6229 16.696 39.7789 14.174ZM28.1569 2.78604V1.14804C28.7549 1.25204 29.1709 1.27804 30.0289 1.27804H33.2529C34.1109 1.27804 34.5269 1.25204 35.1249 1.14804V2.78604C34.5789 2.70804 34.0069 2.68204 33.2529 2.68204H30.0289C29.2489 2.68204 28.7549 2.70804 28.1569 2.78604ZM26.9609 6.42604V4.73604C27.5589 4.84004 28.0529 4.86604 29.0409 4.86604H33.3829C34.4749 4.86604 34.8909 4.84004 35.4629 4.73604V6.42604C34.9429 6.34804 34.5009 6.32204 33.5909 6.32204H29.0409C28.1309 6.32204 27.6629 6.34804 26.9609 6.42604ZM28.1309 10.014V8.42804C28.6509 8.50604 29.0409 8.53204 29.8989 8.53204H33.2529C34.1109 8.53204 34.4229 8.50604 34.9689 8.42804V10.014C34.3969 9.93604 34.0329 9.91004 33.2529 9.91004H29.8989C29.0669 9.91004 28.6509 9.93604 28.1309 10.014ZM28.1309 13.602V12.016C28.6249 12.094 29.0669 12.12 29.8989 12.12H33.2529C34.0849 12.12 34.5009 12.094 34.9689 12.016V13.602C34.4229 13.524 34.0069 13.498 33.2269 13.498H29.8729C29.0929 13.498 28.6769 13.524 28.1309 13.602ZM29.6909 23.716H28.0529C28.1309 22.936 28.1829 22 28.1829 21.194V17.58C28.1829 16.826 28.1569 16.124 28.0789 15.474C28.5209 15.552 28.8069 15.578 29.7429 15.578H33.5649C34.3969 15.578 34.7089 15.552 35.1249 15.5C35.0729 16.098 35.0469 16.566 35.0469 17.528V20.518C35.0469 21.22 35.0729 21.714 35.0989 22.234C34.1629 22.182 34.0329 22.182 33.5649 22.182H29.6909V23.716ZM29.6649 16.878V20.83H33.6169V16.878H29.6649Z" fill="#333333"/>
<path d="M22.4391 7.69991H18.9811C18.7731 10.9239 18.7731 10.9239 18.6431 12.0419C18.2531 15.2399 17.6031 17.6579 16.5371 19.8159C15.7831 21.3759 15.0811 22.3639 13.6251 24.0279C13.1311 23.4559 12.8971 23.2479 12.3511 22.9099C12.7151 22.5459 12.8711 22.3899 13.1051 22.1559C12.5591 22.1039 11.9871 22.0779 10.8951 22.0779H5.04513V23.6119H3.40713C3.53713 22.8319 3.58913 22.1299 3.58913 20.9599V14.5119C3.58913 13.5499 3.61513 13.0039 3.66713 12.4059C2.86113 13.3939 2.41913 13.8879 1.61313 14.6159C1.35313 13.9919 1.14513 13.7059 0.703125 13.3159C2.73113 11.5739 4.16112 9.85791 5.43512 7.67391H3.71913C2.73113 7.67391 2.10713 7.72591 1.53513 7.85591V6.21791C2.10713 6.29591 2.67913 6.32191 3.66713 6.32191H6.13713C6.55313 5.41191 6.68312 5.07391 7.15112 3.74791H4.65513C4.00513 4.65791 3.69313 5.04791 2.80912 5.98391C2.54913 5.72391 2.08113 5.35991 1.58713 5.09991C2.67913 4.11191 3.22512 3.43591 3.90112 2.31791C4.42112 1.43391 4.73313 0.783911 4.91513 0.10791L6.50112 0.601912C6.37112 0.80991 6.29313 0.93991 6.11113 1.30391C5.87713 1.77191 5.74713 1.97991 5.51312 2.39591H11.1031C12.2731 2.39591 12.8711 2.36991 13.5211 2.23991V3.87791C12.7931 3.77391 12.1691 3.74791 11.1551 3.74791H8.71113C8.21713 5.15191 8.06112 5.54191 7.69712 6.32191H11.9871C13.0531 6.32191 13.5731 6.29591 14.1191 6.21791V7.82991C13.4431 7.72591 12.7671 7.67391 11.9611 7.67391H7.02113C6.39713 8.81791 6.11113 9.28591 5.25313 10.4299H8.58112C8.99712 9.72791 9.38713 8.92191 9.69913 8.06391L11.1291 8.53191C10.7131 9.31191 10.4791 9.72791 10.0111 10.4299H11.7271C12.9751 10.4299 13.3911 10.4039 13.8591 10.3259V11.7559C13.2611 11.6779 12.6631 11.6519 11.7271 11.6519H9.72513V13.7579H11.2071C12.3251 13.7579 12.8711 13.7319 13.3131 13.6539V15.0579C12.8191 14.9799 12.1691 14.9539 11.2071 14.9539H9.72513V17.1639H11.2071C12.3511 17.1639 12.8711 17.1379 13.3131 17.0599V18.4639C12.7671 18.3859 12.1691 18.3599 11.2071 18.3599H9.72513V20.8039H10.9731C12.2731 20.8039 12.6891 20.7779 13.1051 20.6999V22.1559C14.5091 20.5439 15.5491 18.5419 16.2251 16.1499C16.8751 13.7839 17.1611 11.7039 17.3431 7.69991H17.1611C15.7571 7.69991 15.2891 7.72591 14.7431 7.82991V6.08791C15.4191 6.19191 16.0431 6.21791 17.1611 6.21791H17.3951C17.4471 5.20391 17.4471 4.55391 17.4471 3.61791C17.4471 1.77191 17.4211 1.43391 17.2651 0.705911H19.2151C19.1371 1.19991 19.1111 1.58991 19.0851 2.13591C19.0851 2.34391 19.0851 2.34391 19.0591 4.60591C19.0331 5.95791 19.0331 5.95791 19.0331 6.21791H21.9191C23.0891 6.21791 23.6871 6.19191 24.1811 6.11391C24.1031 6.63391 24.1031 6.71191 23.9991 9.75391C23.8171 15.6559 23.5051 19.3739 22.9851 21.4019C22.6211 22.8839 21.8671 23.3779 20.0471 23.3779C19.3971 23.3779 18.6691 23.3259 17.7071 23.1699C17.6811 22.4939 17.6031 22.0779 17.4211 21.4279C18.4351 21.6879 19.3711 21.8179 20.1771 21.8179C21.2171 21.8179 21.4771 21.4279 21.7891 19.3219C21.9971 17.8399 22.2051 15.5259 22.3091 13.3679C22.3611 12.2759 22.3611 12.2759 22.4391 7.69991ZM5.04513 13.7579H8.34713V11.6519H5.04513V13.7579ZM5.04513 14.9539V17.1639H8.34713V14.9539H5.04513ZM5.04513 18.3599V20.8039H8.34713V18.3599H5.04513Z" fill="#333333"/>
</svg>
