<svg width="432" height="86" viewBox="0 0 432 86" fill="none" xmlns="http://www.w3.org/2000/svg">
<path d="M420.803 42.1383V33.5874H402.734V28.5995L420.549 4.21948H426.504V28.5995H431.746V33.5874H426.504V42.1383H420.803ZM407.162 30.7881L406.195 28.5995H420.803V9.00387L422.432 9.51284L407.162 30.7881Z" fill="#052482"/>
<path d="M376.875 42.1382L389.854 25.3419L390.872 26.0036C390.396 26.5126 389.871 26.9198 389.294 27.2252C388.751 27.5305 388.157 27.7511 387.512 27.8868C386.901 28.0226 386.24 28.0904 385.527 28.0904C383.254 28.0904 381.218 27.5814 379.42 26.5635C377.621 25.5116 376.196 24.0865 375.144 22.2881C374.126 20.4558 373.617 18.3859 373.617 16.0786C373.617 13.6694 374.177 11.5317 375.297 9.66547C376.417 7.79922 377.944 6.32318 379.878 5.23737C381.812 4.15155 384.017 3.60864 386.494 3.60864C389.005 3.60864 391.211 4.15155 393.111 5.23737C395.045 6.32318 396.555 7.81618 397.641 9.71636C398.761 11.5826 399.321 13.7203 399.321 16.1295C399.321 17.4189 399.185 18.6913 398.913 19.9468C398.642 21.2023 398.167 22.5086 397.488 23.8659C396.81 25.1893 395.859 26.6483 394.638 28.2431L384.051 42.1382H376.875ZM386.494 23.0516C387.818 23.0516 388.988 22.7462 390.006 22.1354C391.024 21.5246 391.839 20.6933 392.449 19.6414C393.06 18.5895 393.366 17.3849 393.366 16.0277C393.366 14.6365 393.06 13.4149 392.449 12.363C391.839 11.2772 391.007 10.4459 389.955 9.86906C388.937 9.25829 387.784 8.9529 386.494 8.9529C385.205 8.9529 384.034 9.25829 382.982 9.86906C381.964 10.4459 381.15 11.2772 380.539 12.363C379.929 13.4149 379.623 14.6365 379.623 16.0277C379.623 17.3849 379.912 18.5895 380.488 19.6414C381.099 20.6933 381.93 21.5246 382.982 22.1354C384.034 22.7462 385.205 23.0516 386.494 23.0516Z" fill="#052482"/>
<path d="M353.066 42.749C350.046 42.749 347.399 41.9346 345.126 40.3059C342.852 38.6432 341.071 36.3528 339.782 33.4347C338.526 30.4826 337.898 27.0555 337.898 23.1534C337.898 19.2173 338.526 15.7902 339.782 12.872C341.071 9.95389 342.836 7.68046 345.075 6.05173C347.348 4.423 349.995 3.60864 353.015 3.60864C356.035 3.60864 358.665 4.423 360.904 6.05173C363.178 7.68046 364.942 9.97085 366.198 12.9229C367.487 15.8411 368.132 19.2512 368.132 23.1534C368.132 27.0555 367.504 30.4826 366.248 33.4347C364.993 36.3528 363.229 38.6432 360.955 40.3059C358.716 41.9346 356.086 42.749 353.066 42.749ZM353.066 37.252C354.932 37.252 356.544 36.6752 357.901 35.5215C359.258 34.3678 360.31 32.7391 361.057 30.6353C361.803 28.5315 362.177 26.0376 362.177 23.1534C362.177 20.2691 361.803 17.7752 361.057 15.6714C360.31 13.5676 359.258 11.9389 357.901 10.7852C356.544 9.63153 354.915 9.05469 353.015 9.05469C351.149 9.05469 349.537 9.63153 348.18 10.7852C346.822 11.9389 345.771 13.5676 345.024 15.6714C344.278 17.7752 343.904 20.2691 343.904 23.1534C343.904 26.0036 344.278 28.4976 345.024 30.6353C345.771 32.7391 346.822 34.3678 348.18 35.5215C349.571 36.6752 351.2 37.252 353.066 37.252Z" fill="#052482"/>
<path d="M307.023 31.9079V26.8181H329.927V31.9079H307.023Z" fill="#052482"/>
<path d="M286.058 42.749C283.411 42.749 281.086 42.24 279.085 41.222C277.116 40.1701 275.59 38.7789 274.504 37.0484C273.418 35.284 272.875 33.3329 272.875 31.1952C272.875 28.7521 273.537 26.6483 274.86 24.8839C276.217 23.0855 278.117 21.7791 280.561 20.9648L280.306 22.4917C278.508 21.813 277.083 20.6763 276.031 19.0815C275.013 17.4528 274.504 15.6714 274.504 13.7373C274.504 11.8032 274.996 10.0726 275.98 8.54572C276.998 7.01879 278.372 5.81421 280.102 4.93198C281.867 4.04976 283.852 3.60864 286.058 3.60864C288.297 3.60864 290.282 4.04976 292.013 4.93198C293.743 5.78028 295.1 6.96789 296.084 8.49482C297.102 10.0217 297.611 11.7692 297.611 13.7373C297.611 15.7393 297.085 17.5376 296.033 19.1324C295.015 20.6933 293.624 21.813 291.86 22.4917L291.605 20.9648C294.048 21.813 295.949 23.1194 297.306 24.8839C298.663 26.6483 299.342 28.7521 299.342 31.1952C299.342 33.3329 298.782 35.284 297.662 37.0484C296.576 38.7789 295.032 40.1701 293.03 41.222C291.029 42.24 288.704 42.749 286.058 42.749ZM286.058 37.6592C287.517 37.6592 288.789 37.3877 289.875 36.8448C290.961 36.268 291.809 35.4876 292.42 34.5035C293.03 33.5195 293.336 32.3658 293.336 31.0425C293.336 29.7192 293.03 28.5655 292.42 27.5814C291.809 26.5974 290.961 25.834 289.875 25.291C288.789 24.7481 287.517 24.4767 286.058 24.4767C284.632 24.4767 283.377 24.7481 282.291 25.291C281.205 25.834 280.357 26.5974 279.746 27.5814C279.135 28.5655 278.83 29.7192 278.83 31.0425C278.83 32.3658 279.135 33.5195 279.746 34.5035C280.357 35.4876 281.205 36.268 282.291 36.8448C283.377 37.3877 284.632 37.6592 286.058 37.6592ZM286.058 19.3869C287.143 19.3869 288.093 19.1664 288.908 18.7253C289.756 18.2502 290.418 17.6055 290.893 16.7911C291.368 15.9768 291.605 15.0606 291.605 14.0427C291.605 12.9908 291.368 12.0746 290.893 11.2942C290.418 10.4798 289.756 9.85209 288.908 9.41098C288.093 8.93593 287.143 8.69841 286.058 8.69841C285.006 8.69841 284.056 8.93593 283.207 9.41098C282.359 9.85209 281.697 10.4798 281.222 11.2942C280.747 12.0746 280.51 12.9908 280.51 14.0427C280.51 15.0606 280.747 15.9768 281.222 16.7911C281.697 17.6055 282.359 18.2502 283.207 18.7253C284.056 19.1664 285.006 19.3869 286.058 19.3869Z" fill="#052482"/>
<path d="M242.153 42.1382V37.8119L252.536 26.7162C254.572 24.5446 256.167 22.7971 257.32 21.4737C258.508 20.1165 259.356 18.9288 259.865 17.9109C260.408 16.8929 260.68 15.8241 260.68 14.7043C260.68 12.872 260.12 11.4638 259 10.4798C257.88 9.46188 256.438 8.9529 254.674 8.9529C252.841 8.9529 251.264 9.47884 249.94 10.5307C248.617 11.5487 247.701 13.0417 247.192 15.0097L241.898 13.4828C242.306 11.4808 243.12 9.7503 244.342 8.29123C245.563 6.79823 247.056 5.64455 248.821 4.83019C250.619 4.01582 252.553 3.60864 254.623 3.60864C257.032 3.60864 259.136 4.06672 260.934 4.98288C262.733 5.86511 264.124 7.10362 265.108 8.69841C266.126 10.2932 266.635 12.1425 266.635 14.2463C266.635 15.6375 266.363 16.9947 265.82 18.3181C265.311 19.6075 264.514 20.9817 263.428 22.4408C262.342 23.8659 260.951 25.4777 259.255 27.2761L250.093 37.0484H267.347V42.1382H242.153Z" fill="#052482"/>
<path d="M224.357 42.749C221.88 42.749 219.675 42.2061 217.741 41.1203C215.807 40.0345 214.28 38.5415 213.16 36.6413C212.074 34.7411 211.531 32.5865 211.531 30.1773C211.531 28.9218 211.667 27.6663 211.938 26.4109C212.21 25.1554 212.685 23.849 213.364 22.4917C214.076 21.1345 215.026 19.6754 216.214 18.1145L226.801 4.21948H233.977L220.998 21.0157L219.98 20.354C220.455 19.8111 220.964 19.387 221.507 19.0816C222.084 18.7762 222.678 18.5557 223.289 18.4199C223.933 18.2842 224.612 18.2163 225.325 18.2163C227.598 18.2163 229.634 18.7423 231.432 19.7942C233.231 20.8461 234.639 22.2712 235.657 24.0696C236.709 25.868 237.235 27.9378 237.235 30.2791C237.235 32.6543 236.675 34.792 235.555 36.6922C234.435 38.5584 232.908 40.0345 230.974 41.1203C229.074 42.2061 226.868 42.749 224.357 42.749ZM224.357 37.4048C225.681 37.4048 226.851 37.0994 227.869 36.4886C228.887 35.8778 229.702 35.0465 230.312 33.9946C230.923 32.9088 231.229 31.6873 231.229 30.33C231.229 28.9388 230.923 27.7172 230.312 26.6654C229.736 25.6135 228.921 24.7991 227.869 24.2223C226.851 23.6115 225.681 23.3061 224.357 23.3061C223.068 23.3061 221.897 23.6115 220.846 24.2223C219.828 24.7991 219.013 25.6135 218.402 26.6654C217.792 27.7172 217.486 28.9388 217.486 30.33C217.486 31.6873 217.792 32.9088 218.402 33.9946C219.013 35.0465 219.828 35.8778 220.846 36.4886C221.897 37.0994 223.068 37.4048 224.357 37.4048Z" fill="#052482"/>
<path d="M181.27 31.9079V26.8181H204.173V31.9079H181.27Z" fill="#052482"/>
<path d="M158.222 42.749C155.202 42.749 152.556 41.9346 150.282 40.3059C148.009 38.6432 146.227 36.3528 144.938 33.4347C143.682 30.4826 143.055 27.0555 143.055 23.1534C143.055 19.2173 143.682 15.7902 144.938 12.872C146.227 9.95389 147.992 7.68046 150.231 6.05173C152.505 4.423 155.151 3.60864 158.171 3.60864C161.191 3.60864 163.821 4.423 166.06 6.05173C168.334 7.68046 170.098 9.97085 171.354 12.9229C172.643 15.8411 173.288 19.2512 173.288 23.1534C173.288 27.0555 172.66 30.4826 171.405 33.4347C170.149 36.3528 168.385 38.6432 166.111 40.3059C163.872 41.9346 161.242 42.749 158.222 42.749ZM158.222 37.252C160.088 37.252 161.7 36.6752 163.057 35.5215C164.415 34.3678 165.467 32.7391 166.213 30.6353C166.96 28.5315 167.333 26.0376 167.333 23.1534C167.333 20.2691 166.96 17.7752 166.213 15.6714C165.467 13.5676 164.415 11.9389 163.057 10.7852C161.7 9.63153 160.071 9.05469 158.171 9.05469C156.305 9.05469 154.693 9.63153 153.336 10.7852C151.979 11.9389 150.927 13.5676 150.18 15.6714C149.434 17.7752 149.061 20.2691 149.061 23.1534C149.061 26.0036 149.434 28.4976 150.18 30.6353C150.927 32.7391 151.979 34.3678 153.336 35.5215C154.727 36.6752 156.356 37.252 158.222 37.252Z" fill="#052482"/>
<path d="M112.075 42.1382V37.8119L122.458 26.7162C124.494 24.5446 126.089 22.7971 127.242 21.4737C128.43 20.1165 129.278 18.9288 129.787 17.9109C130.33 16.8929 130.602 15.8241 130.602 14.7043C130.602 12.872 130.042 11.4638 128.922 10.4798C127.802 9.46188 126.36 8.9529 124.596 8.9529C122.763 8.9529 121.185 9.47884 119.862 10.5307C118.539 11.5487 117.623 13.0417 117.114 15.0097L111.82 13.4828C112.227 11.4808 113.042 9.7503 114.263 8.29123C115.485 6.79823 116.978 5.64455 118.742 4.83019C120.541 4.01582 122.475 3.60864 124.545 3.60864C126.954 3.60864 129.058 4.06672 130.856 4.98288C132.654 5.86511 134.046 7.10362 135.03 8.69841C136.048 10.2932 136.557 12.1425 136.557 14.2463C136.557 15.6375 136.285 16.9947 135.742 18.3181C135.233 19.6075 134.436 20.9817 133.35 22.4408C132.264 23.8659 130.873 25.4777 129.176 27.2761L120.015 37.0484H137.269V42.1382H112.075Z" fill="#052482"/>
<path d="M98.5557 42.1383V9.30925H91.2773V4.21948H104.511V42.1383H98.5557Z" fill="#052482"/>
<path d="M71.437 42.749C68.4171 42.749 65.7704 41.9346 63.497 40.3059C61.2236 38.6432 59.4422 36.3528 58.1527 33.4347C56.8973 30.4826 56.2695 27.0555 56.2695 23.1534C56.2695 19.2173 56.8973 15.7902 58.1527 12.872C59.4422 9.95389 61.2066 7.68046 63.4461 6.05173C65.7195 4.423 68.3662 3.60864 71.3861 3.60864C74.4061 3.60864 77.0358 4.423 79.2753 6.05173C81.5487 7.68046 83.3132 9.97085 84.5686 12.9229C85.858 15.8411 86.5028 19.2512 86.5028 23.1534C86.5028 27.0555 85.875 30.4826 84.6195 33.4347C83.3641 36.3528 81.5996 38.6432 79.3262 40.3059C77.0867 41.9346 74.457 42.749 71.437 42.749ZM71.437 37.252C73.3033 37.252 74.915 36.6752 76.2723 35.5215C77.6296 34.3678 78.6815 32.7391 79.428 30.6353C80.1745 28.5315 80.5477 26.0376 80.5477 23.1534C80.5477 20.2691 80.1745 17.7752 79.428 15.6714C78.6815 13.5676 77.6296 11.9389 76.2723 10.7852C74.915 9.63153 73.2863 9.05469 71.3861 9.05469C69.5199 9.05469 67.9081 9.63153 66.5509 10.7852C65.1936 11.9389 64.1417 13.5676 63.3952 15.6714C62.6487 17.7752 62.2755 20.2691 62.2755 23.1534C62.2755 26.0036 62.6487 28.4976 63.3952 30.6353C64.1417 32.7391 65.1936 34.3678 66.5509 35.5215C67.9421 36.6752 69.5708 37.252 71.437 37.252Z" fill="#052482"/>
<path d="M325.037 82.9245C323.237 82.9245 321.658 82.4389 320.302 81.4676C318.947 80.476 317.884 79.1101 317.115 77.3699C316.367 75.6094 315.992 73.5656 315.992 71.2385C315.992 68.8911 316.367 66.8473 317.115 65.1071C317.884 63.3668 318.936 62.011 320.272 61.0397C321.628 60.0684 323.206 59.5828 325.007 59.5828C326.808 59.5828 328.376 60.0684 329.712 61.0397C331.068 62.011 332.12 63.3769 332.869 65.1374C333.638 66.8777 334.022 68.9114 334.022 71.2385C334.022 73.5656 333.648 75.6094 332.899 77.3699C332.15 79.1101 331.098 80.476 329.742 81.4676C328.407 82.4389 326.838 82.9245 325.037 82.9245ZM325.037 79.6464C326.15 79.6464 327.112 79.3024 327.921 78.6143C328.73 77.9263 329.358 76.955 329.803 75.7004C330.248 74.4458 330.471 72.9585 330.471 71.2385C330.471 69.5184 330.248 68.0311 329.803 66.7765C329.358 65.5219 328.73 64.5506 327.921 63.8626C327.112 63.1746 326.14 62.8306 325.007 62.8306C323.894 62.8306 322.933 63.1746 322.124 63.8626C321.314 64.5506 320.687 65.5219 320.242 66.7765C319.796 68.0311 319.574 69.5184 319.574 71.2385C319.574 72.9383 319.796 74.4256 320.242 75.7004C320.687 76.955 321.314 77.9263 322.124 78.6143C322.953 79.3024 323.925 79.6464 325.037 79.6464Z" fill="#052482"/>
<path d="M303.311 82.9245C301.51 82.9245 299.932 82.4389 298.576 81.4676C297.22 80.476 296.158 79.1101 295.389 77.3699C294.64 75.6094 294.266 73.5656 294.266 71.2385C294.266 68.8911 294.64 66.8473 295.389 65.1071C296.158 63.3668 297.21 62.011 298.545 61.0397C299.901 60.0684 301.48 59.5828 303.281 59.5828C305.082 59.5828 306.65 60.0684 307.985 61.0397C309.341 62.011 310.393 63.3769 311.142 65.1374C311.911 66.8777 312.296 68.9114 312.296 71.2385C312.296 73.5656 311.921 75.6094 311.172 77.3699C310.424 79.1101 309.371 80.476 308.016 81.4676C306.68 82.4389 305.112 82.9245 303.311 82.9245ZM303.311 79.6464C304.424 79.6464 305.385 79.3024 306.195 78.6143C307.004 77.9263 307.631 76.955 308.076 75.7004C308.522 74.4458 308.744 72.9585 308.744 71.2385C308.744 69.5184 308.522 68.0311 308.076 66.7765C307.631 65.5219 307.004 64.5506 306.195 63.8626C305.385 63.1746 304.414 62.8306 303.281 62.8306C302.168 62.8306 301.206 63.1746 300.397 63.8626C299.588 64.5506 298.96 65.5219 298.515 66.7765C298.07 68.0311 297.847 69.5184 297.847 71.2385C297.847 72.9383 298.07 74.4256 298.515 75.7004C298.96 76.955 299.588 77.9263 300.397 78.6143C301.227 79.3024 302.198 79.6464 303.311 79.6464Z" fill="#052482"/>
<path d="M285.41 82.5603V78.6144H288.901V82.5603H285.41ZM285.41 70.0851V66.1392H288.901V70.0851H285.41Z" fill="#052482"/>
<path d="M267.029 82.5603L274.769 72.5437L275.376 72.9383C275.092 73.2418 274.779 73.4846 274.435 73.6667C274.111 73.8489 273.757 73.9804 273.372 74.0613C273.008 74.1423 272.614 74.1827 272.189 74.1827C270.833 74.1827 269.619 73.8792 268.546 73.2721C267.474 72.6448 266.624 71.7949 265.997 70.7225C265.389 69.6297 265.086 68.3954 265.086 67.0193C265.086 65.5826 265.42 64.3078 266.088 63.1948C266.755 62.0819 267.666 61.2016 268.819 60.5541C269.973 59.9065 271.288 59.5828 272.765 59.5828C274.263 59.5828 275.578 59.9065 276.711 60.5541C277.865 61.2016 278.765 62.092 279.413 63.2252C280.081 64.3381 280.414 65.613 280.414 67.0497C280.414 67.8187 280.333 68.5775 280.172 69.3262C280.01 70.0749 279.726 70.854 279.322 71.6634C278.917 72.4526 278.35 73.3227 277.622 74.2738L271.308 82.5603H267.029ZM272.765 71.1778C273.555 71.1778 274.253 70.9956 274.86 70.6314C275.467 70.2672 275.952 69.7714 276.317 69.1441C276.681 68.5168 276.863 67.7984 276.863 66.989C276.863 66.1593 276.681 65.4309 276.317 64.8035C275.952 64.156 275.457 63.6602 274.829 63.3162C274.222 62.952 273.534 62.7699 272.765 62.7699C271.996 62.7699 271.298 62.952 270.671 63.3162C270.064 63.6602 269.578 64.156 269.214 64.8035C268.85 65.4309 268.668 66.1593 268.668 66.989C268.668 67.7984 268.84 68.5168 269.184 69.1441C269.548 69.7714 270.044 70.2672 270.671 70.6314C271.298 70.9956 271.996 71.1778 272.765 71.1778Z" fill="#052482"/>
<path d="M257.118 82.5603V62.9824H252.777V59.947H260.669V82.5603H257.118Z" fill="#052482"/>
<path d="M235.215 76.4594V73.4241H248.874V76.4594H235.215Z" fill="#052482"/>
<path d="M221.467 82.9245C219.666 82.9245 218.088 82.4389 216.732 81.4676C215.376 80.476 214.314 79.1101 213.545 77.3699C212.796 75.6094 212.422 73.5656 212.422 71.2385C212.422 68.8911 212.796 66.8473 213.545 65.1071C214.314 63.3668 215.366 62.011 216.702 61.0397C218.057 60.0684 219.636 59.5828 221.437 59.5828C223.238 59.5828 224.806 60.0684 226.142 61.0397C227.497 62.011 228.55 63.3769 229.298 65.1374C230.067 66.8777 230.452 68.9114 230.452 71.2385C230.452 73.5656 230.077 75.6094 229.329 77.3699C228.58 79.1101 227.528 80.476 226.172 81.4676C224.836 82.4389 223.268 82.9245 221.467 82.9245ZM221.467 79.6464C222.58 79.6464 223.541 79.3024 224.351 78.6143C225.16 77.9263 225.787 76.955 226.233 75.7004C226.678 74.4458 226.9 72.9585 226.9 71.2385C226.9 69.5184 226.678 68.0311 226.233 66.7765C225.787 65.5219 225.16 64.5506 224.351 63.8626C223.541 63.1746 222.57 62.8306 221.437 62.8306C220.324 62.8306 219.363 63.1746 218.553 63.8626C217.744 64.5506 217.117 65.5219 216.671 66.7765C216.226 68.0311 216.004 69.5184 216.004 71.2385C216.004 72.9383 216.226 74.4256 216.671 75.7004C217.117 76.955 217.744 77.9263 218.553 78.6143C219.383 79.3024 220.354 79.6464 221.467 79.6464Z" fill="#052482"/>
<path d="M200.911 82.9245C199.697 82.9245 198.554 82.702 197.481 82.2568C196.429 81.8116 195.518 81.1843 194.749 80.3749C194.001 79.5654 193.464 78.6144 193.141 77.5216L196.176 76.3682C196.581 77.4407 197.198 78.2704 198.028 78.8572C198.857 79.444 199.818 79.7374 200.911 79.7374C201.801 79.7374 202.57 79.5654 203.218 79.2214C203.886 78.8774 204.402 78.3918 204.766 77.7645C205.15 77.1372 205.343 76.3783 205.343 75.488C205.343 74.6178 205.15 73.8691 204.766 73.2418C204.402 72.6145 203.886 72.139 203.218 71.8152C202.57 71.4914 201.801 71.3295 200.911 71.3295C200.547 71.3295 200.172 71.3599 199.788 71.4206C199.424 71.4813 199.1 71.5623 198.817 71.6634L198.028 69.994L203.977 62.9824H194.355V59.947H207.983V62.8306L202.156 69.8119L202.065 68.6584C203.42 68.6787 204.614 68.9822 205.646 69.569C206.678 70.1356 207.478 70.9248 208.044 71.9366C208.631 72.9282 208.924 74.0816 208.924 75.3969C208.924 76.8134 208.58 78.0984 207.892 79.2518C207.204 80.385 206.253 81.2855 205.039 81.9532C203.845 82.6008 202.469 82.9245 200.911 82.9245Z" fill="#052482"/>
<path d="M185.016 82.5603V78.6144H188.506V82.5603H185.016ZM185.016 70.0851V66.1392H188.506V70.0851H185.016Z" fill="#052482"/>
<path d="M166.634 82.5603L174.374 72.5437L174.981 72.9383C174.698 73.2418 174.384 73.4846 174.04 73.6667C173.716 73.8489 173.362 73.9804 172.978 74.0613C172.614 74.1423 172.219 74.1827 171.794 74.1827C170.438 74.1827 169.224 73.8792 168.152 73.2721C167.079 72.6448 166.229 71.7949 165.602 70.7225C164.995 69.6297 164.691 68.3954 164.691 67.0193C164.691 65.5826 165.025 64.3078 165.693 63.1948C166.361 62.0819 167.271 61.2016 168.425 60.5541C169.578 59.9065 170.894 59.5828 172.371 59.5828C173.868 59.5828 175.184 59.9065 176.317 60.5541C177.47 61.2016 178.371 62.092 179.018 63.2252C179.686 64.3381 180.02 65.613 180.02 67.0497C180.02 67.8187 179.939 68.5775 179.777 69.3262C179.615 70.0749 179.332 70.854 178.927 71.6634C178.522 72.4526 177.956 73.3227 177.227 74.2738L170.914 82.5603H166.634ZM172.371 71.1778C173.16 71.1778 173.858 70.9956 174.465 70.6314C175.072 70.2672 175.558 69.7714 175.922 69.1441C176.286 68.5168 176.469 67.7984 176.469 66.989C176.469 66.1593 176.286 65.4309 175.922 64.8035C175.558 64.156 175.062 63.6602 174.435 63.3162C173.828 62.952 173.14 62.7699 172.371 62.7699C171.602 62.7699 170.904 62.952 170.276 63.3162C169.669 63.6602 169.184 64.156 168.819 64.8035C168.455 65.4309 168.273 66.1593 168.273 66.989C168.273 67.7984 168.445 68.5168 168.789 69.1441C169.153 69.7714 169.649 70.2672 170.276 70.6314C170.904 70.9956 171.602 71.1778 172.371 71.1778Z" fill="#052482"/>
<path d="M130.027 58.6116H151.214V84.8673H147.298V62.2843H133.761V84.928H130.027V58.6116ZM132.577 68.8103H148.907V72.392H132.577V68.8103ZM132.577 79.2519H148.938V82.9246H132.577V79.2519Z" fill="#052482"/>
<path d="M98.0072 58.6418H122.29V62.2539H98.0072V58.6418ZM96.3984 71.5117H124.05V75.1844H96.3984V71.5117ZM99.8284 64.2269L103.167 63.2252C103.511 63.893 103.845 64.6012 104.169 65.3499C104.513 66.0784 104.806 66.8069 105.049 67.5354C105.312 68.2436 105.504 68.8811 105.626 69.4477L102.075 70.5707C101.973 70.0041 101.811 69.3667 101.589 68.6585C101.366 67.93 101.103 67.1813 100.8 66.4123C100.496 65.6231 100.172 64.8946 99.8284 64.2269ZM117.13 63.1341L121.045 64.1358C120.681 64.925 120.297 65.7041 119.892 66.473C119.507 67.242 119.123 67.9806 118.739 68.6888C118.374 69.3768 118.02 69.9839 117.676 70.51L114.489 69.5691C114.813 68.9822 115.137 68.3145 115.46 67.5657C115.804 66.817 116.118 66.0582 116.401 65.2892C116.705 64.5203 116.948 63.8019 117.13 63.1341ZM108.267 60.1595H112.061V85.2618H108.267V60.1595Z" fill="#052482"/>
<g clip-path="url(#clip0_3579_884)">
<path d="M9.8759 2.16216C6.37867 4.42327 5.69165 11.4912 7.01201 17.2517C8.0403 21.7376 10.2265 27.7552 13.913 33.4217C17.381 38.7524 22.2194 43.5323 25.9087 46.2979C30.6462 49.8489 37.3998 52.1061 40.897 49.845C42.6654 48.7016 45.2927 45.5778 45.4126 45.0173C45.4126 45.0173 43.872 42.6491 43.5339 42.1295L38.3674 34.1879C37.9834 33.5977 35.5757 34.1371 34.3526 34.8278C32.7027 35.7597 31.1832 38.2603 31.1832 38.2603C30.052 38.9119 29.1044 38.2627 27.1245 37.3543C24.6913 36.2382 21.9555 32.7704 19.7782 29.6296C17.7895 26.3668 15.729 22.4623 15.6992 19.7923C15.6747 17.6197 15.4665 16.4926 16.5247 15.7285C16.5247 15.7285 19.4346 15.3652 20.9611 14.2435C22.0924 13.4119 23.5684 11.4403 23.1844 10.8501L18.0179 2.90859C17.6798 2.3889 16.1392 0.0207513 16.1392 0.0207513C15.5768 -0.0986671 11.6443 1.01881 9.8759 2.16216Z" fill="#052482"/>
</g>
<defs>
<clipPath id="clip0_3579_884">
<rect width="50.8977" height="50.7404" fill="white" transform="translate(0.449219 0.0109863)"/>
</clipPath>
</defs>
</svg>
