<svg width="148" height="50" viewBox="0 0 148 50" fill="none" xmlns="http://www.w3.org/2000/svg">
<rect width="148" height="50" rx="10" fill="#052482"/>
<path d="M31.63 35.16C31.48 35.19 31.33 35.19 31.18 35.19C30.19 35.19 29.65 34.5 29.65 33.72C29.65 32.85 30.37 32.25 31.18 32.16C37.78 31.26 45.76 30.99 50.02 31.11C51.91 26.25 54.01 17.58 53.83 16.89C52.96 16.68 41.65 16.98 34.51 18.36C32.02 18.84 31.9 15.66 34.33 15.3C40.57 14.4 47.41 14.1 51.37 14.1C52.93 14.1 54.04 14.16 54.49 14.22C55.84 14.43 56.71 15.39 56.71 16.59C56.68 18.36 54.22 26.94 52.54 31.47C53.56 32.16 52.93 33.96 51.07 33.84C48.16 33.63 37.78 34.02 31.63 35.16ZM71.95 21.24C71.89 19.41 71.26 15.6 70.42 13.32C70 12.15 70.87 11.37 71.8 11.37C72.43 11.37 73.06 11.73 73.36 12.54C74.11 14.67 74.71 18.36 74.8 20.88C74.86 23.01 72.01 23.22 71.95 21.24ZM64.99 23.91C64.45 20.43 63.28 17.4 62.44 15.9C62.29 15.6 62.2 15.33 62.2 15.06C62.2 13.65 64.21 12.87 65.08 14.43C66.43 16.92 67.96 21.72 68.05 23.49C68.17 25.23 65.29 25.92 64.99 23.91ZM68.86 37.68C68.53 37.83 68.2 37.92 67.93 37.92C66.37 37.92 65.83 35.64 67.54 34.74C71.05 32.88 75.04 30.21 78.31 27.06C81.7 23.82 84.34 20.25 86.14 17.1C86.98 15.66 89.14 16.2 89.14 17.79C89.14 18.12 89.05 18.45 88.87 18.84C86.53 23.7 75.91 34.29 68.86 37.68ZM95.38 37.38C94.15 37.26 93.61 36.54 93.61 35.88C93.61 35.22 94.12 34.62 95.11 34.68C98.59 34.92 102.28 35.25 106.6 33.39C110.2 31.83 111.52 29.16 111.52 27.48C111.52 25.98 110.17 24.84 107.59 24.6C104.65 24.33 100.93 24.84 97.36 25.86C96.04 26.25 95.23 25.56 95.23 24.78C95.23 24.21 95.68 23.58 96.73 23.28C99.13 22.59 102.1 21.93 104.86 20.82C108.37 19.41 112.48 17.04 112.24 15.36C112.09 14.34 110.77 13.68 107.53 13.95C105.73 14.1 102.91 14.91 101.29 15.66C99.94 16.29 98.92 15.51 98.92 14.64C98.92 14.16 99.22 13.65 99.94 13.32C101.74 12.51 105.01 11.76 107.53 11.64C107.83 11.64 108.1 11.61 108.37 11.61C110.95 11.61 112.96 12.24 113.95 12.93C114.7 13.44 115.18 14.31 115.18 15.24C115.18 15.93 114.94 16.65 114.37 17.34C112.63 19.44 108.49 21.72 106.21 22.47C109.96 22.23 111.82 22.83 113.44 24.51C115.21 26.34 114.88 29.34 113.23 31.5C111.7 33.51 109.09 35.61 105.82 36.54C103.21 37.26 100.63 37.5 98.35 37.5C97.3 37.5 96.28 37.47 95.38 37.38Z" fill="white"/>
</svg>
