<svg width="146" height="50" viewBox="0 0 146 50" fill="none" xmlns="http://www.w3.org/2000/svg">
<rect width="146" height="50" rx="10" fill="#052482"/>
<path d="M30.63 35.16C30.48 35.19 30.33 35.19 30.18 35.19C29.19 35.19 28.65 34.5 28.65 33.72C28.65 32.85 29.37 32.25 30.18 32.16C36.78 31.26 44.76 30.99 49.02 31.11C50.91 26.25 53.01 17.58 52.83 16.89C51.96 16.68 40.65 16.98 33.51 18.36C31.02 18.84 30.9 15.66 33.33 15.3C39.57 14.4 46.41 14.1 50.37 14.1C51.93 14.1 53.04 14.16 53.49 14.22C54.84 14.43 55.71 15.39 55.71 16.59C55.68 18.36 53.22 26.94 51.54 31.47C52.56 32.16 51.93 33.96 50.07 33.84C47.16 33.63 36.78 34.02 30.63 35.16ZM70.95 21.24C70.89 19.41 70.26 15.6 69.42 13.32C69 12.15 69.87 11.37 70.8 11.37C71.43 11.37 72.06 11.73 72.36 12.54C73.11 14.67 73.71 18.36 73.8 20.88C73.86 23.01 71.01 23.22 70.95 21.24ZM63.99 23.91C63.45 20.43 62.28 17.4 61.44 15.9C61.29 15.6 61.2 15.33 61.2 15.06C61.2 13.65 63.21 12.87 64.08 14.43C65.43 16.92 66.96 21.72 67.05 23.49C67.17 25.23 64.29 25.92 63.99 23.91ZM67.86 37.68C67.53 37.83 67.2 37.92 66.93 37.92C65.37 37.92 64.83 35.64 66.54 34.74C70.05 32.88 74.04 30.21 77.31 27.06C80.7 23.82 83.34 20.25 85.14 17.1C85.98 15.66 88.14 16.2 88.14 17.79C88.14 18.12 88.05 18.45 87.87 18.84C85.53 23.7 74.91 34.29 67.86 37.68ZM94.02 30.81C92.49 30.66 91.77 29.73 91.77 28.68C91.77 28.14 91.92 27.6 92.28 27.09C94.32 24.09 100.5 16.92 104.85 13.41C106.32 12.21 108.15 12.78 108.15 13.89C108.15 14.34 107.88 14.88 107.16 15.42C103.02 18.6 94.62 27.42 95.04 28.14C95.28 28.56 100.26 28.26 104.52 27.75C105.63 27.63 106.68 27.45 107.67 27.27C109.26 21.48 111 15.6 111.9 12.84C112.2 11.91 112.98 11.46 113.67 11.46C114.54 11.46 115.23 12.15 114.78 13.44C113.79 16.2 112.08 21.21 110.58 26.73C111.87 26.46 112.95 26.19 113.76 26.04C114.96 25.8 115.56 26.46 115.56 27.24C115.56 27.99 114.96 28.89 113.85 29.1C112.71 29.34 111.3 29.55 109.8 29.76C109.17 32.19 108.63 34.65 108.24 37.02C108.09 38.01 107.37 38.46 106.68 38.46C105.84 38.46 105.06 37.8 105.33 36.6C105.75 34.68 106.32 32.46 106.92 30.12C101.91 30.66 96.39 31.02 94.02 30.81Z" fill="white"/>
</svg>
