<svg width="148" height="50" viewBox="0 0 148 50" fill="none" xmlns="http://www.w3.org/2000/svg">
<rect width="148" height="50" rx="10" fill="#052482"/>
<path d="M31.63 35.16C31.48 35.19 31.33 35.19 31.18 35.19C30.19 35.19 29.65 34.5 29.65 33.72C29.65 32.85 30.37 32.25 31.18 32.16C37.78 31.26 45.76 30.99 50.02 31.11C51.91 26.25 54.01 17.58 53.83 16.89C52.96 16.68 41.65 16.98 34.51 18.36C32.02 18.84 31.9 15.66 34.33 15.3C40.57 14.4 47.41 14.1 51.37 14.1C52.93 14.1 54.04 14.16 54.49 14.22C55.84 14.43 56.71 15.39 56.71 16.59C56.68 18.36 54.22 26.94 52.54 31.47C53.56 32.16 52.93 33.96 51.07 33.84C48.16 33.63 37.78 34.02 31.63 35.16ZM71.95 21.24C71.89 19.41 71.26 15.6 70.42 13.32C70 12.15 70.87 11.37 71.8 11.37C72.43 11.37 73.06 11.73 73.36 12.54C74.11 14.67 74.71 18.36 74.8 20.88C74.86 23.01 72.01 23.22 71.95 21.24ZM64.99 23.91C64.45 20.43 63.28 17.4 62.44 15.9C62.29 15.6 62.2 15.33 62.2 15.06C62.2 13.65 64.21 12.87 65.08 14.43C66.43 16.92 67.96 21.72 68.05 23.49C68.17 25.23 65.29 25.92 64.99 23.91ZM68.86 37.68C68.53 37.83 68.2 37.92 67.93 37.92C66.37 37.92 65.83 35.64 67.54 34.74C71.05 32.88 75.04 30.21 78.31 27.06C81.7 23.82 84.34 20.25 86.14 17.1C86.98 15.66 89.14 16.2 89.14 17.79C89.14 18.12 89.05 18.45 88.87 18.84C86.53 23.7 75.91 34.29 68.86 37.68ZM94.39 37.08C93.19 36.9 92.59 36.15 92.59 35.46C92.59 34.71 93.31 34.02 94.6 34.2C98.86 34.83 103.3 34.65 106.69 33.12C110.47 31.41 111.94 28.98 111.79 27.15C111.64 25.44 109.42 24.57 106.69 24.69C101.95 24.9 98.86 26.4 97.48 26.4C96.31 26.4 95.53 25.29 95.68 24.03C95.86 22.44 97.84 16.62 99.25 13.05C99.67 12 100.48 11.58 101.2 11.58C102.13 11.58 102.82 12.3 102.19 13.38L102.01 13.68C105.22 13.2 113.32 12.3 116.08 12.33C117.16 12.36 117.67 12.93 117.67 13.53C117.67 14.22 117.01 14.94 115.81 14.94C112.12 15.03 105.37 15.33 100.81 16.11C99.76 18.51 99.13 20.88 98.44 23.52C102.34 22.47 109.72 21.09 113.14 23.94C114.85 25.35 114.97 27.36 114.01 29.91C113.14 32.22 110.8 34.02 107.95 35.28C105.55 36.33 101.8 37.32 97.75 37.32C96.64 37.32 95.53 37.26 94.39 37.08Z" fill="white"/>
</svg>
